<?xml version="1.0" encoding="UTF-8"?>
<!DOCTYPE svg PUBLIC "-//W3C//DTD SVG 1.1//EN" "http://www.w3.org/Graphics/SVG/1.1/DTD/svg11.dtd">
<!-- Creator: CorelDRAW 2021 (64-Bit) -->
<svg xmlns="http://www.w3.org/2000/svg" xml:space="preserve" width="17px" height="19px" version="1.1" style="shape-rendering:geometricPrecision; text-rendering:geometricPrecision; image-rendering:optimizeQuality; fill-rule:evenodd; clip-rule:evenodd"
viewBox="0 0 0.284 0.308"
 xmlns:xlink="http://www.w3.org/1999/xlink"
 xmlns:xodm="http://www.corel.com/coreldraw/odm/2003">
 <defs>
  <style type="text/css">
   <![CDATA[
    .fil0 {fill:white}
   ]]>
  </style>
 </defs>
 <g id="Layer_x0020_1">
  <metadata id="CorelCorpID_0Corel-Layer"/>
  <path class="fil0" d="M0 0.014c0,0.004 0.001,0.008 0.003,0.011l0.018 0.04c0.006,0.016 0.014,0.032 0.021,0.048 0.001,0.003 0.002,0.005 0.003,0.008 0.004,0.008 0.007,0.018 0.018,0.018 0.009,0 0.017,-0.009 0.015,-0.018 -0.001,-0.005 -0.012,-0.028 -0.015,-0.035l-0.016 -0.036c0.003,0.001 0.004,0.002 0.006,0.004 0.003,0.001 0.004,0.001 0.006,0.003 0.004,0.002 0.008,0.004 0.012,0.006l0.068 0.037c0.014,0.008 0.037,0.021 0.05,0.028 0.004,0.002 0.008,0.004 0.012,0.006 0.003,0.002 0.034,0.018 0.035,0.02 -0.001,0.002 -0.003,0.002 -0.005,0.003 -0.003,0.002 -0.004,0.002 -0.006,0.003l-0.047 0.027c-0.005,0.002 -0.009,0.004 -0.013,0.006 -0.003,0.002 -0.007,0.004 -0.011,0.006l-0.024 0.013c-0.004,0.003 -0.008,0.005 -0.012,0.007 -0.008,0.004 -0.016,0.009 -0.024,0.013 -0.004,0.002 -0.007,0.004 -0.011,0.006 -0.008,0.005 -0.017,0.009 -0.024,0.014 -0.004,0.002 -0.008,0.005 -0.013,0.006l0.006 -0.013c0.001,-0.002 0.002,-0.003 0.002,-0.005l0.017 -0.035c0.004,-0.01 0.013,-0.022 0.003,-0.032 -0.008,-0.007 -0.02,-0.004 -0.024,0.005 -0.001,0.001 -0.001,0.002 -0.002,0.003l-0.013 0.029c-0.007,0.016 -0.014,0.032 -0.021,0.048 -0.003,0.006 -0.005,0.011 -0.008,0.017 -0.001,0.002 -0.002,0.005 -0.003,0.007 -0.002,0.004 -0.003,0.007 -0.003,0.012 0,0.008 0.008,0.014 0.016,0.014 0.005,0 0.014,-0.006 0.018,-0.008l0.017 -0.01c0.002,0 0.002,-0.001 0.004,-0.002 0.002,-0.001 0.003,-0.001 0.004,-0.002 0.003,-0.002 0.006,-0.003 0.009,-0.005l0.063 -0.035c0.002,-0.001 0.003,-0.001 0.005,-0.002l0.051 -0.028c0.005,-0.003 0.011,-0.006 0.017,-0.009l0.068 -0.037c0.003,-0.002 0.005,-0.003 0.008,-0.006 0.005,-0.005 0.005,-0.015 0,-0.02 -0.003,-0.003 -0.008,-0.006 -0.012,-0.008l-0.038 -0.021c-0.002,-0.001 -0.003,-0.001 -0.005,-0.002l-0.02 -0.012c-0.002,-0.001 -0.003,-0.001 -0.005,-0.002 -0.001,-0.001 -0.002,-0.001 -0.004,-0.002l-0.153 -0.084c-0.002,-0.001 -0.002,-0.001 -0.004,-0.002l-0.013 -0.007c-0.004,-0.002 -0.008,-0.004 -0.012,-0.004 -0.007,0 -0.014,0.007 -0.014,0.014z"/>
 </g>
</svg>
