<?xml version="1.0" encoding="UTF-8"?>
<!DOCTYPE svg PUBLIC "-//W3C//DTD SVG 1.1//EN" "http://www.w3.org/Graphics/SVG/1.1/DTD/svg11.dtd">
<!-- Creator: CorelDRAW 2021 (64-Bit) -->
<svg xmlns="http://www.w3.org/2000/svg" xml:space="preserve" width="22px" height="22px" version="1.1" style="shape-rendering:geometricPrecision; text-rendering:geometricPrecision; image-rendering:optimizeQuality; fill-rule:evenodd; clip-rule:evenodd"
viewBox="0 0 0.423 0.423"
 xmlns:xlink="http://www.w3.org/1999/xlink"
 xmlns:xodm="http://www.corel.com/coreldraw/odm/2003">
 <defs>
  <style type="text/css">
   <![CDATA[
    .fil0 {fill:white;fill-rule:nonzero}
   ]]>
  </style>
 </defs>
 <g id="Layer_x0020_1">
  <metadata id="CorelCorpID_0Corel-Layer"/>
  <g id="_2874575247216">
   <path class="fil0" d="M0.393 0.36l-0.054 0c-0.006,-0.021 -0.026,-0.035 -0.047,-0.035 -0.022,0 -0.041,0.014 -0.047,0.035l-0.231 0c-0.008,0 -0.014,0.006 -0.014,0.014 0,0.008 0.006,0.014 0.014,0.014l0.231 0c0.006,0.021 0.025,0.035 0.047,0.035 0.021,0 0.041,-0.014 0.047,-0.035l0.054 0c0.008,0 0.014,-0.006 0.014,-0.014 0,-0.008 -0.006,-0.014 -0.014,-0.014l0 0zm-0.101 0.035c-0.012,0 -0.021,-0.009 -0.021,-0.021 0,-0.012 0.009,-0.021 0.021,-0.021 0.011,0 0.021,0.009 0.021,0.021 0,0.012 -0.01,0.021 -0.021,0.021l0 0z"/>
   <path class="fil0" d="M0.379 0l-0.335 0c-0.024,0 -0.044,0.02 -0.044,0.044l0 0.222c0,0.025 0.02,0.045 0.044,0.045l0.335 0c0.025,0 0.044,-0.02 0.044,-0.045l0 -0.222c0,-0.024 -0.019,-0.044 -0.044,-0.044zm0.016 0.266c0,0.009 -0.007,0.016 -0.016,0.016l-0.335 0c-0.009,0 -0.016,-0.007 -0.016,-0.016l0 -0.222c0,-0.009 0.007,-0.016 0.016,-0.016l0.335 0c0.009,0 0.016,0.007 0.016,0.016l0 0.222z"/>
   <path class="fil0" d="M0.29 0.143l-0.113 -0.07c-0.002,-0.002 -0.005,-0.002 -0.008,-0.002 -0.007,0 -0.014,0.006 -0.014,0.014 0,0 0,0 0,0l0 0.141c0,0 0,0 0,0 0,0.008 0.007,0.014 0.014,0.014 0.003,0 0.006,-0.001 0.008,-0.002l0.113 -0.071c0.004,-0.002 0.006,-0.007 0.006,-0.012 0,-0.005 -0.002,-0.009 -0.006,-0.012l0 0zm-0.106 0.057l0 -0.09 0.072 0.045 -0.072 0.045z"/>
  </g>
 </g>
</svg>
