<?xml version="1.0" encoding="UTF-8"?>
<!DOCTYPE svg PUBLIC "-//W3C//DTD SVG 1.1//EN" "http://www.w3.org/Graphics/SVG/1.1/DTD/svg11.dtd">
<!-- Creator: CorelDRAW 2021 (64-Bit) -->
<svg xmlns="http://www.w3.org/2000/svg" xml:space="preserve" width="56px" height="56px" version="1.1" style="shape-rendering:geometricPrecision; text-rendering:geometricPrecision; image-rendering:optimizeQuality; fill-rule:evenodd; clip-rule:evenodd"
viewBox="0 0 3.711 3.711"
 xmlns:xlink="http://www.w3.org/1999/xlink"
 xmlns:xodm="http://www.corel.com/coreldraw/odm/2003">
 <defs>
  <style type="text/css">
   <![CDATA[
    .fil0 {fill:#9999FF}
   ]]>
  </style>
 </defs>
 <g id="Layer_x0020_1">
  <metadata id="CorelCorpID_0Corel-Layer"/>
  <g id="_2874787897968">
   <polygon class="fil0" points="0.68,1.67 1.67,1.67 1.67,0.68 0.68,0.68 "/>
   <path class="fil0" d="M2.041 2.505c0,0.102 0.002,0.153 0.046,0.247 0.07,0.149 0.25,0.279 0.418,0.279l0.062 0c0.233,0 0.464,-0.231 0.464,-0.464l0 -0.062c0,-0.234 -0.231,-0.464 -0.464,-0.464l-0.062 0c-0.234,0 -0.464,0.23 -0.464,0.464z"/>
   <polygon class="fil0" points="0.677,3.029 1.67,3.031 1.18,2.042 1.167,2.041 "/>
   <path class="fil0" d="M2.041 1.67l0.379 0c0.012,-0.047 0.534,-0.844 0.611,-0.99l-0.379 0c-0.006,0.021 -0.021,0.043 -0.033,0.061l-0.578 0.929z"/>
   <path class="fil0" d="M3.34 3.525c0,0.026 0.075,0.142 0.085,0.186l0.201 0c0.01,-0.044 0.085,-0.16 0.085,-0.186 0,-0.025 -0.075,-0.142 -0.085,-0.185l-0.201 0c-0.01,0.043 -0.085,0.16 -0.085,0.185z"/>
   <path class="fil0" d="M0 3.525c0,0.026 0.075,0.142 0.085,0.186l0.201 0c0.01,-0.044 0.085,-0.16 0.085,-0.186 0,-0.025 -0.075,-0.142 -0.085,-0.185l-0.201 0c-0.01,0.043 -0.085,0.16 -0.085,0.185z"/>
   <path class="fil0" d="M0 0.186c0,0.025 0.075,0.142 0.085,0.185l0.201 0c0.01,-0.043 0.085,-0.16 0.085,-0.185 0,-0.026 -0.075,-0.142 -0.085,-0.186l-0.201 0c-0.01,0.044 -0.085,0.16 -0.085,0.186z"/>
   <path class="fil0" d="M3.34 0.186c0,0.025 0.075,0.142 0.085,0.185l0.201 0c0.01,-0.043 0.085,-0.16 0.085,-0.185 0,-0.026 -0.075,-0.142 -0.085,-0.186l-0.201 0c-0.01,0.044 -0.085,0.16 -0.085,0.186z"/>
   <polygon class="fil0" points="2.165,0.247 2.412,0.247 2.412,0.124 2.165,0.124 "/>
   <polygon class="fil0" points="2.536,0.247 2.783,0.247 2.783,0.124 2.536,0.124 "/>
   <polygon class="fil0" points="2.907,0.247 3.154,0.247 3.154,0.124 2.907,0.124 "/>
   <polygon class="fil0" points="0.124,0.804 0.247,0.804 0.247,0.557 0.124,0.557 "/>
   <polygon class="fil0" points="3.463,0.804 3.587,0.804 3.587,0.557 3.463,0.557 "/>
   <polygon class="fil0" points="0.124,1.175 0.247,1.175 0.247,0.928 0.124,0.928 "/>
   <polygon class="fil0" points="3.463,1.175 3.587,1.175 3.587,0.928 3.463,0.928 "/>
   <polygon class="fil0" points="0.124,1.546 0.247,1.546 0.247,1.299 0.124,1.299 "/>
   <polygon class="fil0" points="3.463,1.546 3.587,1.546 3.587,1.299 3.463,1.299 "/>
   <polygon class="fil0" points="0.124,1.979 0.247,1.979 0.247,1.732 0.124,1.732 "/>
   <polygon class="fil0" points="0.557,0.247 0.804,0.247 0.804,0.124 0.557,0.124 "/>
   <polygon class="fil0" points="0.124,2.412 0.247,2.412 0.247,2.165 0.124,2.165 "/>
   <polygon class="fil0" points="3.463,2.412 3.587,2.412 3.587,2.165 3.463,2.165 "/>
   <polygon class="fil0" points="0.124,2.783 0.247,2.783 0.247,2.536 0.124,2.536 "/>
   <polygon class="fil0" points="3.463,2.783 3.587,2.783 3.587,2.536 3.463,2.536 "/>
   <polygon class="fil0" points="0.928,0.247 1.175,0.247 1.175,0.124 0.928,0.124 "/>
   <polygon class="fil0" points="1.299,0.247 1.546,0.247 1.546,0.124 1.299,0.124 "/>
   <polygon class="fil0" points="0.124,3.154 0.247,3.154 0.247,2.907 0.124,2.907 "/>
   <polygon class="fil0" points="3.463,3.154 3.587,3.154 3.587,2.907 3.463,2.907 "/>
   <polygon class="fil0" points="0.557,3.587 0.804,3.587 0.804,3.463 0.557,3.463 "/>
   <polygon class="fil0" points="0.928,3.587 1.175,3.587 1.175,3.463 0.928,3.463 "/>
   <polygon class="fil0" points="1.299,3.587 1.546,3.587 1.546,3.463 1.299,3.463 "/>
   <polygon class="fil0" points="1.732,3.587 1.979,3.587 1.979,3.463 1.732,3.463 "/>
   <polygon class="fil0" points="2.165,3.587 2.412,3.587 2.412,3.463 2.165,3.463 "/>
   <polygon class="fil0" points="2.536,3.587 2.783,3.587 2.783,3.463 2.536,3.463 "/>
   <polygon class="fil0" points="2.907,3.587 3.154,3.587 3.154,3.463 2.907,3.463 "/>
   <polygon class="fil0" points="1.732,0.247 1.979,0.247 1.979,0.124 1.732,0.124 "/>
   <polygon class="fil0" points="3.463,1.979 3.587,1.979 3.587,1.732 3.463,1.732 "/>
  </g>
 </g>
</svg>
