<?xml version="1.0" encoding="UTF-8"?>
<!DOCTYPE svg PUBLIC "-//W3C//DTD SVG 1.1//EN" "http://www.w3.org/Graphics/SVG/1.1/DTD/svg11.dtd">
<!-- Creator: CorelDRAW 2021 (64-Bit) -->
<svg xmlns="http://www.w3.org/2000/svg" xml:space="preserve" width="62px" height="54px" version="1.1" style="shape-rendering:geometricPrecision; text-rendering:geometricPrecision; image-rendering:optimizeQuality; fill-rule:evenodd; clip-rule:evenodd"
viewBox="0 0 7.055 6.175"
 xmlns:xlink="http://www.w3.org/1999/xlink"
 xmlns:xodm="http://www.corel.com/coreldraw/odm/2003">
 <defs>
  <style type="text/css">
   <![CDATA[
    .fil0 {fill:white}
   ]]>
  </style>
 </defs>
 <g id="Layer_x0020_1">
  <metadata id="CorelCorpID_0Corel-Layer"/>
  <g id="_2874819492144">
   <path class="fil0" d="M3.045 4.646c0.012,-0.01 0.015,-0.013 0.031,-0.025l0.123 -0.083c0.101,-0.075 0.347,-0.276 0.421,-0.365l0.236 -0.288c0.14,-0.206 0.282,-0.441 0.366,-0.681 0.047,-0.135 0.088,-0.261 0.117,-0.406 0.089,-0.432 0.07,-1.02 0.07,-1.501 0,-0.375 0.302,-0.762 0.714,-0.857 0.14,-0.033 0.314,-0.02 0.449,0.025 0.144,0.048 0.231,0.104 0.33,0.194l0.125 0.137c0.131,0.188 0.174,0.366 0.174,0.626l0 1.033c0,0.564 -0.092,0.922 -0.353,1.315 -0.027,0.04 -0.04,0.059 -0.068,0.097 -0.03,0.039 -0.048,0.054 -0.075,0.09 -0.181,0.234 -0.505,0.441 -0.784,0.553 -0.439,0.177 -0.727,0.136 -1.201,0.136 -0.225,0 -0.45,0 -0.675,0zm-2.315 0l3.249 -3.255c0.007,0.552 0.041,1.002 -0.104,1.522 -0.076,0.273 -0.308,0.711 -0.509,0.91l-0.097 0.11c-0.099,0.098 -0.344,0.288 -0.457,0.355 -0.187,0.112 -0.33,0.176 -0.561,0.253 -0.433,0.145 -1.027,0.105 -1.521,0.105zm-0.73 0.207c0,0.22 0.183,0.22 0.331,0.22 0.24,-0.001 2.396,-0.013 2.446,0.007l0.409 0.403c0.07,0.07 0.226,0.21 0.273,0.279 -0.082,0 -0.186,-0.012 -0.245,0.017 -0.182,0.088 -0.146,0.396 0.093,0.396l1.35 0c0.152,0 0.29,-0.253 0.085,-0.388 -0.111,-0.073 -0.493,0.004 -0.662,-0.026 -0.048,-0.009 -0.064,-0.04 -0.094,-0.071 -0.128,-0.13 -0.563,-0.546 -0.61,-0.617 0.463,0 0.946,0.023 1.333,-0.058 0.569,-0.121 1.154,-0.506 1.464,-0.975 0.049,-0.074 0.098,-0.139 0.138,-0.221l0.114 -0.23c0.106,-0.244 0.189,-0.584 0.189,-0.872 0,-0.349 0.028,-1.406 -0.028,-1.68 -0.058,-0.281 -0.147,-0.123 0.217,-0.487 0.148,-0.148 0.252,-0.194 0.252,-0.369 0,-0.099 -0.1,-0.179 -0.207,-0.179 -0.187,0 -0.365,0.33 -0.551,0.455 -0.022,-0.016 -0.042,-0.054 -0.126,-0.122 -0.164,-0.132 -0.28,-0.216 -0.503,-0.283 -0.379,-0.113 -0.813,-0.039 -1.125,0.194 -0.236,0.177 -1.807,1.781 -2.066,2.04 -0.08,0.08 -2.364,2.348 -2.434,2.444 -0.029,0.038 -0.043,0.056 -0.043,0.123z"/>
   <path class="fil0" d="M5.305 1.105c0,0.279 0.427,0.286 0.427,0.013 0,-0.183 -0.21,-0.294 -0.355,-0.162 -0.026,0.025 -0.072,0.107 -0.072,0.149z"/>
  </g>
 </g>
</svg>
