<?xml version="1.0" encoding="UTF-8"?>
<!DOCTYPE svg PUBLIC "-//W3C//DTD SVG 1.1//EN" "http://www.w3.org/Graphics/SVG/1.1/DTD/svg11.dtd">
<!-- Creator: CorelDRAW 2021 (64-Bit) -->
<svg xmlns="http://www.w3.org/2000/svg" xml:space="preserve" width="51px" height="51px" version="1.1" style="shape-rendering:geometricPrecision; text-rendering:geometricPrecision; image-rendering:optimizeQuality; fill-rule:evenodd; clip-rule:evenodd"
viewBox="0 0 38.38 38.558"
 xmlns:xlink="http://www.w3.org/1999/xlink"
 xmlns:xodm="http://www.corel.com/coreldraw/odm/2003">
 <defs>
  <style type="text/css">
   <![CDATA[
    .fil0 {fill:white}
   ]]>
  </style>
 </defs>
 <g id="Layer_x0020_1">
  <metadata id="CorelCorpID_0Corel-Layer"/>
  <g id="_2874812043568">
   <path class="fil0" d="M2.258 2.285l2.257 0 0 5.795c0,0.612 0.549,0.978 1.28,0.978 0.541,0 2.922,-1.957 3.236,-1.957 0.486,0 2.34,1.957 3.537,1.957 0.461,0 0.978,-0.517 0.978,-0.978l0 -5.795 4.515 0 0 34.015 -15.803 0 0 -34.015zm18.964 34.015l-0.903 0 0 -34.015 0.903 0c2.143,0 3.612,1.469 3.612,3.612l0 26.791c0,2.143 -1.469,3.612 -3.612,3.612zm-14.449 -30.553l0 -3.462 4.515 0 0 3.462c-0.832,-0.222 -1.257,-1.204 -2.408,-1.204 -0.519,0 -1.598,1.068 -2.107,1.204zm-6.773 -4.741l0 36.574c0,0.461 0.517,0.978 0.978,0.978l20.846 0c1.405,0 2.91,-0.911 3.633,-1.635 0.719,-0.719 1.635,-2.239 1.635,-3.633l0 -27.995c0,-1.727 -1.188,-3.415 -2.377,-4.246 -0.826,-0.577 -1.912,-1.022 -3.041,-1.022l-20.545 0c-0.582,0 -1.129,0.437 -1.129,0.979z"/>
   <path class="fil0" d="M31.833 31.785l4.064 0 -1.491 2.498c-0.138,0.227 -0.364,0.683 -0.541,0.813 -0.204,-0.149 -1.911,-3.082 -2.032,-3.311zm-0.226 -22.727l4.515 0 0 20.469 -4.515 0 0 -20.469zm0 -5.418c0,-1.67 1.507,-1.355 3.161,-1.355 0.887,0 1.354,0.468 1.354,1.355l0 3.16 -4.515 0 0 -3.16zm-2.258 -0.377l0 28.672c0,0.336 3.025,5.335 3.505,6.054 0.367,0.551 0.646,0.569 1.161,0.569 0.673,0 1.057,-0.9 1.341,-1.369l2.06 -3.433c0.192,-0.319 0.964,-1.49 0.964,-1.821l0 -28.747c0,-0.423 -0.178,-0.943 -0.324,-1.256 -0.215,-0.459 -0.381,-0.614 -0.71,-0.946 -1.233,-1.24 -2.649,-0.959 -4.685,-0.959 -1.754,0 -3.312,1.491 -3.312,3.236z"/>
  </g>
 </g>
</svg>
