<?xml version="1.0" encoding="UTF-8"?>
<!DOCTYPE svg PUBLIC "-//W3C//DTD SVG 1.1//EN" "http://www.w3.org/Graphics/SVG/1.1/DTD/svg11.dtd">
<!-- Creator: CorelDRAW 2021 (64-Bit) -->
<svg xmlns="http://www.w3.org/2000/svg" xml:space="preserve" width="17px" height="23px" version="1.1" style="shape-rendering:geometricPrecision; text-rendering:geometricPrecision; image-rendering:optimizeQuality; fill-rule:evenodd; clip-rule:evenodd"
viewBox="0 0 0.265 0.354"
 xmlns:xlink="http://www.w3.org/1999/xlink"
 xmlns:xodm="http://www.corel.com/coreldraw/odm/2003">
 <defs>
  <style type="text/css">
   <![CDATA[
    .fil0 {fill:white;fill-rule:nonzero}
   ]]>
  </style>
 </defs>
 <g id="Layer_x0020_1">
  <metadata id="CorelCorpID_0Corel-Layer"/>
  <g id="_2874586216928">
   <polygon class="fil0" points="0,0.279 0.075,0.354 0.075,0.279 "/>
   <polygon class="fil0" points="0.096,0.139 0.071,0.171 0.122,0.171 "/>
   <polygon class="fil0" points="0.168,0.115 0.136,0.156 0.149,0.171 0.205,0.171 0.205,0.162 "/>
   <path class="fil0" d="M0 0l0 0.258 0.096 0 0 0.096 0.169 0 0 -0.354 -0.265 0zm0.226 0.192l0 0 -0.187 0 0 -0.151 0.187 0 0 0.151z"/>
   <polygon class="fil0" points="0.06,0.062 0.06,0.152 0.096,0.105 0.123,0.139 0.168,0.082 0.205,0.129 0.205,0.062 "/>
  </g>
 </g>
</svg>
