<?xml version="1.0" encoding="UTF-8"?>
<!DOCTYPE svg PUBLIC "-//W3C//DTD SVG 1.1//EN" "http://www.w3.org/Graphics/SVG/1.1/DTD/svg11.dtd">
<!-- Creator: CorelDRAW 2021 (64-Bit) -->
<svg xmlns="http://www.w3.org/2000/svg" xml:space="preserve" width="35px" height="48px" version="1.1" style="shape-rendering:geometricPrecision; text-rendering:geometricPrecision; image-rendering:optimizeQuality; fill-rule:evenodd; clip-rule:evenodd"
viewBox="0 0 4.673 6.388"
 xmlns:xlink="http://www.w3.org/1999/xlink"
 xmlns:xodm="http://www.corel.com/coreldraw/odm/2003">
 <defs>
  <style type="text/css">
   <![CDATA[
    .fil0 {fill:white}
   ]]>
  </style>
 </defs>
 <g id="Layer_x0020_1">
  <metadata id="CorelCorpID_0Corel-Layer"/>
  <g id="_2874579529600">
   <path class="fil0" d="M3.025 2.512c0.158,0.037 0.385,0.253 0.477,0.38 0.686,0.95 -0.279,2.24 -1.393,1.813 -0.227,-0.087 -0.117,-0.06 -0.422,-0.06 -0.327,0 -0.654,0 -0.981,0 0.009,0.112 0.22,0.331 0.292,0.408l0.052 0.057c0.002,0.002 0.006,0.005 0.008,0.007 0.356,0.329 0.836,0.602 1.376,0.602 0.35,0 0.597,-0.015 0.918,-0.156 1.274,-0.562 1.671,-2.042 0.994,-3.095 -0.155,-0.24 -0.407,-0.527 -0.651,-0.657 -0.08,0.119 -0.644,0.607 -0.67,0.701z"/>
   <path class="fil0" d="M0.986 2.465c0,0.109 0.103,0.173 0.175,0.245l0.405 0.405c0.289,0.289 0.229,0.247 0.778,-0.303l1.394 -1.394c0.199,-0.196 0.076,-0.227 -0.288,-0.591 -0.487,-0.486 -0.394,-0.486 -0.716,-0.164l-1.643 1.643c-0.043,0.043 -0.105,0.082 -0.105,0.159z"/>
   <path class="fil0" d="M0.006 3.897c0,0.207 -0.049,0.499 0.14,0.499l2.132 0c0.184,0 0.14,-0.29 0.14,-0.483 0,-0.098 -0.041,-0.187 -0.14,-0.187l-2.132 0c-0.096,0 -0.14,0.074 -0.14,0.171z"/>
   <path class="fil0" d="M2.543 5.983c-0.482,0 -0.879,-0.171 -0.887,-0.171 -0.038,0 -0.051,0.026 -0.072,0.053 -0.067,0.086 -0.276,0.295 -0.278,0.385 -0.001,0.065 0.044,0.138 0.132,0.138l2.397 0c0.049,0 0.245,-0.067 0.059,-0.277l-0.308 -0.377c-0.253,0.134 -0.656,0.249 -1.043,0.249z"/>
   <path class="fil0" d="M3.368 0.395c0.054,0.02 0.443,0.456 0.529,0.514 0.069,-0.046 0.137,-0.129 0.199,-0.191 0.242,-0.243 0.243,-0.219 -0.039,-0.498 -0.245,-0.242 -0.213,-0.324 -0.498,-0.039 -0.055,0.055 -0.171,0.14 -0.191,0.214z"/>
   <path class="fil0" d="M0.815 2.979c0,0.112 0.129,0.199 0.206,0.276 0.077,0.077 0.165,0.207 0.277,0.207 0.083,0 0.1,-0.057 0.155,-0.094l-0.541 -0.549c-0.04,0.059 -0.097,0.077 -0.097,0.16z"/>
  </g>
 </g>
</svg>
