<?xml version="1.0" encoding="UTF-8"?>
<!DOCTYPE svg PUBLIC "-//W3C//DTD SVG 1.1//EN" "http://www.w3.org/Graphics/SVG/1.1/DTD/svg11.dtd">
<!-- Creator: CorelDRAW 2021 (64-Bit) -->
<svg xmlns="http://www.w3.org/2000/svg" xml:space="preserve" width="47px" height="47px" version="1.1" style="shape-rendering:geometricPrecision; text-rendering:geometricPrecision; image-rendering:optimizeQuality; fill-rule:evenodd; clip-rule:evenodd"
viewBox="0 0 2.305 2.305"
 xmlns:xlink="http://www.w3.org/1999/xlink"
 xmlns:xodm="http://www.corel.com/coreldraw/odm/2003">
 <defs>
  <style type="text/css">
   <![CDATA[
    .fil0 {fill:#9999FF;fill-rule:nonzero}
   ]]>
  </style>
 </defs>
 <g id="Layer_x0020_1">
  <metadata id="CorelCorpID_0Corel-Layer"/>
  <g id="_2874580429344">
   <path class="fil0" d="M2.139 1.96l-0.295 0c-0.033,-0.114 -0.137,-0.193 -0.256,-0.193 -0.119,0 -0.223,0.079 -0.256,0.193l-1.255 0c-0.043,0 -0.077,0.034 -0.077,0.076 0,0.043 0.034,0.077 0.077,0.077l1.255 0c0.033,0.114 0.138,0.192 0.256,0.192 0.119,0 0.223,-0.078 0.256,-0.192l0.295 0c0.042,0 0.077,-0.034 0.077,-0.077 0,-0.042 -0.035,-0.076 -0.077,-0.076l0 0zm-0.551 0.192c-0.063,0 -0.115,-0.052 -0.115,-0.116 0,-0.063 0.052,-0.115 0.115,-0.115 0.064,0 0.115,0.052 0.115,0.115 0,0.064 -0.051,0.116 -0.115,0.116l0 0z"/>
   <path class="fil0" d="M2.064 0l-1.823 0c-0.133,0 -0.241,0.108 -0.241,0.241l0 1.208c0,0.134 0.108,0.242 0.241,0.242l1.823 0c0.133,0 0.241,-0.108 0.241,-0.242l0 -1.208c0,-0.133 -0.108,-0.241 -0.241,-0.241zm0.088 1.449c0,0.049 -0.04,0.088 -0.088,0.088l-1.823 0c-0.048,0 -0.087,-0.039 -0.087,-0.088l0 -1.208c0,-0.048 0.039,-0.087 0.087,-0.087l1.823 0c0.048,0 0.088,0.039 0.088,0.087l0 1.208z"/>
   <path class="fil0" d="M1.578 0.78l-0.615 -0.384c-0.012,-0.008 -0.026,-0.012 -0.041,-0.012 -0.042,0 -0.077,0.035 -0.077,0.077 0,0 0,0 0,0l0 0.769c0,0 0,0 0,0 0,0.042 0.035,0.076 0.077,0.076 0.015,0 0.029,-0.004 0.041,-0.011l0.615 -0.385c0.022,-0.014 0.036,-0.038 0.036,-0.065 0,-0.026 -0.014,-0.051 -0.036,-0.065l0 0zm-0.579 0.311l0 -0.492 0.393 0.246 -0.393 0.246z"/>
  </g>
 </g>
</svg>
