<?xml version="1.0" encoding="UTF-8"?>
<!DOCTYPE svg PUBLIC "-//W3C//DTD SVG 1.1//EN" "http://www.w3.org/Graphics/SVG/1.1/DTD/svg11.dtd">
<!-- Creator: CorelDRAW 2021 (64-Bit) -->
<svg xmlns="http://www.w3.org/2000/svg" xml:space="preserve" width="19px" height="26px" version="1.1" style="shape-rendering:geometricPrecision; text-rendering:geometricPrecision; image-rendering:optimizeQuality; fill-rule:evenodd; clip-rule:evenodd"
viewBox="0 0 0.319 0.435"
 xmlns:xlink="http://www.w3.org/1999/xlink"
 xmlns:xodm="http://www.corel.com/coreldraw/odm/2003">
 <defs>
  <style type="text/css">
   <![CDATA[
    .fil0 {fill:white}
   ]]>
  </style>
 </defs>
 <g id="Layer_x0020_1">
  <metadata id="CorelCorpID_0Corel-Layer"/>
  <g id="_2874574704272">
   <path class="fil0" d="M0.206 0.171c0.011,0.003 0.026,0.017 0.033,0.026 0.046,0.065 -0.019,0.153 -0.095,0.124 -0.016,-0.006 -0.008,-0.004 -0.029,-0.004 -0.022,0 -0.045,0 -0.067,0 0.001,0.007 0.015,0.022 0.02,0.027l0.004 0.004c0,0 0,0.001 0,0.001 0.024,0.022 0.057,0.041 0.094,0.041 0.024,0 0.041,-0.001 0.063,-0.011 0.086,-0.038 0.113,-0.139 0.067,-0.211 -0.01,-0.016 -0.027,-0.036 -0.044,-0.045 -0.006,0.009 -0.044,0.042 -0.046,0.048z"/>
   <path class="fil0" d="M0.067 0.168c0,0.007 0.007,0.012 0.012,0.017l0.028 0.027c0.019,0.02 0.015,0.017 0.053,-0.02l0.095 -0.095c0.013,-0.014 0.005,-0.016 -0.02,-0.041 -0.033,-0.033 -0.027,-0.033 -0.049,-0.011l-0.112 0.112c-0.003,0.003 -0.007,0.006 -0.007,0.011z"/>
   <path class="fil0" d="M0 0.266c0,0.014 -0.003,0.034 0.01,0.034l0.145 0c0.013,0 0.01,-0.02 0.01,-0.033 0,-0.007 -0.003,-0.013 -0.01,-0.013l-0.145 0c-0.007,0 -0.01,0.005 -0.01,0.012z"/>
   <path class="fil0" d="M0.173 0.408c-0.032,0 -0.06,-0.012 -0.06,-0.012 -0.003,0 -0.004,0.002 -0.005,0.004 -0.005,0.006 -0.019,0.02 -0.019,0.026 0,0.004 0.003,0.009 0.009,0.009l0.163 0c0.004,0 0.017,-0.004 0.004,-0.018l-0.021 -0.026c-0.017,0.009 -0.044,0.017 -0.071,0.017z"/>
   <path class="fil0" d="M0.23 0.027c0.003,0.001 0.03,0.031 0.036,0.035 0.004,-0.003 0.009,-0.009 0.013,-0.013 0.017,-0.017 0.017,-0.015 -0.002,-0.034 -0.017,-0.017 -0.015,-0.022 -0.034,-0.003 -0.004,0.004 -0.012,0.01 -0.013,0.015z"/>
   <path class="fil0" d="M0.056 0.203c0,0.008 0.008,0.014 0.014,0.019 0.005,0.005 0.011,0.014 0.018,0.014 0.006,0 0.007,-0.004 0.011,-0.006l-0.037 -0.038c-0.003,0.004 -0.006,0.005 -0.006,0.011z"/>
  </g>
 </g>
</svg>
