<?xml version="1.0" encoding="UTF-8"?>
<!DOCTYPE svg PUBLIC "-//W3C//DTD SVG 1.1//EN" "http://www.w3.org/Graphics/SVG/1.1/DTD/svg11.dtd">
<!-- Creator: CorelDRAW 2021 (64-Bit) -->
<svg xmlns="http://www.w3.org/2000/svg" xml:space="preserve" width="50px" height="50px" version="1.1" style="shape-rendering:geometricPrecision; text-rendering:geometricPrecision; image-rendering:optimizeQuality; fill-rule:evenodd; clip-rule:evenodd"
viewBox="0 0 9.648 9.648"
 xmlns:xlink="http://www.w3.org/1999/xlink"
 xmlns:xodm="http://www.corel.com/coreldraw/odm/2003">
 <defs>
  <style type="text/css">
   <![CDATA[
    .fil0 {fill:white}
   ]]>
  </style>
 </defs>
 <g id="Layer_x0020_1">
  <metadata id="CorelCorpID_0Corel-Layer"/>
  <path class="fil0" d="M2.939 1.828l0 0.113c0,0.138 0.183,0.32 0.321,0.32 0.226,0 0.227,-0.01 0.419,-0.202 0.155,-0.155 0.674,-0.696 0.768,-0.759l-0.001 3.334c-0.014,0.076 -0.256,0.287 -0.324,0.355 -0.242,0.242 -3.274,3.295 -3.368,3.358 0,-0.193 0.032,-1.369 -0.03,-1.496 -0.194,-0.397 -0.724,-0.194 -0.724,0.102l0 2.374c0,0.138 0.182,0.321 0.32,0.321l2.375 0c0.138,0 0.32,-0.183 0.32,-0.321 0,-0.159 -0.009,-0.301 -0.219,-0.403 -0.126,-0.062 -1.302,-0.03 -1.496,-0.03l3.519 -3.528 3.533 3.523c-0.2,0.003 -1.377,-0.026 -1.501,0.035 -0.397,0.194 -0.194,0.724 0.102,0.724l2.374 0c0.138,0 0.321,-0.183 0.321,-0.321l0 -2.374c0,-0.138 -0.183,-0.32 -0.321,-0.32 -0.476,0 -0.433,0.315 -0.433,0.697 0,0.339 0,0.678 0,1.017 -0.08,-0.053 -3.68,-3.672 -3.684,-3.683 -0.026,-0.067 -0.009,-3.131 -0.009,-3.364 0.261,0.175 0.854,0.961 1.074,0.961l0.113 0c0.138,0 0.32,-0.182 0.32,-0.32 0,-0.311 -0.133,-0.35 -0.41,-0.627l-1.149 -1.149c-0.1,-0.1 -0.189,-0.15 -0.271,-0.165l-0.104 0c-0.181,0.032 -0.336,0.226 -0.511,0.4l-0.914 0.914c-0.102,0.103 -0.41,0.352 -0.41,0.514z"/>
 </g>
</svg>
