<?xml version="1.0" encoding="UTF-8"?>
<!DOCTYPE svg PUBLIC "-//W3C//DTD SVG 1.1//EN" "http://www.w3.org/Graphics/SVG/1.1/DTD/svg11.dtd">
<!-- Creator: CorelDRAW 2021 (64-Bit) -->
<svg xmlns="http://www.w3.org/2000/svg" xml:space="preserve" width="49px" height="49px" version="1.1" style="shape-rendering:geometricPrecision; text-rendering:geometricPrecision; image-rendering:optimizeQuality; fill-rule:evenodd; clip-rule:evenodd"
viewBox="0 0 6.01 6.008"
 xmlns:xlink="http://www.w3.org/1999/xlink"
 xmlns:xodm="http://www.corel.com/coreldraw/odm/2003">
 <defs>
  <style type="text/css">
   <![CDATA[
    .fil0 {fill:#9999FF}
   ]]>
  </style>
 </defs>
 <g id="Layer_x0020_1">
  <metadata id="CorelCorpID_0Corel-Layer"/>
  <path class="fil0" d="M4.589 4.94c0,-0.605 -0.751,-0.945 -1.2,-0.496 -0.208,0.208 -0.258,0.498 -0.145,0.785 0.14,0.352 0.625,0.577 1.038,0.296 0.025,-0.017 0.08,-0.059 0.098,-0.078l0.083 -0.103c0.075,-0.11 0.126,-0.269 0.126,-0.404zm-0.806 1.068l0.184 0c0.216,-0.02 0.426,-0.112 0.609,-0.259 0.027,-0.022 0.037,-0.027 0.064,-0.054 0.024,-0.025 0.036,-0.045 0.058,-0.071 0.187,-0.228 0.244,-0.439 0.244,-0.742 0,-0.142 -0.054,-0.304 -0.102,-0.404 -0.251,-0.526 -0.902,-0.744 -1.417,-0.493 -0.208,0.102 -0.399,0.292 -0.497,0.501 -0.088,0.191 -0.097,0.306 -0.097,0.513 0,0.398 0.268,0.738 0.606,0.908 0.114,0.057 0.231,0.09 0.348,0.101zm2.203 -4.128l-0.364 0c0.005,-0.063 0.042,-0.207 0.036,-0.308 -0.034,-0.585 -0.377,-1.014 -0.935,-1.178 -0.195,-0.058 -0.414,-0.052 -0.61,-0.003 -0.082,0.021 -0.186,0.061 -0.255,0.096 -0.416,0.213 -0.65,0.615 -0.677,1.085 -0.006,0.1 0.034,0.267 0.035,0.32 -0.065,-0.028 -0.271,-0.012 -0.364,-0.012 -0.056,-0.274 -0.026,-0.506 0.05,-0.776 0.108,-0.389 0.438,-0.758 0.799,-0.937 0.613,-0.304 1.349,-0.178 1.807,0.263l0.202 0.233c0.171,0.226 0.28,0.533 0.3,0.84l0 0.201c-0.004,0.06 -0.012,0.119 -0.024,0.176zm-5.951 0.979l0.364 0c-0.013,0.182 -0.082,0.204 -0.02,0.541 0.027,0.149 0.114,0.32 0.199,0.423 0.048,0.058 0.09,0.11 0.148,0.157 0.661,0.534 1.558,0.168 1.722,-0.57 0.014,-0.063 0.035,-0.204 0.027,-0.276l-0.045 -0.275 0.364 0c0.067,0.169 0.033,0.532 -0.014,0.706 -0.047,0.172 -0.162,0.392 -0.277,0.521 -0.44,0.495 -1.116,0.656 -1.72,0.353 -0.303,-0.151 -0.454,-0.322 -0.612,-0.585 -0.09,-0.152 -0.153,-0.37 -0.171,-0.575l0 -0.224c0.001,-0.008 0.002,-0.017 0.003,-0.025 0.004,-0.032 0.021,-0.143 0.032,-0.171zm2.817 -0.979c0.093,0 0.299,-0.016 0.364,0.012 0.045,0.078 0.065,0.353 0.414,0.65 0.087,0.074 0.223,0.157 0.342,0.199 0.129,0.046 0.313,0.091 0.453,0.087 0.063,-0.002 0.17,-0.016 0.232,-0.027 0.201,-0.038 0.391,-0.137 0.55,-0.26 0.203,-0.158 0.347,-0.409 0.415,-0.661l0.364 0c-0.022,0.236 -0.194,0.548 -0.338,0.726 -0.417,0.517 -1.18,0.72 -1.827,0.461 -0.188,-0.075 -0.402,-0.218 -0.538,-0.354 -0.192,-0.193 -0.405,-0.564 -0.431,-0.833zm-0.058 0.979l-0.364 0c-0.002,-0.002 -0.004,-0.008 -0.005,-0.007 0,0.002 -0.003,-0.005 -0.004,-0.006 -0.001,-0.002 -0.006,-0.012 -0.007,-0.015 -0.007,-0.016 -0.01,-0.026 -0.016,-0.042 -0.04,-0.097 -0.052,-0.121 -0.116,-0.213 -0.119,-0.172 -0.293,-0.306 -0.488,-0.381 -0.508,-0.194 -1.084,0.033 -1.324,0.515l-0.071 0.149 -0.364 0c0.006,-0.061 0.051,-0.174 0.075,-0.227 0.158,-0.354 0.419,-0.617 0.777,-0.76 0.48,-0.193 1.044,-0.111 1.434,0.219 0.052,0.045 0.103,0.103 0.153,0.152 0.123,0.122 0.303,0.446 0.32,0.616zm-0.846 0.297c0,0.114 -0.057,0.2 -0.152,0.2l-0.751 0c-0.203,0 -0.203,-0.352 0,-0.352l0.751 0c0.072,0 0.152,0.08 0.152,0.152zm2.994 -1.937c0,0.114 -0.058,0.2 -0.153,0.2l-0.751 0c-0.203,0 -0.203,-0.352 0,-0.352l0.751 0c0.072,0 0.153,0.08 0.153,0.152zm0 0.705c0,0.114 -0.058,0.199 -0.153,0.199l-0.751 0c-0.203,0 -0.203,-0.352 0,-0.352l0.751 0c0.072,0 0.153,0.081 0.153,0.153z"/>
 </g>
</svg>
