<?xml version="1.0" encoding="UTF-8"?>
<!DOCTYPE svg PUBLIC "-//W3C//DTD SVG 1.1//EN" "http://www.w3.org/Graphics/SVG/1.1/DTD/svg11.dtd">
<!-- Creator: CorelDRAW 2021 (64-Bit) -->
<svg xmlns="http://www.w3.org/2000/svg" xml:space="preserve" width="55px" height="55px" version="1.1" style="shape-rendering:geometricPrecision; text-rendering:geometricPrecision; image-rendering:optimizeQuality; fill-rule:evenodd; clip-rule:evenodd"
viewBox="0 0 12.014 12.024"
 xmlns:xlink="http://www.w3.org/1999/xlink"
 xmlns:xodm="http://www.corel.com/coreldraw/odm/2003">
 <defs>
  <style type="text/css">
   <![CDATA[
    .fil0 {fill:white;fill-rule:nonzero}
   ]]>
  </style>
 </defs>
 <g id="Layer_x0020_1">
  <metadata id="CorelCorpID_0Corel-Layer"/>
  <g id="_2874821450368">
   <path class="fil0" d="M11.834 10.993l-0.781 -0.781c0.24,-0.361 0.36,-0.781 0.36,-1.202 0,-1.321 -1.081,-2.402 -2.403,-2.402 -1.321,0 -2.402,1.081 -2.402,2.402 0,1.322 1.081,2.403 2.402,2.403 0.421,0 0.841,-0.12 1.202,-0.36l0.781 0.781c0.12,0.12 0.48,0.36 0.841,0 0.24,-0.241 0.24,-0.601 0,-0.841zm-2.824 -0.781c-0.66,0 -1.201,-0.541 -1.201,-1.202 0,-0.66 0.541,-1.201 1.201,-1.201 0.661,0 1.202,0.541 1.202,1.201 0,0.661 -0.541,1.202 -1.202,1.202z"/>
   <path class="fil0" d="M9.01 0l-8.409 0c-0.361,0 -0.601,0.24 -0.601,0.601l0 10.812c0,0.361 0.24,0.601 0.601,0.601l6.427 0c-0.961,-0.661 -1.622,-1.742 -1.622,-3.004 0,-1.982 1.622,-3.604 3.604,-3.604 0.181,0 0.421,0 0.601,0.06l0 -4.865c0,-0.361 -0.24,-0.601 -0.601,-0.601zm-4.204 4.806l-3.004 0c-0.36,0 -0.601,-0.301 -0.601,-0.601 0,-0.361 0.241,-0.601 0.601,-0.601l3.004 0c0.36,0 0.6,0.24 0.6,0.601 0,0.3 -0.24,0.601 -0.6,0.601zm3.003 -2.403l-6.007 0c-0.36,0 -0.601,-0.301 -0.601,-0.601 0,-0.36 0.241,-0.601 0.601,-0.601l6.007 0c0.36,0 0.601,0.241 0.601,0.601 0,0.3 -0.241,0.601 -0.601,0.601z"/>
  </g>
 </g>
</svg>
