<?xml version="1.0" encoding="UTF-8"?>
<!DOCTYPE svg PUBLIC "-//W3C//DTD SVG 1.1//EN" "http://www.w3.org/Graphics/SVG/1.1/DTD/svg11.dtd">
<!-- Creator: CorelDRAW 2021 (64-Bit) -->
<svg xmlns="http://www.w3.org/2000/svg" xml:space="preserve" width="44px" height="59px" version="1.1" style="shape-rendering:geometricPrecision; text-rendering:geometricPrecision; image-rendering:optimizeQuality; fill-rule:evenodd; clip-rule:evenodd"
viewBox="0 0 7.152 9.552"
 xmlns:xlink="http://www.w3.org/1999/xlink"
 xmlns:xodm="http://www.corel.com/coreldraw/odm/2003">
 <defs>
  <style type="text/css">
   <![CDATA[
    .fil0 {fill:white;fill-rule:nonzero}
   ]]>
  </style>
 </defs>
 <g id="Layer_x0020_1">
  <metadata id="CorelCorpID_0Corel-Layer"/>
  <g id="_2874814903472">
   <polygon class="fil0" points="0,7.531 2.021,9.552 2.021,7.531 "/>
   <polygon class="fil0" points="2.604,3.743 1.907,4.626 3.302,4.626 "/>
   <polygon class="fil0" points="4.548,3.115 3.685,4.207 4.015,4.626 5.543,4.626 5.543,4.375 "/>
   <path class="fil0" d="M0 0l0 6.971 2.581 0 0 2.581 4.571 0 0 -9.552 -7.152 0zm6.103 5.186l0 0 -5.054 0 0 -4.067 5.054 0 0 4.067z"/>
   <polygon class="fil0" points="1.609,1.679 1.609,4.1 2.604,2.84 3.328,3.756 4.548,2.212 5.543,3.472 5.543,1.679 "/>
  </g>
 </g>
</svg>
