<?xml version="1.0" encoding="UTF-8"?>
<!DOCTYPE svg PUBLIC "-//W3C//DTD SVG 1.1//EN" "http://www.w3.org/Graphics/SVG/1.1/DTD/svg11.dtd">
<!-- Creator: CorelDRAW 2021 (64-Bit) -->
<svg xmlns="http://www.w3.org/2000/svg" xml:space="preserve" width="78px" height="10px" version="1.1" style="shape-rendering:geometricPrecision; text-rendering:geometricPrecision; image-rendering:optimizeQuality; fill-rule:evenodd; clip-rule:evenodd"
viewBox="0 0 66.485 8.142"
 xmlns:xlink="http://www.w3.org/1999/xlink"
 xmlns:xodm="http://www.corel.com/coreldraw/odm/2003">
 <defs>
  <style type="text/css">
   <![CDATA[
    .fil1 {fill:#0096FF}
    .fil0 {fill:#003C46;fill-rule:nonzero}
   ]]>
  </style>
 </defs>
 <g id="Layer_x0020_1">
  <metadata id="CorelCorpID_0Corel-Layer"/>
  <g id="_2202578575632">
   <path class="fil0" d="M65.581 1.244l0.107 0 0 -0.287 0.063 0c0.08,0 0.116,0.027 0.197,0.179l0.062 0.108 0.135 0 -0.081 -0.135c-0.054,-0.089 -0.098,-0.152 -0.161,-0.17 0.116,-0.008 0.197,-0.089 0.197,-0.196 0,-0.072 -0.054,-0.179 -0.224,-0.179l-0.295 0 0 0.68zm0.107 -0.385l0 -0.197 0.179 0c0.072,0 0.125,0.045 0.125,0.099 0,0.071 -0.053,0.107 -0.143,0.107l-0.161 0 0 -0.009zm0.689 0.036c0,0.286 -0.232,0.528 -0.528,0.528 -0.295,0 -0.527,-0.233 -0.527,-0.528 0,-0.295 0.232,-0.528 0.527,-0.528 0.296,0 0.528,0.233 0.528,0.528zm0.108 0c0,-0.349 -0.287,-0.627 -0.636,-0.627 -0.349,0 -0.626,0.278 -0.626,0.627 0,0.349 0.277,0.635 0.626,0.635 0.349,-0.009 0.636,-0.286 0.636,-0.635z"/>
   <polygon class="fil0" points="13.34,8.034 13.34,2.496 14.637,2.496 14.637,8.034 "/>
   <polygon class="fil0" points="17.617,8.034 17.617,1.942 15.514,1.942 15.514,0.68 21.15,0.68 21.15,1.942 18.985,1.942 18.985,8.034 "/>
   <path class="fil0" d="M26.402 3.391c-0.143,-0.34 -0.358,-0.591 -0.644,-0.76 -0.277,-0.171 -0.626,-0.251 -1.047,-0.251 -0.295,0 -0.581,0.063 -0.859,0.188 -0.277,0.125 -0.518,0.295 -0.724,0.501 -0.063,0.062 -0.117,0.125 -0.17,0.197l0 -3.016 -1.28 0 0 7.775c0.09,0 0.188,0 0.296,0 0.116,0 0.232,0 0.358,0l0.644 0 0 -3.346c0,-0.17 0.035,-0.322 0.098,-0.465 0.072,-0.143 0.161,-0.259 0.277,-0.367 0.117,-0.116 0.26,-0.197 0.412,-0.25 0.161,-0.063 0.34,-0.099 0.528,-0.099 0.233,-0.009 0.429,0.036 0.59,0.126 0.161,0.08 0.278,0.223 0.358,0.411 0.081,0.179 0.117,0.412 0.117,0.698l0 3.292 1.297 0 0 -3.381c-0.027,-0.493 -0.098,-0.913 -0.251,-1.253z"/>
   <path class="fil0" d="M32.424 5.1c0.009,-0.394 -0.054,-0.752 -0.179,-1.083 -0.117,-0.34 -0.296,-0.626 -0.528,-0.859 -0.233,-0.241 -0.501,-0.438 -0.823,-0.581 -0.313,-0.143 -0.653,-0.206 -1.02,-0.206 -0.412,0 -0.797,0.072 -1.145,0.224 -0.34,0.143 -0.645,0.34 -0.895,0.608 -0.242,0.26 -0.438,0.564 -0.582,0.921 -0.143,0.358 -0.214,0.752 -0.214,1.19 0,0.546 0.125,1.038 0.366,1.459 0.251,0.42 0.6,0.751 1.038,1.002 0.448,0.241 0.967,0.367 1.548,0.367 0.26,0 0.519,-0.036 0.787,-0.108 0.269,-0.071 0.519,-0.161 0.761,-0.286 0.241,-0.125 0.465,-0.277 0.653,-0.456l-0.644 -0.895c-0.251,0.215 -0.483,0.367 -0.707,0.456 -0.215,0.081 -0.456,0.126 -0.716,0.126 -0.375,0 -0.697,-0.072 -0.975,-0.206 -0.277,-0.143 -0.483,-0.358 -0.644,-0.618 -0.098,-0.178 -0.161,-0.375 -0.197,-0.599l4.089 0 0.027 -0.456zm-3.418 -1.387c0.241,-0.134 0.528,-0.197 0.877,-0.197 0.223,0 0.429,0.045 0.608,0.143 0.188,0.09 0.34,0.224 0.465,0.385 0.117,0.161 0.188,0.349 0.206,0.564l0 0.053 -2.809 0c0.027,-0.143 0.071,-0.268 0.125,-0.375 0.116,-0.242 0.295,-0.439 0.528,-0.573z"/>
   <path class="fil0" d="M37.711 3.391c-0.143,-0.34 -0.358,-0.591 -0.644,-0.76 -0.277,-0.171 -0.626,-0.251 -1.047,-0.251 -0.295,0 -0.581,0.063 -0.859,0.188 -0.277,0.125 -0.518,0.295 -0.724,0.501 -0.063,0.062 -0.126,0.134 -0.179,0.206l-0.018 -0.779 -1.262 0 0 5.538c0.09,0 0.188,0 0.296,0 0.116,0 0.232,0 0.358,0l0.644 0 0 -3.346c0,-0.17 0.035,-0.322 0.098,-0.465 0.072,-0.143 0.161,-0.26 0.278,-0.367 0.116,-0.116 0.259,-0.197 0.411,-0.25 0.161,-0.063 0.34,-0.099 0.528,-0.099 0.232,-0.009 0.429,0.036 0.59,0.126 0.161,0.08 0.278,0.223 0.358,0.411 0.081,0.179 0.117,0.412 0.117,0.698l0 3.292 1.279 0 0 -3.381c0,-0.502 -0.072,-0.922 -0.224,-1.262z"/>
   <polygon class="fil0" points="42.462,8.034 42.462,2.496 43.75,2.496 43.75,8.034 "/>
   <path class="fil0" d="M47.186 8.142c-0.519,0 -0.984,-0.126 -1.396,-0.376 -0.411,-0.25 -0.742,-0.6 -0.975,-1.029 -0.241,-0.438 -0.358,-0.921 -0.358,-1.467 0,-0.546 0.117,-1.038 0.358,-1.467 0.242,-0.43 0.564,-0.779 0.975,-1.029 0.412,-0.251 0.877,-0.376 1.396,-0.376 0.501,0 0.948,0.098 1.36,0.286 0.403,0.188 0.725,0.456 0.948,0.787l-0.715 0.859c-0.108,-0.143 -0.242,-0.277 -0.403,-0.402 -0.161,-0.117 -0.331,-0.215 -0.519,-0.286 -0.179,-0.072 -0.367,-0.108 -0.546,-0.108 -0.304,0 -0.581,0.081 -0.832,0.233 -0.241,0.143 -0.429,0.357 -0.563,0.617 -0.144,0.26 -0.206,0.555 -0.206,0.886 0,0.331 0.071,0.626 0.206,0.885 0.143,0.26 0.34,0.466 0.59,0.618 0.242,0.152 0.519,0.232 0.823,0.232 0.179,0 0.358,-0.026 0.528,-0.08 0.179,-0.063 0.34,-0.152 0.492,-0.259 0.152,-0.117 0.295,-0.251 0.43,-0.421l0.715 0.877c-0.241,0.304 -0.563,0.564 -0.984,0.76 -0.42,0.161 -0.859,0.26 -1.324,0.26z"/>
   <path class="fil0" d="M54.111 2.496l0 0.788c-0.107,-0.162 -0.233,-0.314 -0.385,-0.439 -0.179,-0.143 -0.375,-0.259 -0.608,-0.34 -0.233,-0.08 -0.483,-0.125 -0.77,-0.125 -0.483,0 -0.921,0.125 -1.306,0.367 -0.385,0.241 -0.689,0.581 -0.912,1.02 -0.224,0.438 -0.34,0.93 -0.34,1.485 0,0.555 0.116,1.047 0.34,1.485 0.223,0.438 0.519,0.779 0.894,1.029 0.376,0.25 0.788,0.376 1.244,0.376 0.268,0 0.519,-0.045 0.742,-0.126 0.242,-0.08 0.457,-0.196 0.645,-0.322 0.179,-0.125 0.331,-0.277 0.456,-0.429l0 0.778 1.315 0 0 -5.538 -1.315 0 0 -0.009zm-0.698 4.277c-0.233,0.143 -0.501,0.223 -0.796,0.223 -0.304,0 -0.564,-0.071 -0.796,-0.223 -0.224,-0.143 -0.403,-0.349 -0.528,-0.609 -0.126,-0.268 -0.188,-0.572 -0.188,-0.912 0,-0.34 0.062,-0.635 0.188,-0.895 0.125,-0.259 0.304,-0.465 0.528,-0.608 0.232,-0.143 0.501,-0.224 0.796,-0.224 0.304,0 0.563,0.072 0.796,0.224 0.233,0.143 0.412,0.349 0.537,0.608 0.134,0.26 0.197,0.555 0.197,0.895 0,0.34 -0.063,0.644 -0.197,0.912 -0.125,0.26 -0.304,0.466 -0.537,0.609z"/>
   <path class="fil0" d="M65.599 5.1c0.009,-0.394 -0.054,-0.752 -0.179,-1.083 -0.116,-0.34 -0.295,-0.626 -0.528,-0.859 -0.233,-0.241 -0.501,-0.438 -0.823,-0.581 -0.313,-0.143 -0.653,-0.206 -1.02,-0.206 -0.412,0 -0.796,0.072 -1.145,0.224 -0.34,0.143 -0.644,0.34 -0.895,0.608 -0.242,0.26 -0.438,0.564 -0.581,0.921 -0.144,0.358 -0.206,0.752 -0.206,1.19 0,0.546 0.125,1.038 0.367,1.459 0.25,0.42 0.599,0.751 1.037,1.002 0.448,0.241 0.967,0.367 1.548,0.367 0.26,0 0.519,-0.036 0.787,-0.108 0.269,-0.071 0.52,-0.161 0.761,-0.286 0.242,-0.125 0.465,-0.277 0.653,-0.456l-0.644 -0.895c-0.25,0.215 -0.483,0.367 -0.707,0.456 -0.215,0.081 -0.456,0.126 -0.716,0.126 -0.375,0 -0.697,-0.072 -0.975,-0.206 -0.277,-0.143 -0.483,-0.358 -0.644,-0.618 -0.098,-0.178 -0.161,-0.375 -0.197,-0.599l4.089 0 0.018 -0.456zm-3.418 -1.387c0.242,-0.134 0.528,-0.197 0.877,-0.197 0.224,0 0.429,0.045 0.608,0.143 0.188,0.09 0.34,0.224 0.465,0.385 0.117,0.161 0.189,0.349 0.206,0.564l0 0.053 -2.809 0c0.027,-0.143 0.072,-0.268 0.125,-0.375 0.125,-0.242 0.295,-0.439 0.528,-0.573z"/>
   <path class="fil0" d="M40.548 1.145l-1.235 0 0 1.36 -1.11 0 0 1.217 1.101 0 0 2.854 0.009 -0.009c0.062,1.056 0.537,1.467 1.655,1.467 0.367,0 0.564,-0.018 0.573,-0.018l0.089 -0.009 0 -1.136 -0.107 0.009c0,0 -0.233,0.018 -0.34,0.018 -0.528,0 -0.635,-0.125 -0.635,-0.725l0 -2.451 1.234 0 0 -1.217 -1.234 0 0 -1.36z"/>
   <path class="fil0" d="M58.441 1.145l-1.234 0 0 1.36 -1.11 0 0 1.217 1.101 0 0 2.854 0.009 -0.009c0.062,1.056 0.536,1.467 1.655,1.467 0.367,0 0.564,-0.018 0.573,-0.018l0.089 -0.009 0 -1.136 -0.107 0.009c0,0 -0.233,0.018 -0.341,0.018 -0.527,0 -0.635,-0.125 -0.635,-0.725l0 -2.451 1.235 0 0 -1.217 -1.235 0 0 -1.36z"/>
   <path class="fil0" d="M14.745 0.752c0,0.411 -0.331,0.733 -0.734,0.733 -0.403,0 -0.734,-0.331 -0.734,-0.733 0,-0.412 0.331,-0.734 0.734,-0.734 0.403,0 0.734,0.331 0.734,0.734z"/>
   <path class="fil0" d="M43.885 0.752c0,0.411 -0.331,0.733 -0.734,0.733 -0.403,0 -0.734,-0.331 -0.734,-0.733 0,-0.412 0.331,-0.734 0.734,-0.734 0.403,0 0.734,0.331 0.734,0.734z"/>
   <path class="fil1" d="M11.005 1.423l-6.156 6.316c-0.384,0.394 -1.02,0.412 -1.431,0.045l-3.418 -3.131 1.387 -1.513 2.684 2.461 5.458 -5.601 1.476 1.423z"/>
  </g>
 </g>
</svg>
