<?xml version="1.0" encoding="UTF-8"?>
<!DOCTYPE svg PUBLIC "-//W3C//DTD SVG 1.1//EN" "http://www.w3.org/Graphics/SVG/1.1/DTD/svg11.dtd">
<!-- Creator: CorelDRAW 2021 (64-Bit) -->
<svg xmlns="http://www.w3.org/2000/svg" xml:space="preserve" width="89px" height="104px" version="1.1" style="shape-rendering:geometricPrecision; text-rendering:geometricPrecision; image-rendering:optimizeQuality; fill-rule:evenodd; clip-rule:evenodd"
viewBox="0 0 7.706 9.005"
 xmlns:xlink="http://www.w3.org/1999/xlink"
 xmlns:xodm="http://www.corel.com/coreldraw/odm/2003">
 <defs>
  <style type="text/css">
   <![CDATA[
    .fil0 {fill:white}
   ]]>
  </style>
 </defs>
 <g id="Layer_x0020_1">
  <metadata id="CorelCorpID_0Corel-Layer"/>
  <g id="_1620900957760">
   <path class="fil0" d="M3.799 0.897c0.364,0 0.79,0.065 1.114,0.222 0.202,0.098 0.214,0.094 0.42,0.232l0.432 0.377c0.103,0.117 0.112,0.11 0.225,0.267 0.515,0.712 0.597,1.565 0.338,2.398 -0.301,0.967 -1.353,1.763 -2.388,1.763 -0.472,0 -0.84,-0.059 -1.226,-0.252 -0.073,-0.036 -0.141,-0.066 -0.209,-0.107 -0.215,-0.13 -0.369,-0.259 -0.548,-0.437l-0.29 -0.361c-0.179,-0.27 -0.321,-0.585 -0.388,-0.914l-0.067 -0.585 0.075 -0.56c0.091,-0.365 0.194,-0.599 0.398,-0.903 0.445,-0.666 1.295,-1.14 2.114,-1.14zm0.005 -0.897l0.063 0c0.125,0.012 0.253,0.093 0.444,0.244 0.103,0.081 0.27,0.248 0.438,0.248 0.555,0 0.866,-0.409 1.133,0.257 0.072,0.179 0.128,0.408 0.256,0.518 0.265,0.228 0.897,0.15 0.897,0.633 0,0.084 -0.036,0.241 -0.051,0.318 -0.085,0.425 -0.109,0.429 0.205,0.847 0.457,0.61 0.277,0.578 -0.139,1.136 -0.347,0.464 0.334,1.02 -0.237,1.31 -0.089,0.045 -0.222,0.094 -0.323,0.117l0.39 0.665c0.029,0.048 0.047,0.084 0.077,0.134l0.693 1.189c0.224,0.377 -0.291,0.309 -0.421,0.316 -0.08,0.004 -0.097,0.018 -0.193,0.018 -0.328,0.001 -0.493,0.012 -0.674,0.171 -0.097,0.086 -0.343,0.498 -0.429,0.643 -0.073,0.124 -0.186,0.323 -0.343,0.192 -0.061,-0.051 -1.195,-2.029 -1.263,-2.132 -0.106,0.071 -0.262,0.229 -0.422,0.229 -0.316,0 -0.435,-0.211 -0.511,-0.211 -0.051,0 -0.043,0.021 -0.066,0.057l-1.083 1.871c-0.08,0.148 -0.147,0.218 -0.208,0.235l-0.059 0c-0.111,-0.031 -0.207,-0.234 -0.339,-0.443 -0.054,-0.086 -0.104,-0.159 -0.156,-0.249 -0.25,-0.425 -0.552,-0.31 -0.857,-0.356 -0.228,-0.034 -0.626,0.063 -0.626,-0.183 0,-0.093 0.824,-1.477 0.905,-1.61l0.232 -0.401c0.029,-0.051 0.054,-0.078 0.059,-0.135 -0.056,-0.027 -0.137,-0.047 -0.196,-0.068 -0.607,-0.218 -0.244,-0.648 -0.244,-1.075 0,-0.314 -0.51,-0.639 -0.51,-0.879 0,-0.524 0.586,-0.611 0.506,-1.174 -0.068,-0.469 -0.268,-0.752 0.31,-0.948 0.17,-0.058 0.406,-0.109 0.513,-0.226 0.275,-0.299 0.172,-0.871 0.659,-0.871 0.149,0 0.335,0.061 0.47,0.092 0.247,0.057 0.295,0.027 0.427,-0.075 0.328,-0.254 0.507,-0.389 0.673,-0.404z"/>
   <path class="fil0" d="M5.294 3.219c0,0.214 -0.598,0.401 -0.598,0.897 0,0.319 0.198,0.728 0.011,0.767 -0.042,0.009 -0.091,-0.016 -0.128,-0.034 -0.081,-0.039 -0.143,-0.071 -0.223,-0.112 -0.444,-0.225 -0.46,-0.265 -0.956,-0.018 -0.202,0.101 -0.293,0.208 -0.445,0.135 -0.04,-0.165 0.005,-0.242 0.04,-0.452 0.022,-0.133 0.057,-0.249 0.026,-0.388 -0.091,-0.416 -0.571,-0.616 -0.587,-0.783 -0.024,-0.259 0.614,-0.027 0.974,-0.386 0.098,-0.098 0.118,-0.153 0.18,-0.277l0.148 -0.31c0.074,-0.126 0.164,-0.159 0.245,-0.013 0.157,0.28 0.252,0.676 0.603,0.769 0.112,0.03 0.279,0.047 0.394,0.063 0.118,0.016 0.316,0.015 0.316,0.142zm-3.676 0.246c0,0.69 0.241,1.223 0.626,1.607 0.049,0.049 0.086,0.082 0.134,0.13 0.055,0.054 0.088,0.069 0.15,0.115 0.113,0.084 0.194,0.133 0.327,0.2 0.629,0.314 1.332,0.317 1.964,0.023 0.034,-0.016 0.045,-0.025 0.078,-0.045 0.124,-0.075 0.195,-0.092 0.331,-0.214 0.52,-0.467 0.857,-0.972 0.857,-1.763 0,-0.545 -0.261,-1.171 -0.637,-1.544 -0.388,-0.385 -0.947,-0.672 -1.508,-0.672 -0.409,0 -0.702,0.036 -1.056,0.21 -0.445,0.22 -0.876,0.623 -1.065,1.081 -0.105,0.256 -0.201,0.52 -0.201,0.872z"/>
  </g>
 </g>
</svg>
