<?xml version="1.0" encoding="UTF-8"?>
<!DOCTYPE svg PUBLIC "-//W3C//DTD SVG 1.1//EN" "http://www.w3.org/Graphics/SVG/1.1/DTD/svg11.dtd">
<!-- Creator: CorelDRAW 2021 (64-Bit) -->
<svg xmlns="http://www.w3.org/2000/svg" xml:space="preserve" width="35px" height="33px" version="1.1" style="shape-rendering:geometricPrecision; text-rendering:geometricPrecision; image-rendering:optimizeQuality; fill-rule:evenodd; clip-rule:evenodd"
viewBox="0 0 2.232 2.143"
 xmlns:xlink="http://www.w3.org/1999/xlink"
 xmlns:xodm="http://www.corel.com/coreldraw/odm/2003">
 <defs>
  <style type="text/css">
   <![CDATA[
    .fil0 {fill:white}
   ]]>
  </style>
 </defs>
 <g id="Layer_x0020_1">
  <metadata id="CorelCorpID_0Corel-Layer"/>
  <g id="_2374559459312">
   <path class="fil0" d="M0 0.69c0,0.101 0.039,0.126 0.1,0.213 0.018,0.026 0.114,0.151 0.118,0.17 -0.009,0.014 -0.02,0.026 -0.03,0.04l-0.147 0.206c-0.038,0.058 -0.041,0.064 -0.041,0.134 0,0.045 0.03,0.093 0.053,0.116 0.031,0.031 0.067,0.046 0.121,0.054l0.225 0.036c0.019,0.003 0.062,0.006 0.07,0.018 0.013,0.023 0.037,0.307 0.07,0.366 0.01,0.017 0.023,0.037 0.038,0.049 0.127,0.106 0.225,0.023 0.322,-0.05l0.124 -0.089c0.051,-0.039 0.034,-0.045 0.131,0.028l0.17 0.122c0.119,0.088 0.278,0.016 0.298,-0.132 0.008,-0.063 0.044,-0.254 0.048,-0.3 0.029,0 0.264,-0.042 0.301,-0.048 0.029,-0.005 0.072,-0.018 0.094,-0.036 0.097,-0.079 0.096,-0.183 0.023,-0.282l-0.16 -0.224c-0.008,-0.016 -0.048,-0.127 -0.049,-0.143 -0.02,0.005 -0.031,0.025 -0.045,0.038l-0.294 0.295c-0.046,0.046 -0.21,0.219 -0.258,0.247 -0.083,0.051 -0.196,0.053 -0.279,0.004 -0.068,-0.039 -0.35,-0.334 -0.424,-0.408 -0.029,-0.029 -0.054,-0.054 -0.076,-0.09 -0.102,-0.168 0.015,-0.417 0.243,-0.417 0.14,0 0.215,0.1 0.308,0.193 0.022,0.021 0.069,0.064 0.084,0.086l0.533 -0.531c-0.01,-0.04 -0.029,-0.071 -0.037,-0.11 -0.015,-0.074 -0.01,-0.15 -0.083,-0.204 -0.073,-0.055 -0.156,-0.054 -0.23,-0.001 -0.028,0.02 -0.056,0.04 -0.083,0.06 -0.017,0.013 -0.151,0.114 -0.17,0.119 -0.027,-0.018 -0.055,-0.038 -0.081,-0.058 -0.029,-0.022 -0.055,-0.04 -0.084,-0.061 -0.087,-0.064 -0.121,-0.099 -0.214,-0.099 -0.089,0 -0.157,0.075 -0.172,0.172 -0.003,0.02 -0.042,0.287 -0.05,0.294 -0.009,0.008 0.001,0.002 -0.013,0.005l-0.281 0.046c-0.099,0.014 -0.173,0.084 -0.173,0.172z"/>
   <path class="fil0" d="M1.138 1.147c-0.013,-0.019 -0.243,-0.245 -0.28,-0.282 -0.033,-0.032 -0.06,-0.075 -0.117,-0.075 -0.055,0 -0.146,0.079 -0.049,0.175l0.366 0.367c0.097,0.097 0.152,0.011 0.238,-0.074l0.883 -0.883c0.039,-0.04 0.053,-0.047 0.053,-0.104 0,-0.066 -0.093,-0.117 -0.154,-0.062 -0.046,0.042 -0.09,0.091 -0.135,0.135 -0.045,0.045 -0.783,0.789 -0.805,0.803z"/>
  </g>
 </g>
</svg>
