<?xml version="1.0" encoding="UTF-8"?>
<!DOCTYPE svg PUBLIC "-//W3C//DTD SVG 1.1//EN" "http://www.w3.org/Graphics/SVG/1.1/DTD/svg11.dtd">
<!-- Creator: CorelDRAW 2021 (64-Bit) -->
<svg xmlns="http://www.w3.org/2000/svg" xml:space="preserve" width="36px" height="35px" version="1.1" style="shape-rendering:geometricPrecision; text-rendering:geometricPrecision; image-rendering:optimizeQuality; fill-rule:evenodd; clip-rule:evenodd"
viewBox="0 0 1.24 1.238"
 xmlns:xlink="http://www.w3.org/1999/xlink"
 xmlns:xodm="http://www.corel.com/coreldraw/odm/2003">
 <defs>
  <style type="text/css">
   <![CDATA[
    .fil0 {fill:white}
   ]]>
  </style>
 </defs>
 <g id="Layer_x0020_1">
  <metadata id="CorelCorpID_0Corel-Layer"/>
  <g id="_2374521471344">
   <path class="fil0" d="M0 0.497c0,0.088 0.011,0.161 0.047,0.232 0.014,0.028 0.026,0.053 0.044,0.076l0.04 0.051c0.017,0.021 0.041,0.042 0.063,0.059l0.054 0.037c0.065,0.039 0.158,0.072 0.236,0.072 0.09,0 0.16,-0.006 0.239,-0.045 0.11,-0.055 0.179,-0.121 0.238,-0.224 0.019,-0.032 0.056,-0.127 0.056,-0.175 -0.046,0.03 -0.07,0.103 -0.144,0.103 -0.042,0.08 -0.086,0.129 -0.166,0.177 -0.197,0.116 -0.471,0.025 -0.561,-0.201 -0.102,-0.255 0.082,-0.541 0.374,-0.541 0.149,0 0.285,0.091 0.348,0.214 0.005,0.01 0.008,0.017 0.012,0.028 0.004,0.007 0.009,0.022 0.011,0.029l0.089 -0.087c-0.037,-0.067 -0.029,-0.059 -0.074,-0.116 -0.028,-0.035 -0.062,-0.063 -0.098,-0.09 -0.018,-0.013 -0.039,-0.025 -0.058,-0.036 -0.057,-0.033 -0.155,-0.06 -0.223,-0.06 -0.055,0 -0.082,0.002 -0.133,0.015 -0.039,0.009 -0.059,0.018 -0.093,0.033 -0.046,0.02 -0.077,0.043 -0.115,0.072 -0.105,0.082 -0.186,0.24 -0.186,0.377z"/>
   <path class="fil0" d="M0.808 1.019l0.186 0.186c0.049,0.035 0.103,0.043 0.16,0.019 0.011,-0.005 0.035,-0.021 0.043,-0.03 0.003,-0.003 0.005,-0.006 0.007,-0.01 0.004,-0.004 0.005,-0.005 0.008,-0.009 0.006,-0.007 0.009,-0.015 0.014,-0.025 0.017,-0.035 0.018,-0.074 0.004,-0.111 -0.017,-0.048 -0.047,-0.068 -0.084,-0.105 -0.018,-0.019 -0.115,-0.118 -0.127,-0.126 -0.007,0.028 -0.057,0.081 -0.078,0.105l-0.027 0.026c-0.032,0.03 -0.034,0.032 -0.073,0.06 -0.007,0.005 -0.024,0.018 -0.033,0.02z"/>
   <path class="fil0" d="M0.866 0.52c-0.012,-0.008 -0.033,-0.032 -0.045,-0.044 -0.015,-0.015 -0.078,-0.082 -0.092,-0.088 -0.027,-0.011 -0.044,0.01 -0.058,0.024 -0.014,0.014 -0.17,0.173 -0.182,0.18 -0.007,-0.011 -0.06,-0.061 -0.077,-0.078 -0.039,-0.04 -0.052,-0.013 -0.08,0.011l-0.121 0.113 0.04 0.07 0.125 -0.124c0.021,0.007 0.084,0.096 0.111,0.096 0.031,0 0.041,-0.02 0.068,-0.047 0.022,-0.021 0.149,-0.151 0.16,-0.159 0.012,0.008 0.09,0.09 0.107,0.107 0.042,0.041 0.048,0.039 0.088,-0.002 0.008,-0.008 0.013,-0.01 0.021,-0.017 0.007,-0.007 0.012,-0.012 0.018,-0.019 0.027,-0.026 0.051,-0.051 0.077,-0.077l0.115 -0.113c0.012,-0.012 0.031,-0.024 0.031,-0.047 0,-0.024 -0.017,-0.037 -0.042,-0.037 -0.019,0 -0.057,0.044 -0.07,0.058l-0.128 0.128c-0.016,0.016 -0.051,0.054 -0.066,0.065z"/>
  </g>
 </g>
</svg>
