<?xml version="1.0" encoding="UTF-8"?>
<!DOCTYPE svg PUBLIC "-//W3C//DTD SVG 1.1//EN" "http://www.w3.org/Graphics/SVG/1.1/DTD/svg11.dtd">
<!-- Creator: CorelDRAW 2021 (64-Bit) -->
<svg xmlns="http://www.w3.org/2000/svg" xml:space="preserve" width="24px" height="37px" version="1.1" style="shape-rendering:geometricPrecision; text-rendering:geometricPrecision; image-rendering:optimizeQuality; fill-rule:evenodd; clip-rule:evenodd"
viewBox="0 0 2.523 3.789"
 xmlns:xlink="http://www.w3.org/1999/xlink"
 xmlns:xodm="http://www.corel.com/coreldraw/odm/2003">
 <defs>
  <style type="text/css">
   <![CDATA[
    .fil0 {fill:#6200EE}
   ]]>
  </style>
 </defs>
 <g id="Layer_x0020_1">
  <metadata id="CorelCorpID_0Corel-Layer"/>
  <path class="fil0" d="M0 2.133c0,0.041 0.01,0.078 0.063,0.078l1.002 0 -0.108 1.336c-0.008,0.061 -0.011,0.138 -0.011,0.202 0,0.012 0.069,0.086 0.13,-0.004l0.894 -1.283c0.032,-0.047 0.06,-0.087 0.093,-0.135l0.233 -0.335c0.037,-0.054 0.227,-0.296 0.227,-0.348 0,-0.038 -0.025,-0.063 -0.063,-0.063l-1.001 0c0,-0.074 0.028,-0.307 0.031,-0.403l0.081 -1.023c0.028,-0.204 -0.083,-0.169 -0.123,-0.108l-0.279 0.4c-0.145,0.194 -0.324,0.48 -0.469,0.674l-0.233 0.335c-0.031,0.047 -0.064,0.088 -0.095,0.134l-0.326 0.47c-0.011,0.016 -0.046,0.056 -0.046,0.073z"/>
 </g>
</svg>
