<?xml version="1.0" encoding="UTF-8"?>
<!DOCTYPE svg PUBLIC "-//W3C//DTD SVG 1.1//EN" "http://www.w3.org/Graphics/SVG/1.1/DTD/svg11.dtd">
<!-- Creator: CorelDRAW 2021 (64-Bit) -->
<svg xmlns="http://www.w3.org/2000/svg" xml:space="preserve" width="269px" height="47px" version="1.1" style="shape-rendering:geometricPrecision; text-rendering:geometricPrecision; image-rendering:optimizeQuality; fill-rule:evenodd; clip-rule:evenodd"
viewBox="0 0 302.275 52.79"
 xmlns:xlink="http://www.w3.org/1999/xlink"
 xmlns:xodm="http://www.corel.com/coreldraw/odm/2003">
 <defs>
  <style type="text/css">
   <![CDATA[
    .str1 {stroke:#FF0066;stroke-width:1.399;stroke-linecap:round;stroke-linejoin:round;stroke-miterlimit:2.61313}
    .str0 {stroke:#5600E8;stroke-width:0.874;stroke-linecap:round;stroke-linejoin:round;stroke-miterlimit:2.61313}
    .fil2 {fill:none}
    .fil1 {fill:#5600E8}
    .fil4 {fill:#FF0066}
    .fil3 {fill:white}
    .fil5 {fill:#333333;fill-rule:nonzero}
    .fil0 {fill:#5600E8;fill-rule:nonzero}
    .fil7 {fill:#666666;fill-rule:nonzero}
    .fil6 {fill:#FF0066;fill-rule:nonzero}
   ]]>
  </style>
 </defs>
 <g id="Layer_x0020_1">
  <metadata id="CorelCorpID_0Corel-Layer"/>
  <g id="_1683800374960">
   <g>
    <path class="fil0" d="M4.444 0l31.111 0c1.223,0 2.335,0.5 3.139,1.304 0.805,0.805 1.305,1.917 1.305,3.14l0 2.53c-0.845,-0.671 -1.786,-1.225 -2.799,-1.641l0 -0.889c0,-0.451 -0.186,-0.862 -0.484,-1.161 -0.299,-0.299 -0.71,-0.484 -1.161,-0.484l-31.111 0c-0.451,0 -0.862,0.185 -1.161,0.484 -0.299,0.299 -0.484,0.71 -0.484,1.161l0 43.779c0,0.451 0.185,0.862 0.484,1.161 0.299,0.298 0.71,0.484 1.161,0.484l31.111 0c0.451,0 0.862,-0.186 1.161,-0.484 0.298,-0.299 0.484,-0.71 0.484,-1.161l0 -15.468 2.799 4.466 0 11.002c0,1.223 -0.5,2.335 -1.305,3.139 -0.804,0.805 -1.916,1.305 -3.139,1.305l-31.111 0c-1.224,0 -2.335,-0.5 -3.14,-1.305 -0.804,-0.804 -1.304,-1.916 -1.304,-3.139l0 -43.779c0,-1.224 0.5,-2.335 1.304,-3.14 0.805,-0.804 1.916,-1.304 3.14,-1.304z"/>
    <path class="fil1" d="M7.576 31.195l19.522 0c0.743,0 1.352,0.609 1.352,1.353l0 0c0,0.744 -0.609,1.352 -1.352,1.352l-19.522 0c-0.744,0 -1.352,-0.608 -1.352,-1.352l0 0c0,-0.744 0.608,-1.353 1.352,-1.353z"/>
    <path class="fil1" d="M7.576 36.541l19.522 0c0.743,0 1.352,0.608 1.352,1.352l0 0c0,0.744 -0.609,1.352 -1.352,1.352l-19.522 0c-0.744,0 -1.352,-0.608 -1.352,-1.352l0 0c0,-0.744 0.608,-1.352 1.352,-1.352z"/>
    <path class="fil1" d="M7.576 41.886l13.635 0c0.744,0 1.352,0.608 1.352,1.352l0 0c0,0.744 -0.608,1.352 -1.352,1.352l-13.635 0c-0.744,0 -1.352,-0.608 -1.352,-1.352l0 0c0,-0.744 0.608,-1.352 1.352,-1.352z"/>
    <path class="fil1" d="M7.576 8.076l16.838 0c-0.761,0.802 -1.408,1.712 -1.916,2.705l-14.922 0c-0.744,0 -1.352,-0.608 -1.352,-1.352l0 0c0,-0.744 0.608,-1.353 1.352,-1.353z"/>
    <path class="fil1" d="M7.576 13.421l13.957 0c-0.195,0.843 -0.298,1.721 -0.298,2.622 0,0.028 0.001,0.056 0.001,0.083l-13.66 0c-0.744,0 -1.352,-0.608 -1.352,-1.352l0 0c0,-0.744 0.608,-1.353 1.352,-1.353z"/>
    <g>
     <g>
      <polyline class="fil2 str0" points="9.415,26.74 13.99,22.685 15.653,27.052 19.214,23.491 "/>
     </g>
     <g>
      <path class="fil2 str1" d="M13.99 21.549c0.627,0 1.136,0.509 1.136,1.136 0,0.627 -0.509,1.136 -1.136,1.136 -0.627,0 -1.136,-0.509 -1.136,-1.136 0,-0.627 0.509,-1.136 1.136,-1.136z"/>
      <path id="_1" class="fil3" d="M13.99 21.549c0.627,0 1.136,0.509 1.136,1.136 0,0.627 -0.509,1.136 -1.136,1.136 -0.627,0 -1.136,-0.509 -1.136,-1.136 0,-0.627 0.509,-1.136 1.136,-1.136z"/>
     </g>
     <g>
      <path class="fil2 str1" d="M9.415 25.604c0.628,0 1.136,0.509 1.136,1.136 0,0.627 -0.508,1.136 -1.136,1.136 -0.627,0 -1.136,-0.509 -1.136,-1.136 0,-0.627 0.509,-1.136 1.136,-1.136z"/>
      <path id="_1_0" class="fil3" d="M9.415 25.604c0.628,0 1.136,0.509 1.136,1.136 0,0.627 -0.508,1.136 -1.136,1.136 -0.627,0 -1.136,-0.509 -1.136,-1.136 0,-0.627 0.509,-1.136 1.136,-1.136z"/>
     </g>
     <g>
      <path class="fil2 str1" d="M19.516 22.414c0.428,0 0.775,0.347 0.775,0.775 0,0.428 -0.347,0.775 -0.775,0.775 -0.428,0 -0.775,-0.347 -0.775,-0.775 0,-0.428 0.347,-0.775 0.775,-0.775z"/>
      <path id="_1_1" class="fil3" d="M19.516 22.414c0.428,0 0.775,0.347 0.775,0.775 0,0.428 -0.347,0.775 -0.775,0.775 -0.428,0 -0.775,-0.347 -0.775,-0.775 0,-0.428 0.347,-0.775 0.775,-0.775z"/>
     </g>
    </g>
    <path class="fil4" d="M35.269 6.475c5.281,1.415 8.415,6.843 7,12.124 -0.605,2.258 -1.944,4.123 -3.691,5.409l2.265 3.923c0.584,-0.2 1.251,0.035 1.57,0.589l4.54 7.861c0.363,0.629 0.144,1.441 -0.484,1.803l-1.464 0.846c-0.628,0.362 -1.44,0.146 -1.803,-0.483l-4.539 -7.862c-0.319,-0.553 -0.19,-1.248 0.275,-1.654l-2.265 -3.924c-1.986,0.87 -4.27,1.097 -6.528,0.492 -5.281,-1.414 -8.416,-6.843 -7,-12.123 1.415,-5.282 6.843,-8.416 12.124,-7.001zm-0.546 2.036c4.157,1.114 6.624,5.386 5.51,9.543 -1.114,4.157 -5.386,6.623 -9.543,5.51 -4.157,-1.115 -6.623,-5.386 -5.51,-9.543 1.114,-4.157 5.387,-6.624 9.543,-5.51z"/>
   </g>
   <g>
    <g>
     <path class="fil5" d="M66.58 28.611l0 -10.956 5.572 0c1.393,0 2.355,0.306 2.893,0.899 0.507,0.711 0.804,1.875 0.893,3.513l0.076 3.024c0,0.328 0.057,0.92 0.145,1.799 0.057,0.592 0.209,1.164 0.45,1.721l5.787 0c-0.443,-0.272 -0.741,-0.899 -0.886,-1.882 -0.095,-0.655 -0.076,-1.47 -0.076,-2.125l-0.146 -3.353c-0.095,-1.965 -0.373,-3.352 -0.817,-4.168 -0.449,-0.878 -1.247,-1.526 -2.38,-1.958 1.285,-0.488 2.228,-1.283 2.824,-2.363 0.683,-1.143 1.038,-2.6 1.038,-4.335 0,-2.621 -0.684,-4.6 -2.077,-5.959 -1.336,-1.303 -3.4,-1.959 -6.167,-1.959l-9.725 0c-0.741,0 -1.374,0.286 -1.893,0.858 -0.52,0.571 -0.779,1.261 -0.779,2.077l0 25.167 5.268 0zm0 -23.293l6.464 0c1.184,0 2.077,0.328 2.672,0.983 0.652,0.593 0.963,1.534 0.963,2.781 0,1.248 -0.311,2.189 -0.963,2.781 -0.652,0.592 -1.633,0.899 -2.969,0.899l-6.167 0 0 -7.444zm30.849 16.581c-0.595,0.021 -1.057,0.161 -1.374,0.432 -0.316,0.265 -0.5,0.495 -0.557,0.656 -0.298,0.334 -0.519,0.641 -0.817,0.745 -0.589,0.391 -1.317,0.572 -2.153,0.572 -1.279,0 -2.241,-0.432 -2.893,-1.317 -0.684,-0.823 -1.058,-2.077 -1.115,-3.785l12.841 0c0.057,-0.105 0.076,-0.307 0.076,-0.571l0 -0.9c0,-3.589 -0.798,-6.377 -2.374,-8.391 -1.634,-1.959 -3.932,-2.934 -6.902,-2.934 -2.824,0 -5.033,0.996 -6.61,3.011 -1.539,1.958 -2.298,4.662 -2.298,8.147 0,3.673 0.797,6.496 2.374,8.454 1.576,2.015 3.786,3.011 6.604,3.011 2.324,0 4.255,-0.634 5.793,-1.874 1.539,-1.199 2.577,-2.928 3.115,-5.235l-3.71 -0.021zm-8.909 -6.377c0.057,-1.401 0.431,-2.502 1.115,-3.255 0.69,-0.752 1.576,-1.136 2.672,-1.136 1.19,0 2.096,0.384 2.748,1.136 0.595,0.711 0.943,1.791 1.038,3.255l-7.573 0zm13.564 6.14c0,2.391 0.729,4.231 2.153,5.479 1.393,1.247 3.489,1.881 6.307,1.881 2.969,0 5.191,-0.592 6.679,-1.798 1.577,-1.31 2.375,-3.171 2.375,-5.562 0,-1.63 -0.469,-2.941 -1.412,-3.924 -0.982,-0.92 -2.748,-1.735 -5.268,-2.446 -0.386,0 -0.817,-0.104 -1.412,-0.327 -2.577,-0.593 -3.856,-1.332 -3.856,-2.21 0,-0.655 0.222,-1.143 0.671,-1.47 0.5,-0.328 1.241,-0.488 2.223,-0.488 1.038,0 1.855,0.244 2.45,0.731l0.595 0.656c0.5,0.92 1.203,1.387 2.146,1.387l3.192 0c-0.089,-2.182 -0.868,-3.931 -2.299,-5.297 -1.538,-1.234 -3.577,-1.868 -6.161,-1.868 -2.374,0 -4.299,0.634 -5.787,1.868 -1.424,1.366 -2.146,3.073 -2.146,5.136 0,1.631 0.5,2.941 1.481,3.924 0.893,0.976 2.654,1.819 5.269,2.53 0.443,0.168 1.114,0.328 2,0.488 2.077,0.495 3.115,1.227 3.115,2.21 0,0.655 -0.291,1.163 -0.886,1.554 -0.652,0.39 -1.412,0.571 -2.298,0.571 -1.248,0 -2.229,-0.265 -2.97,-0.815 -0.684,-0.551 -1.057,-1.373 -1.114,-2.454l-5.047 0 0 0.244zm32.35 0.237c-0.595,0.021 -1.057,0.161 -1.374,0.432 -0.316,0.265 -0.5,0.495 -0.557,0.656 -0.297,0.334 -0.519,0.641 -0.817,0.745 -0.588,0.391 -1.317,0.572 -2.152,0.572 -1.279,0 -2.242,-0.432 -2.894,-1.317 -0.684,-0.823 -1.057,-2.077 -1.114,-3.785l12.84 0c0.057,-0.105 0.076,-0.307 0.076,-0.571l0 -0.9c0,-3.589 -0.797,-6.377 -2.374,-8.391 -1.634,-1.959 -3.932,-2.934 -6.902,-2.934 -2.823,0 -5.033,0.996 -6.61,3.011 -1.538,1.958 -2.298,4.662 -2.298,8.147 0,3.673 0.798,6.496 2.374,8.454 1.577,2.015 3.787,3.011 6.604,3.011 2.324,0 4.255,-0.634 5.794,-1.874 1.538,-1.199 2.577,-2.928 3.115,-5.235l-3.711 -0.021zm-8.908 -6.377c0.057,-1.401 0.43,-2.502 1.114,-3.255 0.69,-0.752 1.577,-1.136 2.672,-1.136 1.19,0 2.096,0.384 2.748,1.136 0.595,0.711 0.943,1.791 1.038,3.255l-7.572 0zm25.454 4.182c0,1.554 -0.386,2.746 -1.184,3.624 -0.797,0.885 -1.874,1.31 -3.267,1.31 -0.835,0 -1.481,-0.223 -1.924,-0.655 -0.45,-0.488 -0.672,-1.143 -0.672,-1.965 0,-0.593 0.165,-1.206 0.52,-1.798 0.392,-0.433 1.038,-0.802 1.931,-1.067 0,0 0.576,-0.146 1.703,-0.411 1.247,-0.328 2.21,-0.676 2.893,-1.066l0 2.028zm1.191 8.022c0.981,-0.544 1.836,-1.422 2.558,-2.641 0.722,-1.22 1.076,-2.921 1.076,-5.116l0 -7.451c0,-1.965 -0.728,-3.492 -2.153,-4.565 -1.392,-1.038 -3.469,-1.547 -6.23,-1.547 -2.469,0 -4.381,0.634 -5.711,1.875 -1.19,1.073 -1.874,2.453 -2.083,4.154l4.977 0c0.5,-1.206 1.646,-1.555 3.039,-1.555 0.652,0 1.355,0.119 2.115,0.363 0.759,0.251 1.152,0.78 1.152,1.603 0,1.08 -1.096,1.798 -3.267,2.126 -0.893,0.104 -1.577,0.327 -2.077,0.327 -1.874,0.328 -3.432,0.983 -4.641,1.966 -1.203,0.989 -1.817,2.627 -1.817,4.92 0,2.453 0.671,4.203 2.007,5.255 1.336,1.06 2.893,1.589 4.673,1.589 0.892,0 1.912,-0.062 3.077,-0.209 1.171,-0.139 2.266,-0.502 3.305,-1.094zm9.853 0.885l0 -11.2c0,-1.631 0.355,-2.837 1.039,-3.596 0.69,-0.753 1.766,-1.144 3.191,-1.144l1.71 0 0 -5.798 -0.748 0c-2.665,0 -5.318,0.732 -7.192,2.369 -1.988,1.736 -3.192,4.573 -3.192,8.824l0 10.545 5.192 0zm20.46 -6.698c-0.596,0.021 -1.039,0.161 -1.336,0.432 -0.298,0.265 -0.501,0.488 -0.596,0.649 -0.291,0.327 -0.519,0.634 -0.81,0.738 -0.595,0.391 -1.317,0.572 -2.153,0.572 -1.285,0 -2.248,-0.425 -2.9,-1.31 -0.886,-1.039 -1.336,-2.802 -1.336,-5.318 0,-2.516 0.45,-4.315 1.336,-5.402 0.69,-0.759 1.577,-1.143 2.672,-1.143 1.191,0 2.096,0.384 2.748,1.143 0.241,0.265 0.5,0.676 0.741,1.227l5.192 0c-0.386,-1.575 -1.039,-2.962 -1.925,-4.161 -1.633,-1.959 -3.932,-2.934 -6.901,-2.934 -2.818,0 -5.028,0.996 -6.604,3.011 -1.539,1.958 -2.299,4.676 -2.299,8.175 0,3.666 0.798,6.468 2.375,8.426 1.576,2.015 3.78,3.011 6.604,3.011 2.317,0 4.242,-0.634 5.787,-1.874 1.538,-1.199 2.577,-2.928 3.115,-5.221l-3.71 -0.021zm17.198 -8.907c0.886,1.408 1.032,2.697 1.032,4.328l0 11.277 4.977 0 0 -12.664c0,-2.509 -0.469,-4.474 -1.412,-5.882 -0.944,-1.408 -2.096,-2.447 -3.489,-3.102 -1.482,-0.655 -3.033,-0.752 -4.66,-0.327 -1.634,0.432 -2.887,1.47 -3.78,3.101l0 -6.447c0,-0.759 -0.241,-1.408 -0.741,-1.958 -0.5,-0.558 -1.095,-0.823 -1.779,-0.823l-2.52 0 0 28.102 5.04 0 0 -11.193c0,-1.896 0.373,-3.408 1.114,-4.496 0.741,-1.08 1.792,-1.631 3.179,-1.631 1.279,0 2.298,0.572 3.039,1.715z"/>
     <path class="fil6" d="M220.464 25.761c0.595,1.143 1.393,1.979 2.374,2.53 0.944,0.487 2.014,0.738 3.255,0.738 2.317,0 4.223,-1.045 5.711,-3.108 1.482,-2.126 2.222,-4.9 2.222,-8.336 0,-3.331 -0.74,-6.05 -2.222,-8.161 -0.741,-0.983 -1.748,-1.736 -3.007,-2.245 -1.261,-0.508 -2.502,-0.773 -3.736,-0.773 -2.375,0 -4.578,0.697 -6.598,2.077 -2.02,1.387 -3.039,3.972 -3.039,7.799l0 20.316 2.52 0c0.684,0 1.279,-0.264 1.779,-0.815 0.5,-0.551 0.741,-1.199 0.741,-1.952l0 -8.07zm8.446 -7.932c0,1.965 -0.373,3.513 -1.114,4.663 -0.741,1.143 -1.754,1.714 -3.033,1.714 -1.393,0 -2.444,-0.571 -3.185,-1.714 -0.741,-1.046 -1.114,-2.6 -1.114,-4.663 0,-2.223 0.355,-3.861 1.038,-4.9 0.741,-1.143 1.779,-1.714 3.109,-1.714 1.393,0 2.444,0.571 3.185,1.714 0.741,1.143 1.114,2.774 1.114,4.9zm17.743 1.875c0,1.554 -0.386,2.746 -1.184,3.624 -0.798,0.885 -1.874,1.31 -3.267,1.31 -0.836,0 -1.482,-0.223 -1.925,-0.655 -0.449,-0.488 -0.671,-1.143 -0.671,-1.965 0,-0.593 0.165,-1.206 0.519,-1.798 0.393,-0.433 1.039,-0.802 1.931,-1.067 0,0 0.577,-0.146 1.704,-0.411 1.247,-0.328 2.209,-0.676 2.893,-1.066l0 2.028zm1.191 8.022c0.981,-0.544 1.836,-1.422 2.558,-2.641 0.721,-1.22 1.076,-2.921 1.076,-5.116l0 -7.451c0,-1.965 -0.728,-3.492 -2.153,-4.565 -1.393,-1.038 -3.47,-1.547 -6.23,-1.547 -2.47,0 -4.382,0.634 -5.711,1.875 -1.191,1.073 -1.875,2.453 -2.083,4.154l4.976 0c0.5,-1.206 1.646,-1.555 3.039,-1.555 0.653,0 1.355,0.119 2.115,0.363 0.76,0.251 1.153,0.78 1.153,1.603 0,1.08 -1.096,1.798 -3.268,2.126 -0.892,0.104 -1.576,0.327 -2.076,0.327 -1.875,0.328 -3.432,0.983 -4.641,1.966 -1.203,0.989 -1.818,2.627 -1.818,4.92 0,2.453 0.672,4.203 2.007,5.255 1.336,1.06 2.894,1.589 4.673,1.589 0.893,0 1.912,-0.062 3.077,-0.209 1.172,-0.139 2.267,-0.502 3.306,-1.094zm9.701 -1.965c0.595,1.143 1.393,1.979 2.375,2.53 0.943,0.487 2.013,0.738 3.254,0.738 2.318,0 4.223,-1.045 5.711,-3.108 1.482,-2.126 2.223,-4.9 2.223,-8.336 0,-3.331 -0.741,-6.05 -2.223,-8.161 -0.741,-0.983 -1.747,-1.736 -3.007,-2.245 -1.26,-0.508 -2.501,-0.773 -3.736,-0.773 -2.374,0 -4.578,0.697 -6.598,2.077 -2.019,1.387 -3.039,3.972 -3.039,7.799l0 20.316 2.52 0c0.684,0 1.279,-0.264 1.779,-0.815 0.501,-0.551 0.741,-1.199 0.741,-1.952l0 -8.07zm8.447 -7.932c0,1.965 -0.374,3.513 -1.115,4.663 -0.74,1.143 -1.754,1.714 -3.033,1.714 -1.393,0 -2.444,-0.571 -3.184,-1.714 -0.741,-1.046 -1.115,-2.6 -1.115,-4.663 0,-2.223 0.355,-3.861 1.039,-4.9 0.74,-1.143 1.779,-1.714 3.108,-1.714 1.393,0 2.445,0.571 3.185,1.714 0.741,1.143 1.115,2.774 1.115,4.9zm20.035 4.07c-0.596,0.021 -1.058,0.161 -1.374,0.432 -0.317,0.265 -0.501,0.495 -0.558,0.656 -0.297,0.334 -0.519,0.641 -0.816,0.745 -0.589,0.391 -1.317,0.572 -2.153,0.572 -1.279,0 -2.241,-0.432 -2.894,-1.317 -0.683,-0.823 -1.057,-2.077 -1.114,-3.785l12.841 0c0.057,-0.105 0.075,-0.307 0.075,-0.571l0 -0.9c0,-3.589 -0.797,-6.377 -2.374,-8.391 -1.633,-1.959 -3.932,-2.934 -6.901,-2.934 -2.824,0 -5.034,0.996 -6.611,3.011 -1.538,1.958 -2.298,4.662 -2.298,8.147 0,3.673 0.798,6.496 2.374,8.454 1.577,2.015 3.787,3.011 6.604,3.011 2.324,0 4.255,-0.634 5.794,-1.874 1.538,-1.199 2.577,-2.928 3.115,-5.235l-3.71 -0.021zm-8.909 -6.377c0.057,-1.401 0.431,-2.502 1.114,-3.255 0.69,-0.752 1.577,-1.136 2.672,-1.136 1.191,0 2.096,0.384 2.748,1.136 0.595,0.711 0.944,1.791 1.039,3.255l-7.573 0zm19.218 13.089l0 -11.2c0,-1.631 0.355,-2.837 1.038,-3.596 0.691,-0.753 1.767,-1.144 3.192,-1.144l1.709 0 0 -5.798 -0.747 0c-2.666,0 -5.319,0.732 -7.193,2.369 -1.988,1.736 -3.191,4.573 -3.191,8.824l0 10.545 5.192 0z"/>
    </g>
    <path class="fil7" d="M76.967 40.422l-3.549 12.245 -1.792 0 -2.846 -9.856 -2.951 9.856 -1.775 0.017 -3.425 -12.262 1.704 0 2.67 10.382 2.951 -10.382 1.792 0 2.811 10.347 2.688 -10.347 1.722 0zm11.19 0l0 12.245 -1.598 0 0 -5.552 -6.237 0 0 5.552 -1.599 0 0 -12.245 1.599 0 0 5.376 6.237 0 0 -5.376 1.598 0zm4.322 1.3l0 4.093 4.462 0 0 1.318 -4.462 0 0 4.216 4.989 0 0 1.318 -6.588 0 0 -12.263 6.588 0 0 1.318 -4.989 0zm13.861 10.945l-2.916 -5.007 -1.932 0 0 5.007 -1.599 0 0 -12.245 3.953 0c0.925,0 1.707,0.158 2.345,0.474 0.638,0.316 1.115,0.744 1.432,1.283 0.316,0.538 0.474,1.153 0.474,1.844 0,0.843 -0.243,1.587 -0.729,2.231 -0.486,0.644 -1.215,1.072 -2.187,1.283l3.074 5.13 -1.915 0zm-4.848 -6.29l2.354 0c0.866,0 1.516,-0.213 1.95,-0.641 0.433,-0.427 0.65,-0.998 0.65,-1.713 0,-0.726 -0.214,-1.288 -0.642,-1.686 -0.427,-0.398 -1.08,-0.598 -1.958,-0.598l-2.354 0 0 4.638zm10.681 -4.655l0 4.093 4.462 0 0 1.318 -4.462 0 0 4.216 4.989 0 0 1.318 -6.588 0 0 -12.263 6.588 0 0 1.318 -4.989 0zm20.291 2.284c0,1.019 -0.349,1.865 -1.046,2.538 -0.696,0.674 -1.759,1.01 -3.188,1.01l-2.354 0 0 5.113 -1.599 0 0 -12.245 3.953 0c1.382,0 2.433,0.334 3.153,1.001 0.721,0.668 1.081,1.529 1.081,2.583zm-4.234 2.231c0.89,0 1.546,-0.193 1.968,-0.58 0.421,-0.386 0.632,-0.937 0.632,-1.651 0,-1.511 -0.867,-2.267 -2.6,-2.267l-2.354 0 0 4.498 2.354 0zm7.782 -5.815l0 7.747c0,1.089 0.267,1.898 0.8,2.425 0.533,0.527 1.274,0.79 2.222,0.79 0.937,0 1.672,-0.263 2.205,-0.79 0.533,-0.527 0.799,-1.336 0.799,-2.425l0 -7.747 1.599 0 0 7.73c0,1.019 -0.205,1.876 -0.615,2.573 -0.41,0.697 -0.963,1.216 -1.66,1.555 -0.697,0.34 -1.479,0.51 -2.345,0.51 -0.867,0 -1.649,-0.17 -2.346,-0.51 -0.697,-0.339 -1.247,-0.858 -1.651,-1.555 -0.404,-0.697 -0.606,-1.554 -0.606,-2.573l0 -7.73 1.598 0zm16.426 5.938c0.445,0.07 0.852,0.252 1.221,0.544 0.369,0.293 0.662,0.656 0.879,1.09 0.216,0.433 0.325,0.896 0.325,1.387 0,0.621 -0.158,1.18 -0.475,1.678 -0.316,0.498 -0.775,0.89 -1.379,1.177 -0.603,0.287 -1.314,0.431 -2.134,0.431l-4.568 0 0 -12.245 4.392 0c0.832,0 1.54,0.137 2.126,0.413 0.586,0.275 1.025,0.647 1.318,1.115 0.292,0.469 0.439,0.996 0.439,1.581 0,0.726 -0.196,1.327 -0.589,1.801 -0.392,0.474 -0.91,0.817 -1.555,1.028zm-4.532 -0.65l2.688 0c0.749,0 1.329,-0.176 1.739,-0.527 0.41,-0.352 0.615,-0.838 0.615,-1.458 0,-0.621 -0.205,-1.107 -0.615,-1.459 -0.41,-0.351 -1.001,-0.527 -1.774,-0.527l-2.653 0 0 3.971zm2.828 5.639c0.797,0 1.418,-0.187 1.863,-0.562 0.445,-0.375 0.667,-0.896 0.667,-1.564 0,-0.679 -0.234,-1.215 -0.703,-1.607 -0.468,-0.392 -1.095,-0.589 -1.879,-0.589l-2.776 0 0 4.322 2.828 0zm7.941 0.018l4.287 0 0 1.3 -5.886 0 0 -12.245 1.599 0 0 10.945zm7.589 -10.945l0 12.245 -1.598 0 0 -12.245 1.598 0zm6.606 12.368c-0.808,0 -1.531,-0.144 -2.17,-0.431 -0.638,-0.287 -1.139,-0.685 -1.502,-1.194 -0.363,-0.51 -0.55,-1.098 -0.562,-1.766l1.704 0c0.059,0.574 0.296,1.057 0.712,1.449 0.415,0.393 1.022,0.589 1.818,0.589 0.761,0 1.361,-0.19 1.801,-0.571 0.439,-0.381 0.658,-0.87 0.658,-1.467 0,-0.469 -0.128,-0.849 -0.386,-1.142 -0.258,-0.293 -0.58,-0.515 -0.966,-0.667 -0.387,-0.153 -0.908,-0.317 -1.564,-0.492 -0.808,-0.211 -1.455,-0.422 -1.941,-0.633 -0.486,-0.211 -0.902,-0.541 -1.247,-0.992 -0.346,-0.451 -0.519,-1.057 -0.519,-1.819 0,-0.667 0.17,-1.259 0.51,-1.774 0.339,-0.515 0.817,-0.914 1.432,-1.195 0.614,-0.281 1.32,-0.421 2.116,-0.421 1.148,0 2.088,0.287 2.82,0.861 0.732,0.573 1.145,1.335 1.239,2.283l-1.757 0c-0.059,-0.468 -0.305,-0.881 -0.738,-1.238 -0.433,-0.357 -1.007,-0.536 -1.722,-0.536 -0.667,0 -1.212,0.173 -1.633,0.518 -0.422,0.346 -0.633,0.829 -0.633,1.45 0,0.445 0.126,0.808 0.378,1.089 0.252,0.281 0.562,0.495 0.931,0.641 0.369,0.146 0.887,0.313 1.555,0.501 0.808,0.222 1.458,0.442 1.95,0.659 0.492,0.216 0.913,0.55 1.265,1.001 0.351,0.451 0.527,1.063 0.527,1.836 0,0.597 -0.158,1.159 -0.475,1.686 -0.316,0.527 -0.784,0.955 -1.405,1.283 -0.621,0.328 -1.353,0.492 -2.196,0.492zm15.864 -12.368l0 12.245 -1.599 0 0 -5.552 -6.237 0 0 5.552 -1.598 0 0 -12.245 1.598 0 0 5.376 6.237 0 0 -5.376 1.599 0zm4.321 0l0 12.245 -1.598 0 0 -12.245 1.598 0zm12.351 12.245l-1.599 0 -6.43 -9.751 0 9.751 -1.599 0 0 -12.263 1.599 0 6.43 9.733 0 -9.733 1.599 0 0 12.263zm11.998 -8.696c-0.339,-0.715 -0.831,-1.268 -1.475,-1.661 -0.644,-0.392 -1.394,-0.588 -2.249,-0.588 -0.855,0 -1.625,0.196 -2.31,0.588 -0.685,0.393 -1.224,0.955 -1.616,1.687 -0.393,0.732 -0.589,1.578 -0.589,2.538 0,0.961 0.196,1.804 0.589,2.53 0.392,0.726 0.931,1.286 1.616,1.678 0.685,0.392 1.455,0.589 2.31,0.589 1.195,0 2.178,-0.358 2.951,-1.072 0.773,-0.715 1.224,-1.681 1.353,-2.899l-4.884 0 0 -1.3 6.588 0 0 1.23c-0.093,1.007 -0.41,1.929 -0.948,2.767 -0.539,0.837 -1.248,1.499 -2.126,1.985 -0.878,0.486 -1.856,0.729 -2.934,0.729 -1.136,0 -2.172,-0.266 -3.109,-0.799 -0.937,-0.533 -1.678,-1.274 -2.223,-2.223 -0.544,-0.948 -0.817,-2.02 -0.817,-3.215 0,-1.194 0.273,-2.269 0.817,-3.223 0.545,-0.955 1.286,-1.698 2.223,-2.231 0.937,-0.533 1.973,-0.8 3.109,-0.8 1.3,0 2.451,0.322 3.452,0.967 1.002,0.644 1.731,1.551 2.187,2.723l-1.915 0zm21.504 -3.461l0 12.157 -1.599 0 0 -9.065 -4.041 9.065 -1.124 0 -4.058 -9.083 0 9.083 -1.599 0 0 -12.157 1.722 0 4.497 10.048 4.497 -10.048 1.705 0zm9.943 9.434l-5.341 0 -0.983 2.723 -1.687 0 4.427 -12.175 1.845 0 4.409 12.175 -1.686 0 -0.984 -2.723zm-0.457 -1.3l-2.213 -6.184 -2.214 6.184 4.427 0zm12.596 -8.222l0 1.3 -3.338 0 0 10.945 -1.598 0 0 -10.945 -3.356 0 0 -1.3 8.292 0zm9.505 0l0 1.3 -3.338 0 0 10.945 -1.599 0 0 -10.945 -3.355 0 0 -1.3 8.292 0zm3.566 1.3l0 4.093 4.462 0 0 1.318 -4.462 0 0 4.216 4.989 0 0 1.318 -6.588 0 0 -12.263 6.588 0 0 1.318 -4.989 0zm13.861 10.945l-2.916 -5.007 -1.933 0 0 5.007 -1.598 0 0 -12.245 3.952 0c0.926,0 1.707,0.158 2.346,0.474 0.638,0.316 1.115,0.744 1.431,1.283 0.317,0.538 0.475,1.153 0.475,1.844 0,0.843 -0.243,1.587 -0.729,2.231 -0.486,0.644 -1.215,1.072 -2.187,1.283l3.074 5.13 -1.915 0zm-4.849 -6.29l2.354 0c0.867,0 1.517,-0.213 1.95,-0.641 0.434,-0.427 0.65,-0.998 0.65,-1.713 0,-0.726 -0.213,-1.288 -0.641,-1.686 -0.427,-0.398 -1.08,-0.598 -1.959,-0.598l-2.354 0 0 4.638zm12.965 6.413c-0.808,0 -1.531,-0.144 -2.169,-0.431 -0.639,-0.287 -1.139,-0.685 -1.502,-1.194 -0.363,-0.51 -0.551,-1.098 -0.562,-1.766l1.704 0c0.058,0.574 0.295,1.057 0.711,1.449 0.416,0.393 1.022,0.589 1.818,0.589 0.762,0 1.362,-0.19 1.801,-0.571 0.439,-0.381 0.659,-0.87 0.659,-1.467 0,-0.469 -0.129,-0.849 -0.387,-1.142 -0.257,-0.293 -0.579,-0.515 -0.966,-0.667 -0.386,-0.153 -0.907,-0.317 -1.563,-0.492 -0.809,-0.211 -1.456,-0.422 -1.942,-0.633 -0.486,-0.211 -0.901,-0.541 -1.247,-0.992 -0.345,-0.451 -0.518,-1.057 -0.518,-1.819 0,-0.667 0.17,-1.259 0.509,-1.774 0.34,-0.515 0.817,-0.914 1.432,-1.195 0.615,-0.281 1.321,-0.421 2.117,-0.421 1.148,0 2.088,0.287 2.82,0.861 0.732,0.573 1.145,1.335 1.238,2.283l-1.757 0c-0.058,-0.468 -0.304,-0.881 -0.737,-1.238 -0.434,-0.357 -1.008,-0.536 -1.722,-0.536 -0.668,0 -1.212,0.173 -1.634,0.518 -0.422,0.346 -0.632,0.829 -0.632,1.45 0,0.445 0.126,0.808 0.377,1.089 0.252,0.281 0.563,0.495 0.931,0.641 0.369,0.146 0.888,0.313 1.555,0.501 0.808,0.222 1.458,0.442 1.95,0.659 0.492,0.216 0.914,0.55 1.265,1.001 0.351,0.451 0.527,1.063 0.527,1.836 0,0.597 -0.158,1.159 -0.474,1.686 -0.316,0.527 -0.785,0.955 -1.406,1.283 -0.62,0.328 -1.352,0.492 -2.196,0.492z"/>
   </g>
  </g>
 </g>
</svg>
