<?xml version="1.0" encoding="UTF-8"?>
<!DOCTYPE svg PUBLIC "-//W3C//DTD SVG 1.1//EN" "http://www.w3.org/Graphics/SVG/1.1/DTD/svg11.dtd">
<!-- Creator: CorelDRAW 2021 (64-Bit) -->
<svg xmlns="http://www.w3.org/2000/svg" xml:space="preserve" width="18px" height="23px" version="1.1" style="shape-rendering:geometricPrecision; text-rendering:geometricPrecision; image-rendering:optimizeQuality; fill-rule:evenodd; clip-rule:evenodd"
viewBox="0 0 0.435 0.554"
 xmlns:xlink="http://www.w3.org/1999/xlink"
 xmlns:xodm="http://www.corel.com/coreldraw/odm/2003">
 <defs>
  <style type="text/css">
   <![CDATA[
    .fil0 {fill:white}
   ]]>
  </style>
 </defs>
 <g id="Layer_x0020_1">
  <metadata id="CorelCorpID_0Corel-Layer"/>
  <g id="_1932113034352">
   <path class="fil0" d="M0.04 0.491l0 -0.355c0,-0.013 0.006,-0.018 0.015,-0.029l0.05 -0.062c0.004,-0.004 0.008,-0.005 0.016,-0.005l0.251 0c0.015,0 0.024,0.008 0.024,0.023l0 0.428c0,0.015 -0.009,0.023 -0.024,0.023l-0.309 0c-0.015,0 -0.023,-0.008 -0.023,-0.023zm-0.04 -0.361l0 0.369c0,0.027 0.028,0.055 0.054,0.055l0.327 0c0.019,0 0.04,-0.015 0.048,-0.033 0.003,-0.005 0.006,-0.014 0.006,-0.022l0 -0.445c0,-0.019 -0.015,-0.039 -0.033,-0.048 -0.005,-0.003 -0.014,-0.006 -0.021,-0.006l-0.267 0c-0.031,0 -0.049,0.031 -0.068,0.054 -0.009,0.011 -0.018,0.022 -0.027,0.033 -0.009,0.012 -0.019,0.023 -0.019,0.043z"/>
   <path class="fil0" d="M0.138 0.235c0,0.015 0.008,0.022 0.023,0.022 0.011,0 0.028,-0.024 0.037,-0.03l0 0.094c0.004,0.02 0.034,0.02 0.039,0.001 0.001,-0.005 0,-0.085 0,-0.095 0.006,0.004 0.013,0.012 0.018,0.017 0.01,0.01 0.011,0.013 0.024,0.013 0.009,0 0.018,-0.008 0.018,-0.022 0,-0.008 -0.011,-0.018 -0.016,-0.023l-0.038 -0.038c-0.011,-0.011 -0.015,-0.016 -0.028,-0.016 -0.009,0 -0.034,0.028 -0.041,0.036 -0.007,0.007 -0.036,0.032 -0.036,0.041z"/>
   <path class="fil0" d="M0.099 0.373c0,0.014 0.008,0.023 0.017,0.023l0.203 0c0.009,0 0.017,-0.009 0.017,-0.023 0,-0.007 -0.009,-0.017 -0.017,-0.017l-0.203 0c-0.008,0 -0.017,0.01 -0.017,0.017z"/>
  </g>
 </g>
</svg>
