<?xml version="1.0" encoding="UTF-8"?>
<!DOCTYPE svg PUBLIC "-//W3C//DTD SVG 1.1//EN" "http://www.w3.org/Graphics/SVG/1.1/DTD/svg11.dtd">
<!-- Creator: CorelDRAW 2021 (64-Bit) -->
<svg xmlns="http://www.w3.org/2000/svg" xml:space="preserve" width="68px" height="71px" version="1.1" style="shape-rendering:geometricPrecision; text-rendering:geometricPrecision; image-rendering:optimizeQuality; fill-rule:evenodd; clip-rule:evenodd"
viewBox="0 0 4.044 4.207"
 xmlns:xlink="http://www.w3.org/1999/xlink"
 xmlns:xodm="http://www.corel.com/coreldraw/odm/2003">
 <defs>
  <style type="text/css">
   <![CDATA[
    .str0 {stroke:#6200EE;stroke-width:0.06;stroke-linecap:round;stroke-linejoin:round;stroke-miterlimit:2.61313}
    .fil2 {fill:#6200EE}
    .fil1 {fill:#9999FF}
    .fil0 {fill:#E9DFFE}
   ]]>
  </style>
   <mask id="id0">
  <linearGradient id="id1" gradientUnits="userSpaceOnUse" x1="1.92" y1="0.148" x2="1.92" y2="4.067">
   <stop offset="0" style="stop-opacity:1; stop-color:white"/>
   <stop offset="1" style="stop-opacity:0; stop-color:white"/>
  </linearGradient>
    <rect style="fill:url(#id1)" width="4.044" height="4.208"/>
   </mask>
 </defs>
 <g id="Layer_x0020_1">
  <metadata id="CorelCorpID_0Corel-Layer"/>
  <path class="fil0 str0" style="mask:url(#id0)" d="M2.022 4.178l0 0c1.096,0 1.992,-0.897 1.992,-1.993l0 -0.163c0,-1.096 -0.896,-1.992 -1.992,-1.992l0 0c-1.096,0 -1.992,0.896 -1.992,1.992l0 0.163c0,1.096 0.896,1.993 1.992,1.993z"/>
  <g id="_1931934741664">
   <path class="fil1" d="M1.591 2.622l0 -0.86c0,-0.033 0.016,-0.044 0.037,-0.071l0.121 -0.149c0.01,-0.01 0.02,-0.014 0.039,-0.014l0.609 0c0.036,0 0.057,0.021 0.057,0.057l0 1.037c0,0.037 -0.021,0.057 -0.057,0.057l-0.749 0c-0.037,0 -0.057,-0.02 -0.057,-0.057zm-0.096 -0.875l0 0.896c0,0.065 0.067,0.132 0.132,0.132l0.791 0c0.046,0 0.096,-0.036 0.118,-0.08 0.006,-0.013 0.014,-0.034 0.014,-0.052l0 -1.079c0,-0.046 -0.036,-0.096 -0.08,-0.118 -0.013,-0.006 -0.035,-0.014 -0.052,-0.014l-0.648 0c-0.074,0 -0.119,0.075 -0.163,0.13 -0.023,0.028 -0.043,0.054 -0.066,0.082 -0.021,0.028 -0.046,0.055 -0.046,0.103z"/>
   <path class="fil1" d="M1.83 2.002c0,0.036 0.018,0.054 0.054,0.054 0.028,0 0.069,-0.058 0.09,-0.072l0.001 0.227c0.009,0.047 0.082,0.049 0.094,0.002 0.003,-0.012 0.001,-0.207 0.001,-0.229 0.014,0.007 0.031,0.028 0.042,0.039 0.025,0.025 0.029,0.033 0.06,0.033 0.022,0 0.042,-0.021 0.042,-0.054 0,-0.019 -0.027,-0.044 -0.038,-0.055l-0.093 -0.093c-0.027,-0.027 -0.035,-0.038 -0.067,-0.038 -0.022,0 -0.082,0.068 -0.1,0.086 -0.017,0.018 -0.086,0.077 -0.086,0.1z"/>
   <path class="fil1" d="M1.734 2.337c0,0.034 0.021,0.054 0.042,0.054l0.492 0c0.022,0 0.042,-0.02 0.042,-0.054 0,-0.018 -0.023,-0.042 -0.042,-0.042l-0.492 0c-0.018,0 -0.042,0.024 -0.042,0.042z"/>
  </g>
  <g id="_1931934741040">
   <path class="fil2" d="M1.591 2.622l0 -0.86c0,-0.033 0.016,-0.044 0.037,-0.071l0.121 -0.149c0.01,-0.01 0.02,-0.014 0.039,-0.014l0.609 0c0.036,0 0.057,0.021 0.057,0.057l0 1.037c0,0.037 -0.021,0.057 -0.057,0.057l-0.749 0c-0.037,0 -0.057,-0.02 -0.057,-0.057zm-0.096 -0.875l0 0.896c0,0.065 0.067,0.132 0.132,0.132l0.791 0c0.046,0 0.096,-0.036 0.118,-0.08 0.006,-0.013 0.014,-0.034 0.014,-0.052l0 -1.079c0,-0.046 -0.036,-0.096 -0.08,-0.118 -0.013,-0.006 -0.035,-0.014 -0.052,-0.014l-0.648 0c-0.074,0 -0.119,0.075 -0.163,0.13 -0.023,0.028 -0.043,0.054 -0.066,0.082 -0.021,0.028 -0.046,0.055 -0.046,0.103z"/>
   <path class="fil2" d="M1.83 2.002c0,0.036 0.018,0.054 0.054,0.054 0.028,0 0.069,-0.058 0.09,-0.072l0.001 0.227c0.009,0.047 0.082,0.049 0.094,0.002 0.003,-0.012 0.001,-0.207 0.001,-0.229 0.014,0.007 0.031,0.028 0.042,0.039 0.025,0.025 0.029,0.033 0.06,0.033 0.022,0 0.042,-0.021 0.042,-0.054 0,-0.019 -0.027,-0.044 -0.038,-0.055l-0.093 -0.093c-0.027,-0.027 -0.035,-0.038 -0.067,-0.038 -0.022,0 -0.082,0.068 -0.1,0.086 -0.017,0.018 -0.086,0.077 -0.086,0.1z"/>
   <path class="fil2" d="M1.734 2.337c0,0.034 0.021,0.054 0.042,0.054l0.492 0c0.022,0 0.042,-0.02 0.042,-0.054 0,-0.018 -0.023,-0.042 -0.042,-0.042l-0.492 0c-0.018,0 -0.042,0.024 -0.042,0.042z"/>
  </g>
 </g>
</svg>
