<?xml version="1.0" encoding="UTF-8"?>
<!DOCTYPE svg PUBLIC "-//W3C//DTD SVG 1.1//EN" "http://www.w3.org/Graphics/SVG/1.1/DTD/svg11.dtd">
<!-- Creator: CorelDRAW 2021 (64-Bit) -->
<svg xmlns="http://www.w3.org/2000/svg" xml:space="preserve" width="47px" height="55px" version="1.1" style="shape-rendering:geometricPrecision; text-rendering:geometricPrecision; image-rendering:optimizeQuality; fill-rule:evenodd; clip-rule:evenodd"
viewBox="0 0 3.002 3.524"
 xmlns:xlink="http://www.w3.org/1999/xlink"
 xmlns:xodm="http://www.corel.com/coreldraw/odm/2003">
 <defs>
  <style type="text/css">
   <![CDATA[
    .fil0 {fill:#6200EE}
   ]]>
  </style>
 </defs>
 <g id="Layer_x0020_1">
  <metadata id="CorelCorpID_0Corel-Layer"/>
  <g id="_1619004804320">
   <path class="fil0" d="M0.627 1.81c0,-0.158 0.011,-0.278 0.085,-0.424 0.117,-0.232 0.307,-0.406 0.563,-0.469 0.247,-0.061 0.528,-0.024 0.734,0.131 0.163,0.123 0.287,0.286 0.337,0.488 0.051,0.204 0.039,0.414 -0.056,0.602 -0.06,0.12 -0.082,0.153 -0.171,0.242 -0.018,0.018 -0.033,0.035 -0.052,0.051 -0.018,0.017 -0.038,0.03 -0.058,0.045 -0.07,0.052 -0.196,0.11 -0.282,0.131 -0.247,0.061 -0.528,0.024 -0.733,-0.131l-0.207 -0.206c-0.031,-0.042 -0.051,-0.083 -0.075,-0.132 -0.043,-0.084 -0.085,-0.229 -0.085,-0.328zm-0.626 -0.812c0,0.448 -0.01,0.738 0.099,1.174 0.07,0.283 0.178,0.468 0.339,0.687 0.12,0.163 0.374,0.37 0.56,0.466 0.05,0.025 0.095,0.051 0.149,0.078 0.103,0.052 0.261,0.121 0.381,0.121 0.048,0 0.285,-0.101 0.33,-0.124 0.104,-0.051 0.197,-0.103 0.289,-0.165 0.437,-0.291 0.708,-0.735 0.797,-1.248 0.064,-0.372 0.057,-0.612 0.057,-0.989 0,-0.025 0.001,-0.051 0,-0.076 -0.002,-0.061 -0.012,-0.151 -0.03,-0.204 -0.04,-0.11 -0.13,-0.187 -0.238,-0.223 -0.084,-0.029 -0.307,-0.024 -0.523,-0.097l-0.219 -0.09c-0.101,-0.055 -0.188,-0.12 -0.275,-0.193 -0.089,-0.074 -0.102,-0.115 -0.236,-0.115 -0.109,0 -0.218,0.156 -0.372,0.248 -0.031,0.019 -0.061,0.038 -0.094,0.057l-0.218 0.092c-0.288,0.095 -0.47,0.042 -0.631,0.147 -0.136,0.088 -0.157,0.222 -0.165,0.371 -0.002,0.026 0,0.057 0,0.083z"/>
   <path class="fil0" d="M1.061 1.858c0,-0.074 0.056,-0.096 0.117,-0.096 0.046,0 0.15,0.116 0.165,0.138 0.028,-0.019 0.238,-0.235 0.28,-0.277 0.063,-0.063 0.192,-0.245 0.283,-0.121 0.073,0.097 -0.057,0.184 -0.176,0.303 -0.074,0.074 -0.143,0.143 -0.217,0.217 -0.176,0.176 -0.168,0.166 -0.365,-0.031 -0.033,-0.034 -0.087,-0.07 -0.087,-0.133zm-0.234 -0.096c0,0.452 0.465,0.823 0.95,0.613 0.042,-0.019 0.068,-0.033 0.106,-0.059 0.075,-0.053 0.08,-0.063 0.133,-0.122 0.16,-0.179 0.209,-0.477 0.098,-0.707 -0.035,-0.072 -0.079,-0.145 -0.136,-0.202l-0.091 -0.074c-0.047,-0.033 -0.061,-0.038 -0.11,-0.062 -0.246,-0.118 -0.563,-0.054 -0.753,0.136 -0.016,0.016 -0.021,0.028 -0.037,0.045 -0.096,0.107 -0.16,0.279 -0.16,0.432z"/>
  </g>
 </g>
</svg>
