<?xml version="1.0" encoding="UTF-8"?>
<!DOCTYPE svg PUBLIC "-//W3C//DTD SVG 1.1//EN" "http://www.w3.org/Graphics/SVG/1.1/DTD/svg11.dtd">
<!-- Creator: CorelDRAW 2021 (64-Bit) -->
<svg xmlns="http://www.w3.org/2000/svg" xml:space="preserve" width="52px" height="48px" version="1.1" style="shape-rendering:geometricPrecision; text-rendering:geometricPrecision; image-rendering:optimizeQuality; fill-rule:evenodd; clip-rule:evenodd"
viewBox="0 0 52 47.954"
 xmlns:xlink="http://www.w3.org/1999/xlink"
 xmlns:xodm="http://www.corel.com/coreldraw/odm/2003">
 <defs>
  <style type="text/css">
   <![CDATA[
    .fil0 {fill:#6100ED;fill-rule:nonzero}
   ]]>
  </style>
 </defs>
 <g id="Layer_x0020_1">
  <metadata id="CorelCorpID_0Corel-Layer"/>
  <g id="Layer_2" data-name="Layer 2">
   <g id="Layer_1-2" data-name="Layer 1">
    <path class="fil0" d="M52 25.632c0,0.623 -0.162,1.223 -0.254,1.847 -0.808,5.912 -3.804,11.32 -8.38,15.144 -3.284,2.797 -7.283,4.645 -11.541,5.331l0 -5.656c5.179,-1.21 9.607,-4.569 12.166,-9.233 1.543,-2.692 2.359,-5.745 2.359,-8.851 0,-1.293 -0.143,-2.584 -0.421,-3.845 -1.699,-8.66 -9.295,-14.91 -18.121,-14.91 -8.739,0 -16.285,6.128 -18.075,14.68l3.994 -0.001 -6.926 11.542 -6.671 -11.542 3.832 0c0.3,-1.108 0.554,-2.309 0.901,-3.301 1.63,-5.202 5.011,-9.693 9.557,-12.697 3.9,-2.694 8.535,-4.14 13.278,-4.14 0.405,0 0.815,0.011 1.217,0.031 6.497,0.236 12.615,3.148 16.9,8.034 3.216,3.545 5.289,7.995 5.931,12.742 0,0.647 0.162,1.293 0.254,1.94l0 2.885z"/>
    <path class="fil0" d="M29.031 47.908l-2.931 0 0 -5.332c0.01,-0.203 0.017,-0.408 0.017,-0.612 0,-0.204 -0.007,-0.409 -0.018,-0.612 -0.01,-0.449 -0.308,-0.84 -0.738,-0.97 -0.188,-0.067 -0.387,-0.102 -0.587,-0.102 -0.38,0 -0.75,0.125 -1.052,0.356 -0.138,0 -0.138,0.37 -0.138,0.578 0,2.031 0,4.062 0,6.094l0 0.577 -3.209 0 0 -13.227 3.07 0 0 4.616c0.248,-0.231 0.511,-0.448 0.785,-0.646 0.514,-0.407 1.152,-0.63 1.808,-0.63 1.315,0 2.468,0.884 2.809,2.154 0.165,0.538 0.251,1.099 0.254,1.662 0,1.962 0,3.924 0,5.886 -0.02,0.07 -0.044,0.14 -0.07,0.208l0 0z"/>
    <path class="fil0" d="M2.97 38.997l-2.955 0c-0.01,-0.114 -0.015,-0.23 -0.015,-0.345 0,-1.44 0.773,-2.772 2.023,-3.486 0.78,-0.42 1.654,-0.641 2.539,-0.641 0.886,0 1.76,0.221 2.54,0.64 1.203,0.68 1.948,1.955 1.948,3.337 0,0.857 -0.289,1.691 -0.817,2.365 -1.085,1.385 -2.309,2.678 -3.486,4.017l-0.508 0.577 5.009 0 0 2.447 -8.979 0c0,-0.646 0,-1.27 0,-1.893 0,-0.162 0.161,-0.323 0.3,-0.439 1.454,-1.592 2.954,-3.139 4.34,-4.778 0.461,-0.596 0.799,-1.28 0.992,-2.008 0.053,-0.151 0.08,-0.309 0.08,-0.468 0,-0.631 -0.419,-1.185 -1.026,-1.356 -0.136,-0.039 -0.276,-0.059 -0.418,-0.059 -0.798,0 -1.456,0.624 -1.498,1.421 -0.035,0.221 -0.059,0.446 -0.069,0.669l0 0z"/>
    <path class="fil0" d="M17.72 34.842l0 8.011 1.339 0 0 2.308 -1.316 0 0 2.77 -2.954 0 0 -2.793 -5.171 0c-0.076,-0.301 -0.115,-0.613 -0.115,-0.924 0,-0.664 0.176,-1.317 0.507,-1.892 1.57,-2.309 3.001,-4.733 4.479,-7.11 0.1,-0.24 0.335,-0.397 0.596,-0.397 0.024,0 0.049,0.002 0.073,0.004l2.562 0.023zm-5.563 7.987l2.562 0 0 -4.016 0 0 -2.562 4.016z"/>
    <polygon class="fil0" points="27.485,24.524 34.802,24.524 34.802,27.294 24.761,27.294 24.761,11.574 27.485,11.574 "/>
   </g>
  </g>
 </g>
</svg>
