<?xml version="1.0" encoding="UTF-8"?>
<!DOCTYPE svg PUBLIC "-//W3C//DTD SVG 1.1//EN" "http://www.w3.org/Graphics/SVG/1.1/DTD/svg11.dtd">
<!-- Creator: CorelDRAW 2021 (64-Bit) -->
<svg xmlns="http://www.w3.org/2000/svg" xml:space="preserve" width="80px" height="80px" version="1.1" style="shape-rendering:geometricPrecision; text-rendering:geometricPrecision; image-rendering:optimizeQuality; fill-rule:evenodd; clip-rule:evenodd"
viewBox="0 0 80 80"
 xmlns:xlink="http://www.w3.org/1999/xlink"
 xmlns:xodm="http://www.corel.com/coreldraw/odm/2003">
 <defs>
  <style type="text/css">
   <![CDATA[
    .fil0 {fill:white}
   ]]>
  </style>
 </defs>
 <g id="Layer_x0020_1">
  <metadata id="CorelCorpID_0Corel-Layer"/>
  <g id="_2403815277040">
   <path class="fil0" d="M45.021 66.641c0.068,-0.825 0.419,-2.171 0.575,-2.952 0.104,-0.52 0.15,-0.89 0.275,-1.411 0.179,-0.753 0.236,-0.654 0.719,-1.121 2.909,-2.809 20.352,-20.606 21.299,-21.171 1.348,-0.803 4.116,-0.694 4.116,2.737 0,1.357 -4.822,5.666 -5.941,6.784l-12.726 12.726c-4.038,4.039 -2.423,3.207 -5.647,3.858 -0.955,0.193 -1.797,0.346 -2.67,0.55zm-5.367 2.913c0,1.364 1.154,2.431 2.431,2.399 0.904,-0.024 2.998,-0.556 4.099,-0.776 1.436,-0.288 2.663,-0.484 4.111,-0.795 2.156,-0.464 1.965,-0.476 3.273,-1.786 0.788,-0.788 9.357,-9.494 10.005,-9.928l-0.037 10.849c-0.414,3.057 -2.527,5.097 -5.79,5.097l-40.476 0c-3.089,0 -5.673,-2.287 -5.673,-5.06l0 -59.182c0,-2.773 2.584,-5.06 5.673,-5.06l40.476 0c3.419,0 5.827,2.408 5.827,5.827l0 26.218c0,0.522 -6.393,6.622 -6.862,7.091l-14.029 14.028c-0.85,0.845 -1.004,0.804 -1.279,2.247 -0.205,1.075 -0.371,1.87 -0.586,2.941l-1.163 5.89zm-32.81 -58.875l0 58.568c0,5.315 4.624,9.966 9.506,9.966l42.47 0c3.268,0 6.756,-2.482 8.23,-5.415 1.002,-1.994 1.122,-2.734 1.122,-5.624 0,-3.275 -0.157,-10.956 -0.011,-13.657 0.046,-0.865 0.423,-0.937 1.429,-1.943 3.15,-3.15 7.168,-6.021 7.168,-10.158 0,-4.078 -3.184,-7.513 -7.206,-7.513l-1.38 0 0 -24.837c0,-1.319 -0.506,-2.703 -0.969,-3.631 -1.559,-3.125 -4.947,-5.722 -8.383,-5.722l-42.47 0c-4.852,0 -9.506,4.617 -9.506,9.966z"/>
   <path class="fil0" d="M17.576 35.823c0,1.227 1.038,2.3 2.3,2.3l35.571 0c2.504,0 2.847,-4.6 -0.307,-4.6l-35.417 0c-1.052,0 -2.147,1.223 -2.147,2.3z"/>
   <path class="fil0" d="M28.462 25.857c0,1.568 1.173,2.454 2.76,2.454l23.458 0c3.849,0 3.422,-4.753 0.306,-4.753l-24.071 0c-1.3,0 -2.453,1.056 -2.453,2.299z"/>
   <path class="fil0" d="M28.462 16.045c0,1.365 1.267,2.3 2.453,2.3l24.071 0c0.714,0 1.306,-0.28 1.681,-0.62 1.662,-1.503 0.507,-4.133 -1.834,-4.133l-23.764 0c-1.431,0 -2.607,0.998 -2.607,2.453z"/>
   <path class="fil0" d="M28.462 45.789c0,1.274 1.169,2.3 2.147,2.3l11.039 0c2.765,0 3.735,-4.753 -0.92,-4.753l-9.046 0c-1.831,0 -3.22,0.635 -3.22,2.453z"/>
   <path class="fil0" d="M17.576 25.857c0,2.806 3.187,2.454 4.753,2.454 3.818,0 3.446,-4.753 0.307,-4.753 -1.661,0 -3.354,-0.267 -4.264,0.643 -0.331,0.331 -0.796,1.067 -0.796,1.656z"/>
   <path class="fil0" d="M17.576 45.789c0,2.78 3.521,2.3 5.367,2.3 2.446,0 3.675,-4.753 -1.074,-4.753 -1.824,0 -4.293,0.039 -4.293,2.453z"/>
   <path class="fil0" d="M17.576 15.892c0,2.863 3.055,2.453 4.753,2.453 3.131,0 3.497,-4.753 -0.46,-4.753 -1.148,0 -2.512,-0.115 -3.406,0.58 -0.345,0.267 -0.887,1.213 -0.887,1.72z"/>
  </g>
 </g>
</svg>
