<?xml version="1.0" encoding="UTF-8"?>
<!DOCTYPE svg PUBLIC "-//W3C//DTD SVG 1.1//EN" "http://www.w3.org/Graphics/SVG/1.1/DTD/svg11.dtd">
<!-- Creator: CorelDRAW 2021 (64-Bit) -->
<svg xmlns="http://www.w3.org/2000/svg" xml:space="preserve" width="48px" height="48px" version="1.1" style="shape-rendering:geometricPrecision; text-rendering:geometricPrecision; image-rendering:optimizeQuality; fill-rule:evenodd; clip-rule:evenodd"
viewBox="0 0 18.479 18.493"
 xmlns:xlink="http://www.w3.org/1999/xlink"
 xmlns:xodm="http://www.corel.com/coreldraw/odm/2003">
 <defs>
  <style type="text/css">
   <![CDATA[
    .fil0 {fill:white}
   ]]>
  </style>
 </defs>
 <g id="Layer_x0020_1">
  <metadata id="CorelCorpID_0Corel-Layer"/>
  <path class="fil0" d="M0 2.203c0,1.127 0.877,2.073 1.986,2.169 0.677,0.059 0.634,-0.06 1.156,-0.182 0.171,0.114 0.215,0.228 0.352,0.371l2.186 2.329c0.135,0.134 0.249,0.252 0.352,0.406 -0.779,1.473 -0.703,2.853 0.217,4.226l-2.014 1.996c-0.602,-0.326 -0.886,-0.443 -1.634,-0.443 -0.407,0 -0.783,0.13 -1.073,0.265 -0.743,0.345 -1.274,1.074 -1.454,1.868 -0.292,1.29 0.419,2.543 1.516,3.032 0.669,0.299 1.539,0.331 2.191,0.025 1.348,-0.633 2.015,-2.08 1.442,-3.513 -0.122,-0.305 -0.259,-0.462 -0.419,-0.701l1.941 -1.96c0.178,0.098 0.288,0.222 0.449,0.328 0.154,0.101 0.335,0.198 0.52,0.275 1.1,0.455 2.273,0.426 3.327,-0.136 0.17,-0.091 0.279,-0.189 0.445,-0.277 0.209,0.14 0.359,0.371 0.532,0.551l1.429 1.497c0.277,0.331 0.652,0.59 0.892,0.95 -0.033,0.142 -0.114,0.267 -0.166,0.447 -0.214,0.751 0.057,1.608 0.518,2.091 0.728,0.763 2.014,0.921 2.884,0.264l0.296 -0.246c0.921,-0.979 0.778,-2.533 -0.306,-3.326 -0.571,-0.418 -1.416,-0.536 -2.081,-0.253 -0.102,0.044 -0.245,0.112 -0.335,0.171 -0.117,0.077 -0.204,0.17 -0.304,0.238 -0.056,-0.085 -0.085,-0.096 -0.153,-0.173l-0.524 -0.559c-0.065,-0.065 -0.121,-0.112 -0.179,-0.182 -0.358,-0.428 -0.814,-0.884 -1.212,-1.28 -0.238,-0.237 -0.431,-0.543 -0.713,-0.732 0.26,-0.389 0.43,-0.559 0.638,-1.023 0.639,-1.43 0.217,-3.353 -0.994,-4.328 -0.384,-0.309 -0.783,-0.563 -1.264,-0.722 -0.228,-0.076 -0.54,-0.164 -0.836,-0.176 -0.192,-0.007 -0.285,-0.052 -0.463,-0.032 -0.16,0.018 -0.263,0.032 -0.476,0.032 0.127,-0.266 0.265,-0.957 0.346,-1.279 0.112,-0.443 0.238,-0.847 0.34,-1.285 0.543,0 0.957,-0.353 1.181,-0.77 0.5,-0.932 -0.133,-2.156 -1.398,-2.156 -0.67,0 -1.2,0.591 -1.321,1.171 -0.232,1.111 0.779,1.611 0.779,1.646 0,0.305 -0.224,0.862 -0.303,1.178 -0.102,0.406 -0.217,0.763 -0.318,1.163 -0.1,0.392 -0.034,0.54 -0.378,0.705 -0.106,0.051 -0.156,0.086 -0.253,0.144 -0.482,0.289 -0.618,0.489 -0.842,0.639 -0.093,-0.138 -0.225,-0.223 -0.331,-0.356 -0.125,-0.156 -0.205,-0.235 -0.347,-0.375l-1.679 -1.825c-0.122,-0.132 -0.256,-0.225 -0.353,-0.37 0.273,-0.407 0.615,-0.679 0.615,-1.517 0,-1.245 -1.046,-2.175 -2.172,-2.203l-0.104 0c-0.275,0.007 -0.553,0.068 -0.819,0.192 -0.363,0.169 -0.694,0.421 -0.909,0.753 -0.237,0.368 -0.403,0.777 -0.403,1.258z"/>
 </g>
</svg>
