<?xml version="1.0" encoding="UTF-8"?>
<!DOCTYPE svg PUBLIC "-//W3C//DTD SVG 1.1//EN" "http://www.w3.org/Graphics/SVG/1.1/DTD/svg11.dtd">
<!-- Creator: CorelDRAW 2021 (64-Bit) -->
<svg xmlns="http://www.w3.org/2000/svg" xml:space="preserve" width="52px" height="52px" version="1.1" style="shape-rendering:geometricPrecision; text-rendering:geometricPrecision; image-rendering:optimizeQuality; fill-rule:evenodd; clip-rule:evenodd"
viewBox="0 0 21.093 21.065"
 xmlns:xlink="http://www.w3.org/1999/xlink"
 xmlns:xodm="http://www.corel.com/coreldraw/odm/2003">
 <defs>
  <style type="text/css">
   <![CDATA[
    .fil0 {fill:#6200EE}
   ]]>
  </style>
 </defs>
 <g id="Layer_x0020_1">
  <metadata id="CorelCorpID_0Corel-Layer"/>
  <g id="_1619033996032">
   <path class="fil0" d="M16.752 5.629l0 14.778c0,0.391 0.267,0.658 0.658,0.658l3.026 0c0.39,0 0.657,-0.267 0.657,-0.658l0 -14.778c0,-0.339 -0.254,-0.658 -0.57,-0.658l-3.201 0c-0.316,0 -0.57,0.319 -0.57,0.658z"/>
   <path class="fil0" d="M17.015 1.857c0,0.229 0.089,0.473 0.132,0.658 -0.179,0.267 -0.352,0.34 -0.516,0.493 -0.069,0.065 -0.104,0.113 -0.175,0.176l-0.938 0.816c-0.285,0.227 -0.99,0.933 -1.309,1.146 -0.169,-0.039 -0.199,-0.096 -0.378,-0.148 -0.693,-0.202 -1.256,0.022 -1.735,0.404 -0.33,0.264 -0.496,0.673 -0.606,1.148 -0.173,0.003 -0.415,0.066 -0.596,0.106 -0.223,0.05 -0.38,0.085 -0.614,0.131 -0.238,0.047 -0.376,0.085 -0.614,0.132 -0.199,0.039 -0.442,0.109 -0.632,0.113 -0.16,-0.239 -0.326,-0.44 -0.588,-0.597 -1.741,-1.046 -3.271,0.992 -2.745,2.088l-2.097 1.455c-0.135,0.093 -0.169,0.134 -0.315,0.212 -0.244,-0.13 -0.42,-0.259 -0.752,-0.302 -0.872,-0.111 -1.707,0.31 -2.038,1.152 -0.228,0.581 -0.125,1.186 0.171,1.68 0.114,0.189 0.352,0.444 0.543,0.554 1.618,0.933 2.865,-0.515 2.865,-1.33l-0.043 -0.746c0.309,-0.164 0.873,-0.609 1.192,-0.825 0.21,-0.142 0.389,-0.262 0.593,-0.415l0.583 -0.426c1.465,0.981 2.872,-0.295 2.894,-1.272 0.224,0 0.409,-0.069 0.632,-0.113 0.339,-0.067 1.643,-0.369 1.868,-0.369 0.057,0.215 0.255,0.351 0.38,0.452 1.36,1.104 2.996,-0.171 2.996,-1.198l0 -0.395c0,-0.536 -0.407,-0.38 0.608,-1.19l2.199 -1.967c1.276,0.675 2.763,-0.231 2.763,-1.623 0,-1.596 -1.896,-2.492 -3.169,-1.327 -0.148,0.135 -0.275,0.362 -0.375,0.546 -0.09,0.163 -0.184,0.546 -0.184,0.781z"/>
   <path class="fil0" d="M11.183 10.453l0 10.086c0,0.263 0.309,0.526 0.57,0.526l3.113 0c0.505,0 0.658,-0.426 0.658,-0.877l0 -9.428c0,-0.628 -0.248,-0.877 -0.877,-0.877l-2.631 0c-0.413,0 -0.833,0.157 -0.833,0.57z"/>
   <path class="fil0" d="M5.613 11.724l0 8.683c0,0.391 0.268,0.658 0.658,0.658l3.026 0c0.39,0 0.658,-0.267 0.658,-0.658l0 -8.683c0,-0.247 -0.279,-0.57 -0.527,-0.57l-3.288 0c-0.264,0 -0.527,0.31 -0.527,0.57z"/>
   <path class="fil0" d="M0 15.715l0 4.473c0,0.452 0.153,0.877 0.658,0.877l3.113 0c0.261,0 0.57,-0.263 0.57,-0.526l0 -5.175c0,-0.258 -0.262,-0.526 -0.614,-0.526l-3.069 0c-0.488,0 -0.658,0.383 -0.658,0.877z"/>
  </g>
 </g>
</svg>
