<?xml version="1.0" encoding="UTF-8"?>
<!DOCTYPE svg PUBLIC "-//W3C//DTD SVG 1.1//EN" "http://www.w3.org/Graphics/SVG/1.1/DTD/svg11.dtd">
<!-- Creator: CorelDRAW 2021 (64-Bit) -->
<svg xmlns="http://www.w3.org/2000/svg" xml:space="preserve" width="55px" height="55px" version="1.1" style="shape-rendering:geometricPrecision; text-rendering:geometricPrecision; image-rendering:optimizeQuality; fill-rule:evenodd; clip-rule:evenodd"
viewBox="0 0 5.056 5.096"
 xmlns:xlink="http://www.w3.org/1999/xlink"
 xmlns:xodm="http://www.corel.com/coreldraw/odm/2003">
 <defs>
  <style type="text/css">
   <![CDATA[
    .fil0 {fill:#6200EE}
   ]]>
  </style>
 </defs>
 <g id="Layer_x0020_1">
  <metadata id="CorelCorpID_0Corel-Layer"/>
  <g id="_1620893044016">
   <path class="fil0" d="M0 0.06l0 0.378c0,0.059 0.04,0.08 0.1,0.08l3.971 0 0 1.921c-0.03,-0.022 -0.08,-0.101 -0.122,-0.137 -0.047,-0.039 -0.104,-0.085 -0.157,-0.112 -0.219,-0.113 -0.384,-0.148 -0.644,-0.087 -0.291,0.067 -0.43,0.289 -0.48,0.326 0,-0.216 0.017,-1.034 -0.016,-1.179 -0.115,-0.496 -0.742,-0.732 -1.156,-0.322 -0.109,0.107 -0.21,0.291 -0.196,0.5 0.018,0.257 0.004,1.034 0.004,1.389l0 0.099c-0.121,0 -0.209,-0.021 -0.209,0.07 0,0.132 0.17,0.028 0.204,0.084 0.015,0.024 -0.002,0.107 0.008,0.141 0.014,0.047 0.05,0.04 0.102,0.048 0.361,0.054 0.359,0.506 0.093,0.612 -0.251,0.099 -0.433,-0.093 -0.446,-0.249 -0.003,-0.035 -0.003,-0.118 -0.081,-0.118 -0.151,0 -0.056,0.424 0.261,0.516 0.083,0.024 0.068,-0.022 0.068,0.22 -0.083,0 -0.398,-0.01 -0.454,0.014 -0.021,0.009 -0.044,0.031 -0.044,0.056l0 0.707c0,0.048 0.032,0.079 0.08,0.079l0.975 0c0.047,0 0.07,-0.023 0.07,-0.069l0 -0.727c0,-0.049 -0.068,-0.06 -0.119,-0.06l-0.369 0 0 -0.209c0.297,0 0.554,-0.467 0.277,-0.764 -0.08,-0.085 -0.146,-0.121 -0.277,-0.152l0 -0.059c0.121,0 0.209,0.022 0.209,-0.08 0,-0.08 -0.141,-0.06 -0.209,-0.06l0 -1.085c0.071,0.048 0.127,0.167 0.365,0.233 0.231,0.064 0.436,0 0.611,-0.133 0.041,-0.031 0.069,-0.073 0.109,-0.1 0,0.194 0.01,0.878 -0.014,1.041 -0.014,0.095 0.013,0.234 0.038,0.31 0.113,0.346 0.437,0.6 0.812,0.6 0.2,0 0.409,-0.081 0.546,-0.201l0.124 -0.125c0.073,-0.083 0.137,-0.222 0.162,-0.335 0.038,-0.169 0.014,-0.278 0.014,-0.463l0 -2.14 0.747 0c0.059,0 0.099,-0.021 0.099,-0.08l0 -0.378c0,-0.033 -0.043,-0.06 -0.079,-0.06l-4.917 0c-0.024,0 -0.06,0.036 -0.06,0.06z"/>
   <path class="fil0" d="M3.096 2.896c0,0.111 0,0.146 0.086,0.232 0.116,0.115 0.287,0.088 0.379,-0.005 0.02,-0.019 0.043,-0.056 0.056,-0.084 0.12,-0.279 -0.225,-0.516 -0.435,-0.314 -0.041,0.039 -0.086,0.096 -0.086,0.171z"/>
   <path class="fil0" d="M1.782 1.403c0,0.266 0.405,0.265 0.405,0 0,-0.098 -0.083,-0.199 -0.186,-0.199 -0.068,0 -0.119,0.008 -0.167,0.063 -0.022,0.025 -0.052,0.091 -0.052,0.136z"/>
   <path class="fil0" d="M1.234 4.748l0.279 0 0 -0.13c0,-0.022 -0.007,-0.029 -0.03,-0.029l-0.249 0 0 0.159z"/>
  </g>
 </g>
</svg>
