<?xml version="1.0" encoding="UTF-8"?>
<!DOCTYPE svg PUBLIC "-//W3C//DTD SVG 1.1//EN" "http://www.w3.org/Graphics/SVG/1.1/DTD/svg11.dtd">
<!-- Creator: CorelDRAW 2021 (64-Bit) -->
<svg xmlns="http://www.w3.org/2000/svg" xml:space="preserve" width="59px" height="59px" version="1.1" style="shape-rendering:geometricPrecision; text-rendering:geometricPrecision; image-rendering:optimizeQuality; fill-rule:evenodd; clip-rule:evenodd"
viewBox="0 0 3.097 3.097"
 xmlns:xlink="http://www.w3.org/1999/xlink"
 xmlns:xodm="http://www.corel.com/coreldraw/odm/2003">
 <defs>
  <style type="text/css">
   <![CDATA[
    .fil0 {fill:#6200EE}
   ]]>
  </style>
 </defs>
 <g id="Layer_x0020_1">
  <metadata id="CorelCorpID_0Corel-Layer"/>
  <g id="_1619009610592">
   <path class="fil0" d="M0.72 0.544c0.016,0.005 0.044,0.023 0.059,0.032l0.177 0.102c0.004,-0.015 0.012,-0.026 0.021,-0.04 0.009,-0.016 0.013,-0.024 0.021,-0.039l0.014 -0.023c0.014,-0.019 0.022,-0.014 0.064,-0.026l0.244 -0.066c0.033,-0.009 0.061,0.023 0.12,0.054 0.029,0.016 0.142,0.086 0.163,0.091 -0.005,0.019 -0.043,0.081 -0.056,0.102 -0.072,0.121 -0.068,0.085 -0.032,0.21 0.03,0.106 -0.005,0.051 0.173,0.16 0.017,0.01 0.028,0.019 0.048,0.024 -0.009,0.035 -0.051,0.08 -0.06,0.115 0.043,0 0.069,0.004 0.103,0.006l0.102 0.006c0.008,-0.029 0.169,-0.284 0.176,-0.314l0.362 0.019c0.043,0.005 0.037,0.02 0.037,-0.092 0,-0.169 -0.079,-0.354 -0.167,-0.48 -0.061,-0.089 -0.186,-0.21 -0.283,-0.262 -0.175,-0.095 -0.274,-0.123 -0.494,-0.123 -0.294,0 -0.592,0.197 -0.734,0.434 -0.023,0.038 -0.038,0.072 -0.058,0.11z"/>
   <path class="fil0" d="M0 3.097l0.913 0c0,-0.109 0,-0.217 0,-0.326 0,-0.129 0.009,-0.207 -0.031,-0.302 -0.062,-0.152 -0.209,-0.271 -0.374,-0.285l0.009 -0.004c0.005,-0.001 0.008,-0.002 0.014,-0.004 0.008,-0.002 0.012,-0.002 0.023,-0.007 0.165,-0.063 0.259,-0.286 0.092,-0.456 -0.166,-0.167 -0.448,-0.035 -0.459,0.174 -0.004,0.089 0.021,0.155 0.062,0.199 0.021,0.022 0.041,0.043 0.068,0.059 0.04,0.024 0.047,0.02 0.082,0.033 0.001,0.001 0.003,0.002 0.004,0.002l0.008 0.004c-0.089,0.007 -0.175,0.051 -0.232,0.094 -0.172,0.129 -0.179,0.274 -0.179,0.454l0 0.033c0,0.11 0,0.221 0,0.332z"/>
   <path class="fil0" d="M3.097 3.097c0,-0.109 0,-0.217 0,-0.326l0 -0.142c-0.002,-0.054 -0.008,-0.101 -0.031,-0.16 -0.056,-0.149 -0.221,-0.272 -0.38,-0.285 0.008,-0.005 0.236,-0.048 0.224,-0.297 -0.004,-0.076 -0.04,-0.127 -0.086,-0.174 -0.128,-0.128 -0.348,-0.083 -0.429,0.071 -0.053,0.103 -0.035,0.23 0.032,0.302 0.021,0.022 0.041,0.043 0.068,0.059l0.094 0.039c-0.089,0.007 -0.174,0.052 -0.232,0.095 -0.063,0.047 -0.111,0.114 -0.142,0.19 -0.039,0.094 -0.031,0.168 -0.031,0.296 0,0.11 0,0.221 0,0.332l0.913 0z"/>
   <path class="fil0" d="M1.022 0.92c-0.021,-0.006 -0.068,-0.037 -0.089,-0.05 -0.039,-0.023 -0.247,-0.148 -0.274,-0.15 -0.001,0.05 -0.018,0.094 -0.018,0.242 0,0.115 0.047,0.263 0.087,0.343 0.049,0.098 0.105,0.178 0.178,0.251 0.073,0.074 0.153,0.129 0.251,0.178 0.218,0.109 0.518,0.118 0.74,0.018 0.095,-0.042 0.162,-0.082 0.237,-0.145 0.135,-0.114 0.25,-0.29 0.292,-0.47l-0.266 -0.018 -0.088 0.155c-0.015,0.026 -0.081,0.132 -0.088,0.16 -0.114,0 -0.196,-0.013 -0.302,-0.018l-0.224 -0.013c-0.037,0.001 -0.051,-0.005 -0.079,-0.006 0.005,-0.02 0.016,-0.033 0.027,-0.051l0.088 -0.154c-0.016,-0.005 -0.044,-0.022 -0.059,-0.032 -0.071,-0.042 -0.046,-0.008 -0.076,-0.117l-0.061 -0.224c-0.003,-0.021 0.052,-0.103 0.063,-0.123 -0.063,-0.017 0.01,-0.049 -0.207,0.016 -0.028,0.008 -0.019,0.008 -0.034,0.033 -0.017,0.031 -0.092,0.153 -0.098,0.175z"/>
   <path class="fil0" d="M1.276 2.262c0,0.149 0.076,0.234 0.203,0.276l0.017 0.007c0.001,0 0.003,0.001 0.004,0.002 -0.113,0.009 -0.203,0.067 -0.277,0.14 -0.041,0.042 -0.056,0.067 -0.084,0.122 -0.054,0.107 -0.044,0.17 -0.044,0.288l0.907 0c0,-0.113 0.009,-0.183 -0.042,-0.284 -0.046,-0.092 -0.109,-0.166 -0.202,-0.216 -0.038,-0.02 -0.11,-0.046 -0.161,-0.05 0.028,-0.018 0.062,0.001 0.15,-0.086 0.149,-0.148 0.072,-0.459 -0.21,-0.459 -0.136,0 -0.261,0.125 -0.261,0.26z"/>
  </g>
 </g>
</svg>
