<?xml version="1.0" encoding="UTF-8"?>
<!DOCTYPE svg PUBLIC "-//W3C//DTD SVG 1.1//EN" "http://www.w3.org/Graphics/SVG/1.1/DTD/svg11.dtd">
<!-- Creator: CorelDRAW 2021 (64-Bit) -->
<svg xmlns="http://www.w3.org/2000/svg" xml:space="preserve" width="56px" height="56px" version="1.1" style="shape-rendering:geometricPrecision; text-rendering:geometricPrecision; image-rendering:optimizeQuality; fill-rule:evenodd; clip-rule:evenodd"
viewBox="0 0 8.92 8.92"
 xmlns:xlink="http://www.w3.org/1999/xlink"
 xmlns:xodm="http://www.corel.com/coreldraw/odm/2003">
 <defs>
  <style type="text/css">
   <![CDATA[
    .fil0 {fill:#6200EE}
   ]]>
  </style>
 </defs>
 <g id="Layer_x0020_1">
  <metadata id="CorelCorpID_0Corel-Layer"/>
  <g id="_1619035598448">
   <path class="fil0" d="M4.46 7.335c-0.359,0 -0.861,-0.105 -1.173,-0.256 -0.08,-0.038 -0.156,-0.073 -0.231,-0.117 -0.275,-0.163 -0.395,-0.25 -0.621,-0.477 -0.53,-0.529 -0.85,-1.24 -0.85,-2.025 0,-0.783 0.318,-1.493 0.85,-2.025 0.227,-0.228 0.326,-0.297 0.6,-0.463 0.832,-0.506 1.989,-0.512 2.829,-0.013 0.243,0.144 0.215,0.129 0.433,0.298 0.26,0.202 0.482,0.498 0.651,0.778 0.208,0.341 0.302,0.684 0.36,1.086 0.033,0.234 0.035,0.429 0.002,0.663 -0.092,0.653 -0.261,1.016 -0.647,1.513 -0.356,0.458 -0.981,0.828 -1.551,0.958 -0.168,0.038 -0.477,0.08 -0.652,0.08zm-0.067 -7.335l0.142 0c0.166,0.017 0.331,0.094 0.495,0.232l0.392 0.356c0.179,0.167 0.154,0.128 0.244,0.115 0.102,-0.015 0.245,-0.021 0.345,-0.023 0.424,-0.011 0.768,-0.167 1.14,0.114 0.263,0.198 0.313,0.521 0.38,0.839 0.108,0.516 0.079,0.43 0.327,0.579 0.065,0.038 0.118,0.07 0.186,0.111 0.492,0.293 0.876,0.425 0.876,1.005 0,0.291 -0.4,1.004 -0.4,1.115 0,0.064 0.278,0.721 0.325,0.824 0.042,0.094 0.068,0.192 0.075,0.29l0 0.126c-0.01,0.131 -0.053,0.258 -0.129,0.372 -0.157,0.235 -0.575,0.431 -0.861,0.604 -0.389,0.234 -0.264,0.084 -0.39,0.585 -0.031,0.124 -0.059,0.257 -0.093,0.394 -0.1,0.396 -0.402,0.664 -0.797,0.641l-0.908 -0.066c-0.085,-0.013 -0.154,-0.022 -0.207,0.022 -0.137,0.112 -0.536,0.494 -0.653,0.567 -0.11,0.069 -0.24,0.109 -0.372,0.118l-0.113 0c-0.098,-0.007 -0.194,-0.031 -0.28,-0.075 -0.135,-0.068 -0.21,-0.149 -0.315,-0.243l-0.391 -0.34c-0.042,-0.044 -0.037,-0.055 -0.118,-0.058l-0.68 0.054c-0.31,0.004 -0.606,0.084 -0.867,-0.161 -0.282,-0.264 -0.259,-0.424 -0.359,-0.825 -0.121,-0.485 -0.043,-0.406 -0.232,-0.518 -0.04,-0.023 -0.058,-0.034 -0.098,-0.058l-0.557 -0.331c-0.131,-0.078 -0.244,-0.14 -0.334,-0.259 -0.104,-0.139 -0.153,-0.271 -0.166,-0.4l0 -0.139c0.017,-0.19 0.101,-0.379 0.192,-0.584 0.034,-0.076 0.209,-0.479 0.209,-0.54l-0.334 -0.816c-0.04,-0.099 -0.063,-0.207 -0.067,-0.315l0 -0.058c0.006,-0.167 0.059,-0.33 0.17,-0.453 0.165,-0.184 0.68,-0.463 0.927,-0.607 0.111,-0.065 0.093,-0.026 0.13,-0.165l0.299 -0.921c0.085,-0.247 0.396,-0.481 0.721,-0.481 0.23,0 0.468,0.049 0.697,0.052 0.363,0.005 0.35,0.087 0.467,-0.02l0.489 -0.435c0.164,-0.132 0.328,-0.207 0.493,-0.224z"/>
   <path class="fil0" d="M4.199 4.878c0.079,-0.053 1.002,-0.994 1.154,-1.145 0.157,-0.157 0.286,-0.342 0.456,-0.31 0.177,0.033 0.317,0.256 0.119,0.449l-1.541 1.542c-0.07,0.071 -0.153,0.112 -0.272,0.072 -0.107,-0.036 -0.865,-0.834 -0.983,-0.952 -0.051,-0.05 -0.155,-0.142 -0.191,-0.192 -0.125,-0.172 0.029,-0.438 0.255,-0.396 0.116,0.022 0.155,0.094 0.223,0.161 0.118,0.119 0.704,0.721 0.78,0.771zm-2.091 -0.54c0,0.446 0.029,0.741 0.227,1.133 0.03,0.06 0.057,0.123 0.094,0.184 0.142,0.236 0.176,0.24 0.299,0.398 0.083,0.107 0.256,0.252 0.369,0.327 0.059,0.039 0.107,0.074 0.168,0.111 0.712,0.431 1.678,0.431 2.39,0 0.439,-0.265 0.702,-0.568 0.931,-1.02 0.388,-0.77 0.27,-1.663 -0.206,-2.373 -0.145,-0.218 -0.237,-0.281 -0.4,-0.437 -0.05,-0.048 -0.099,-0.081 -0.157,-0.121l-0.352 -0.205c-0.77,-0.389 -1.663,-0.271 -2.373,0.205 -0.057,0.038 -0.109,0.075 -0.158,0.121 -0.055,0.053 -0.094,0.076 -0.148,0.131 -0.379,0.379 -0.684,1.008 -0.684,1.546z"/>
  </g>
 </g>
</svg>
