<?xml version="1.0" encoding="UTF-8"?>
<!DOCTYPE svg PUBLIC "-//W3C//DTD SVG 1.1//EN" "http://www.w3.org/Graphics/SVG/1.1/DTD/svg11.dtd">
<!-- Creator: CorelDRAW 2021 (64-Bit) -->
<svg xmlns="http://www.w3.org/2000/svg" xml:space="preserve" width="50px" height="50px" version="1.1" style="shape-rendering:geometricPrecision; text-rendering:geometricPrecision; image-rendering:optimizeQuality; fill-rule:evenodd; clip-rule:evenodd"
viewBox="0 0 4.148 4.149"
 xmlns:xlink="http://www.w3.org/1999/xlink"
 xmlns:xodm="http://www.corel.com/coreldraw/odm/2003">
 <defs>
  <style type="text/css">
   <![CDATA[
    .fil0 {fill:#6200EE}
   ]]>
  </style>
 </defs>
 <g id="Layer_x0020_1">
  <metadata id="CorelCorpID_0Corel-Layer"/>
  <g id="_1619033727648">
   <path class="fil0" d="M3.213 4.149c0.168,0 0.278,-0.011 0.426,-0.084 0.079,-0.038 0.19,-0.111 0.252,-0.174 0.139,-0.139 0.257,-0.38 0.257,-0.585 0,-0.166 -0.006,-0.257 -0.074,-0.407 -0.057,-0.128 -0.081,-0.142 -0.157,-0.241 -0.106,-0.139 -0.662,-0.43 -0.85,-0.539 -0.13,-0.076 -0.198,0.037 -0.24,0.107 -0.169,0.282 -0.338,0.599 -0.508,0.88 -0.027,0.044 -0.047,0.079 -0.072,0.123 -0.027,0.048 -0.048,0.081 -0.074,0.129 -0.046,0.085 -0.128,0.175 -0.037,0.275 0.034,0.037 0.703,0.414 0.756,0.438 0.08,0.038 0.208,0.078 0.321,0.078z"/>
   <path class="fil0" d="M0 3.213c0,0.171 0.009,0.272 0.08,0.42 0.026,0.054 0.046,0.092 0.077,0.136 0.153,0.215 0.419,0.38 0.686,0.38 0.304,0 0.414,-0.067 0.663,-0.216 0.086,-0.052 0.168,-0.097 0.253,-0.146 0.044,-0.025 0.223,-0.124 0.249,-0.149 0.098,-0.098 0.008,-0.207 -0.029,-0.274 -0.049,-0.087 -0.099,-0.167 -0.146,-0.252l-0.505 -0.875c-0.036,-0.061 -0.102,-0.192 -0.235,-0.125l-0.569 0.329c-0.216,0.13 -0.335,0.211 -0.447,0.451 -0.037,0.08 -0.077,0.209 -0.077,0.321z"/>
   <path class="fil0" d="M2.222 0.352l0 0.482c0,0.062 0.059,0.104 0.105,0.126 0.587,0.289 0.374,0.3 0.938,0.019 0.185,-0.092 0.142,-0.122 0.142,-0.506 0.081,-0.043 0.162,-0.081 0.247,-0.124 0.118,-0.059 0.198,-0.076 0.198,-0.2 0,-0.104 -0.104,-0.18 -0.219,-0.127 -0.091,0.042 -0.175,0.087 -0.266,0.133 -0.128,0.064 -0.08,0.063 -0.262,-0.028 -0.348,-0.174 -0.237,-0.171 -0.624,0.022 -0.097,0.049 -0.259,0.104 -0.259,0.203z"/>
   <path class="fil0" d="M0.296 0.149c0,0.124 0.08,0.141 0.198,0.2 0.085,0.043 0.166,0.081 0.247,0.124 0,0.105 0,0.21 0,0.315 -0.002,0.12 0.037,0.139 0.136,0.188 0.06,0.03 0.402,0.21 0.438,0.21 0.1,0 0.234,-0.09 0.352,-0.149 0.052,-0.026 0.099,-0.05 0.154,-0.077 0.046,-0.022 0.105,-0.064 0.105,-0.126l0 -0.482c0,-0.062 -0.059,-0.104 -0.105,-0.126 -0.055,-0.027 -0.102,-0.051 -0.154,-0.077 -0.385,-0.193 -0.277,-0.196 -0.618,-0.025 -0.192,0.096 -0.143,0.093 -0.268,0.031 -0.162,-0.081 -0.299,-0.187 -0.408,-0.134 -0.042,0.021 -0.077,0.068 -0.077,0.128z"/>
   <path class="fil0" d="M1.482 1.389l0 0.482c0,0.094 0.127,0.138 0.197,0.173 0.085,0.042 0.166,0.08 0.247,0.123l0.296 0c0.081,-0.043 0.162,-0.081 0.247,-0.123 0.07,-0.035 0.198,-0.079 0.198,-0.173l0 -0.482c0,-0.099 -0.162,-0.154 -0.26,-0.203 -0.425,-0.213 -0.25,-0.203 -0.821,0.077 -0.046,0.022 -0.104,0.064 -0.104,0.126z"/>
  </g>
 </g>
</svg>
