<?xml version="1.0" encoding="UTF-8"?>
<!DOCTYPE svg PUBLIC "-//W3C//DTD SVG 1.1//EN" "http://www.w3.org/Graphics/SVG/1.1/DTD/svg11.dtd">
<!-- Creator: CorelDRAW 2021 (64-Bit) -->
<svg xmlns="http://www.w3.org/2000/svg" xml:space="preserve" width="61px" height="50px" version="1.1" style="shape-rendering:geometricPrecision; text-rendering:geometricPrecision; image-rendering:optimizeQuality; fill-rule:evenodd; clip-rule:evenodd"
viewBox="0 0 20.364 16.591"
 xmlns:xlink="http://www.w3.org/1999/xlink"
 xmlns:xodm="http://www.corel.com/coreldraw/odm/2003">
 <defs>
  <style type="text/css">
   <![CDATA[
    .fil0 {fill:#6200EE}
   ]]>
  </style>
 </defs>
 <g id="Layer_x0020_1">
  <metadata id="CorelCorpID_0Corel-Layer"/>
  <g id="_1622021040064">
   <path class="fil0" d="M12.21 14.586c-2.716,0 -4.723,-1.412 -5.794,-3.553 -1.177,-2.354 -0.649,-5.297 1.25,-7.196 1.836,-1.836 4.799,-2.378 7.064,-1.237 1.04,0.525 1.866,1.138 2.524,2.13 1.24,1.871 1.489,4.011 0.576,6.129 -0.2,0.463 -0.562,1.035 -0.88,1.426 -0.07,0.085 -0.115,0.115 -0.189,0.209 -0.265,0.342 -0.358,0.356 -0.583,0.57 -0.246,0.234 -0.612,0.475 -0.903,0.649 -0.819,0.491 -1.935,0.873 -3.065,0.873zm8.154 -6.736l0 0.933c-0.056,0.977 -0.291,1.955 -0.715,2.9 -0.207,0.46 -0.389,0.8 -0.661,1.208 -0.754,1.134 -1.758,2.037 -2.947,2.702 -0.817,0.457 -1.867,0.789 -2.812,0.926 -1.105,0.16 -2.443,0.042 -3.361,-0.228 -1.278,-0.375 -2.121,-0.842 -3.079,-1.613 -0.379,-0.305 -0.569,-0.628 -0.782,-0.65 -0.68,-0.073 -2.489,0.161 -3.105,-0.157 -0.952,-0.491 -0.919,-1.781 -0.077,-2.267 0.451,-0.261 0.868,-0.2 1.55,-0.2 -0.054,-0.234 -0.235,-0.67 -0.34,-1.092 -0.118,-0.473 -0.14,-0.888 -0.217,-1.215 -0.841,0 -1.709,0.021 -2.547,0.001 -0.755,-0.017 -1.224,-0.6 -1.271,-1.218l0 -0.203c0.025,-0.323 0.167,-0.64 0.449,-0.876 0.272,-0.229 0.492,-0.291 0.983,-0.289 0.848,0.003 1.697,0 2.545,0 0.166,-0.345 0.111,-0.827 0.915,-2.347 -0.673,0 -1.714,0.063 -2.342,-0.004 -0.625,-0.067 -1.118,-0.591 -1.118,-1.348 0,-0.512 0.34,-0.912 0.754,-1.115 0.288,-0.142 0.422,-0.118 0.837,-0.118l3.699 0c0.494,0 0.432,0.047 0.748,-0.167 1.381,-0.939 3.569,-1.703 5.894,-1.305 0.992,0.17 1.922,0.46 2.782,0.956 0.916,0.528 1.862,1.305 2.496,2.158 1.036,1.39 1.627,2.991 1.722,4.628z"/>
   <path class="fil0" d="M11.494 4.722l1.154 0 0 2.983 1.83 0 0 1.193 -2.984 0 0 -4.176zm-4.534 3.579c0,1.413 0.59,2.702 1.51,3.622 1.472,1.472 3.738,1.929 5.649,1.071 1.404,-0.63 2.461,-1.805 2.881,-3.283 0.532,-1.868 -0.038,-3.746 -1.379,-5.099 -0.845,-0.852 -2.255,-1.441 -3.49,-1.441 -2.839,0 -5.171,2.298 -5.171,5.13z"/>
  </g>
 </g>
</svg>
