<?xml version="1.0" encoding="UTF-8"?>
<!DOCTYPE svg PUBLIC "-//W3C//DTD SVG 1.1//EN" "http://www.w3.org/Graphics/SVG/1.1/DTD/svg11.dtd">
<!-- Creator: CorelDRAW 2021 (64-Bit) -->
<svg xmlns="http://www.w3.org/2000/svg" xml:space="preserve" width="80px" height="80px" version="1.1" style="shape-rendering:geometricPrecision; text-rendering:geometricPrecision; image-rendering:optimizeQuality; fill-rule:evenodd; clip-rule:evenodd"
viewBox="0 0 80 80"
 xmlns:xlink="http://www.w3.org/1999/xlink"
 xmlns:xodm="http://www.corel.com/coreldraw/odm/2003">
 <defs>
  <style type="text/css">
   <![CDATA[
    .fil0 {fill:white}
    .fil1 {fill:white}
   ]]>
  </style>
 </defs>
 <g id="Layer_x0020_1">
  <metadata id="CorelCorpID_0Corel-Layer"/>
  <g id="_2403815223328">
   <path class="fil0" d="M-110.669 20.502c0.068,-0.825 0.419,-2.171 0.575,-2.951 0.104,-0.521 0.15,-0.891 0.275,-1.412 0.179,-0.753 0.236,-0.654 0.719,-1.12 2.909,-2.81 20.352,-20.607 21.299,-21.171 1.348,-0.803 4.116,-0.695 4.116,2.736 0,1.357 -4.822,5.666 -5.941,6.784l-12.725 12.726c-4.039,4.039 -2.424,3.207 -5.648,3.859 -0.955,0.192 -1.797,0.346 -2.67,0.549zm-5.366 2.913c0,1.365 1.153,2.432 2.431,2.399 0.904,-0.023 2.997,-0.556 4.098,-0.776 1.436,-0.288 2.663,-0.484 4.111,-0.795 2.156,-0.464 1.965,-0.476 3.273,-1.786 0.788,-0.788 9.357,-9.494 10.005,-9.928l-0.037 10.85c-0.414,3.056 -2.527,5.096 -5.79,5.096l-40.476 0c-3.089,0 -5.673,-2.287 -5.673,-5.06l0 -59.182c0,-2.773 2.584,-5.059 5.673,-5.059l40.476 0c3.419,0 5.827,2.407 5.827,5.826l0 26.218c0,0.522 -6.393,6.623 -6.862,7.091l-14.028 14.029c-0.851,0.845 -1.005,0.803 -1.28,2.247 -0.205,1.074 -0.371,1.869 -0.586,2.94l-1.162 5.89zm-32.811 -58.875l0 58.569c0,5.315 4.625,9.965 9.506,9.965l42.47 0c3.269,0 6.757,-2.482 8.23,-5.415 1.002,-1.994 1.122,-2.733 1.122,-5.624 0,-3.275 -0.157,-10.956 -0.011,-13.657 0.046,-0.865 0.423,-0.937 1.429,-1.943 3.151,-3.15 7.168,-6.02 7.168,-10.157 0,-4.079 -3.184,-7.513 -7.206,-7.513l-1.38 0 0 -24.838c0,-1.319 -0.505,-2.703 -0.969,-3.631 -1.559,-3.125 -4.947,-5.722 -8.383,-5.722l-42.47 0c-4.851,0 -9.506,4.618 -9.506,9.966z"/>
   <path class="fil0" d="M-138.114 -10.315c0,1.226 1.038,2.299 2.3,2.299l35.571 0c2.504,0 2.847,-4.599 -0.307,-4.599l-35.417 0c-1.052,0 -2.147,1.222 -2.147,2.3z"/>
   <path class="fil0" d="M-127.228 -20.281c0,1.568 1.173,2.453 2.76,2.453l23.458 0c3.849,0 3.422,-4.753 0.307,-4.753l-24.072 0c-1.3,0 -2.453,1.056 -2.453,2.3z"/>
   <path class="fil0" d="M-127.228 -30.094c0,1.365 1.267,2.3 2.453,2.3l24.072 0c0.713,0 1.305,-0.28 1.68,-0.619 1.662,-1.504 0.507,-4.134 -1.834,-4.134l-23.764 0c-1.431,0 -2.607,0.999 -2.607,2.453z"/>
   <path class="fil0" d="M-127.228 -0.35c0,1.274 1.169,2.3 2.147,2.3l11.039 0c2.765,0 3.735,-4.753 -0.92,-4.753l-9.046 0c-1.831,0 -3.22,0.636 -3.22,2.453z"/>
   <path class="fil0" d="M-138.114 -20.281c0,2.806 3.187,2.453 4.753,2.453 3.818,0 3.446,-4.753 0.307,-4.753 -1.661,0 -3.354,-0.267 -4.263,0.643 -0.332,0.332 -0.797,1.067 -0.797,1.657z"/>
   <path class="fil0" d="M-138.114 -0.35c0,2.78 3.521,2.3 5.367,2.3 2.446,0 3.676,-4.753 -1.074,-4.753 -1.824,0 -4.293,0.039 -4.293,2.453z"/>
   <path class="fil0" d="M-138.114 -30.247c0,2.863 3.055,2.453 4.753,2.453 3.131,0 3.497,-4.753 -0.46,-4.753 -1.148,0 -2.512,-0.115 -3.406,0.58 -0.345,0.268 -0.887,1.213 -0.887,1.72z"/>
  </g>
  <g id="_2403815275792">
   <path class="fil1" d="M-196.016 35.24l23.463 0 0 5.214 -23.463 0 0 -5.214zm-4.754 -23.922c0,-1.286 0.568,-1.381 1.534,-1.381 1.503,0 2.771,6.748 5.827,6.748 2.031,0 2.765,-1.595 2.766,-3.675l-0.007 -16.109c-0.012,-1.896 0.033,-2.145 1.535,-2.145 1.177,0 0.92,2.134 0.92,3.373l-0.006 8.901c-0.01,1.827 0.559,2.106 2.306,2.141l8.085 0.655c1.676,0.219 2.279,0.019 3.605,0.843 0.793,0.494 1.652,1.576 1.652,2.796l0 11.348c0,2.467 -2.607,2.616 -2.607,7.667l-17.789 0c-0.958,0 0.188,-1.701 -1.683,-5.524 -1.486,-3.037 -0.838,-1.356 -2.259,-4.949 -0.347,-0.878 -0.648,-1.753 -0.947,-2.58l-2.932 -8.109zm7.361 2.453c-0.024,-0.027 -0.057,-0.111 -0.066,-0.087 -0.009,0.023 -0.053,-0.069 -0.065,-0.088 -0.121,-0.174 -0.079,-0.11 -0.185,-0.275 -1.743,-2.705 -2.637,-6.144 -5.818,-6.144 -2.077,0 -3.987,1.902 -3.987,3.987 0,1.196 3.741,10.81 4.276,12.286 0.828,2.283 0.669,1.858 1.705,3.816l-40.332 0 0 -49.532 73.302 0 0 49.532 -5.827 0c0.322,-0.672 0.613,-1.758 0.613,-2.76l0 -10.735c0,-3.196 -2.402,-5.683 -5.021,-6.327 -1.394,-0.343 -3.505,-0.265 -5.165,-0.509 -0.751,-0.11 -1.998,-0.2 -2.695,-0.218 -0.984,-0.025 -1.605,-0.153 -2.761,-0.153l0 -10.121c0,-5.18 -6.245,-5.989 -7.808,-1.675 -0.407,1.121 -0.166,17.032 -0.166,19.003zm-44.472 -46.618l73.302 0 0 7.82 -73.302 0 0 -7.82zm75.909 -2.607l-78.516 0 0 65.48 44.165 0c0.068,0.814 0.307,1.519 0.307,2.454l-2.607 0 0 10.581 28.83 0 0 -10.581 -2.607 0c0,-0.41 -0.032,-0.972 0.016,-1.364 0.052,-0.428 0.19,-0.659 0.291,-1.09l10.121 0 0 -65.48z"/>
   <path class="fil1" d="M-224.846 -8.618l-3.031 -2.949 -1.757 1.842c0.21,0.681 4.787,4.786 4.788,4.787l3.175 -2.652c0.503,-0.426 1.48,-1.492 2.039,-1.641l0 5.06 -10.274 0 0 -10.274 10.274 0c0,2.424 -0.113,1.376 -2.492,3.642 -0.447,0.425 -0.836,0.728 -1.306,1.147 -0.381,0.34 -0.972,0.92 -1.416,1.038zm-7.821 7.207l15.795 0 0 -10.121c0,-0.451 1.362,-1.329 1.723,-1.651 0.688,-0.612 1.483,-1.095 1.651,-1.722l-1.687 -1.841c-0.618,0.538 -0.978,0.907 -1.687,1.381l0 -1.841 -15.795 0 0 15.795z"/>
   <path class="fil1" d="M-224.846 12.391l-2.876 -2.951 -1.915 1.841 4.674 4.754c1.318,-0.866 4.167,-3.631 5.331,-4.411l0 5.214 -10.274 0 0 -10.428 10.274 0c0,2.328 0.252,1.289 -1.876,3.185 -0.275,0.245 -0.324,0.336 -0.642,0.584 -0.979,0.762 -1.689,1.538 -2.696,2.212zm-7.821 7.207l15.795 0 0 -10.121c0,-0.587 3.104,-2.936 3.528,-3.22 -0.182,-0.272 -0.506,-0.652 -0.744,-0.943 -0.362,-0.44 -0.639,-0.483 -0.79,-1.05 -0.802,0.066 -1.141,0.809 -1.994,1.38l0 -1.84 -15.795 0 0 15.794z"/>
   <polygon class="fil1" points="-201.23,-9.231 -169.793,-9.231 -169.793,-11.992 -201.23,-11.992 "/>
   <polygon class="fil1" points="-193.409,-14.445 -169.793,-14.445 -169.793,-17.206 -193.409,-17.206 "/>
   <polygon class="fil1" points="-182.981,2.577 -169.793,2.577 -169.793,-0.184 -182.981,-0.184 "/>
   <path class="fil1" d="M-182.981 -3.097c0,0.353 0.107,0.46 0.46,0.46l12.728 0 0 -2.761 -13.188 0 0 2.301z"/>
   <polygon class="fil1" points="-201.23,-14.445 -196.016,-14.445 -196.016,-17.206 -201.23,-17.206 "/>
   <polygon class="fil1" points="-201.23,2.577 -196.016,2.577 -196.016,-0.184 -201.23,-0.184 "/>
   <polygon class="fil1" points="-201.23,-2.637 -196.016,-2.637 -196.016,-5.398 -201.23,-5.398 "/>
   <path class="fil1" d="M-224.846 -27.94c0,0.681 0.716,0.46 2.3,0.46 0.72,0 0.46,-0.942 0.46,-2.76l-2.76 0 0 2.3z"/>
   <path class="fil1" d="M-230.06 -27.94c0,0.681 0.716,0.46 2.301,0.46 0.72,0 0.46,-0.942 0.46,-2.76l-2.761 0 0 2.3z"/>
   <path class="fil1" d="M-235.274 -27.94c0,0.681 0.716,0.46 2.301,0.46 0.681,0 0.46,-0.716 0.46,-2.301 0,-0.72 -0.942,-0.459 -2.761,-0.459l0 2.3z"/>
  </g>
  <g id="_2403815274448">
   <path class="fil0" d="M200.658 42.039l0 -9.232 4.817 0c0,8.036 1.126,11.239 -2.809,11.239 -0.936,0 -2.008,-1.071 -2.008,-2.007zm-8.429 -16.859c2.899,0 4.873,0.328 6.772,-0.855 1.18,-0.734 2.862,-2.965 2.862,-4.765l0 -19.67 2.408 0 0 19.67c0,1.8 1.682,4.031 2.862,4.765 1.899,1.183 3.873,0.855 6.772,0.855 -0.728,2.727 -9.579,7.186 -17.267,3.619l-3.623 -2.399c-1.112,-1.091 -0.139,0.011 -0.786,-1.22zm18.465 -16.459c0,1.898 3.116,1.205 6.423,1.205 0.44,0.917 0.62,1.554 0.892,2.791 1.227,5.588 -7.315,-0.063 -7.315,3.631 0,2.173 4.908,1.606 7.226,1.606 -0.427,1.833 -1.235,3.224 -1.606,4.817 -2.559,0 -5.079,0.192 -7.074,-0.553 -2.517,-0.941 -2.183,-2.696 -2.162,-5.867 0.035,-5.215 0.003,-10.442 0.003,-15.658 3.174,0.264 8.104,4.101 8.832,6.824 -2.017,0 -5.219,-0.66 -5.219,1.204zm-11.641 -8.028c0,5.216 -0.032,10.443 0.003,15.658 0.041,6.152 -0.387,6.42 -9.236,6.42 -0.371,-1.593 -1.179,-2.984 -1.606,-4.817 2.318,0 7.226,0.567 7.226,-1.606 0,-2.262 -4.363,-0.783 -6.442,-1.212 -1.489,-0.308 -1.151,-1.021 -0.952,-2.075 0.253,-1.341 0.525,-2.206 0.971,-3.135 3.436,0 6.423,0.689 6.423,-1.205 0,-1.864 -3.202,-1.204 -5.218,-1.204 0.727,-2.723 5.657,-6.56 8.831,-6.824zm-1.204 31.311c0,6.351 -1.762,14.852 5.218,14.852 6.98,0 5.218,-8.501 5.218,-14.852 5.61,-0.467 13.943,-8.971 12.433,-19.656 -1.88,-13.299 -17.935,-20.452 -29.585,-10.744 -6.408,5.341 -7.954,15.666 -2.853,23.51 1.567,2.41 6.132,6.604 9.569,6.89z"/>
   <path class="fil0" d="M169.749 -18.174l6.325 -6.52c0.098,7.822 1.399,6.52 -6.325,6.52zm-4.817 1.605l0 35.727c0,1.984 1.629,3.613 3.612,3.613l14.05 0c1.074,0 1.188,-0.579 1.606,-1.204 -0.648,-2.427 -2.538,-1.606 -8.028,-1.606 -3.871,0 -8.43,0.763 -8.43,-1.204l0 -34.121c12.308,0 11.24,1.068 11.24,-11.24 22.712,0 20.13,-1.479 20.074,4.412 -0.039,4.122 -0.27,13.994 0.398,16.863 1.396,0 2.409,0.246 2.409,-1.204l0 -19.268c0,-3.18 -2.841,-3.613 -6.021,-3.613l-15.656 0c-4.745,0 -6.179,2.767 -8.731,5.319 -1.241,1.241 -6.523,5.985 -6.523,7.526z"/>
   <path class="fil0" d="M209.088 -18.174l6.326 -6.52c0.097,7.822 1.399,6.52 -6.326,6.52zm-4.817 2.408c0,10.93 -0.814,10.437 2.409,10.437 0.723,-3.104 0.401,-6.308 0.401,-10.035 12.309,0 11.24,1.068 11.24,-11.24l20.071 0 0 45.361c0,1.692 -1.811,1.247 -3.599,1.218l-9.678 -0.044c-2.261,-0.01 -2.692,-0.196 -3.181,1.636 0.418,0.625 0.532,1.204 1.605,1.204l14.05 0c1.467,0 3.212,-1.108 3.212,-2.409l0 -47.367c0,-2.158 -3.353,-2.409 -5.62,-2.409 -3.287,0 -15.669,-0.273 -18.135,0.33 -2.13,0.521 -3.46,2.599 -6.051,5.19 -1.302,1.302 -2.309,2.311 -3.613,3.612 -1.179,1.178 -3.111,2.446 -3.111,4.516z"/>
   <path class="fil0" d="M210.694 -4.124c0,0.939 0.666,1.605 1.606,1.605 4.917,0 18.591,0.505 22.479,-0.401 0,-1.396 0.246,-2.409 -1.204,-2.409l-21.677 0c-0.925,0 -1.204,0.28 -1.204,1.205z"/>
   <path class="fil0" d="M171.355 -2.92c3.888,0.906 17.562,0.401 22.479,0.401 1.775,0 2.435,-2.81 0.402,-2.81l-21.677 0c-1.45,0 -1.204,1.013 -1.204,2.409z"/>
   <path class="fil0" d="M210.694 -10.547c0,1.049 -0.031,1.606 1.204,1.606l21.677 0c1.712,0 1.712,-2.81 0,-2.81l-21.677 0c-0.925,0 -1.204,0.279 -1.204,1.204z"/>
   <path class="fil0" d="M171.355 -10.547c0,1.049 -0.032,1.606 1.204,1.606l21.677 0c1.712,0 1.712,-2.81 0,-2.81l-21.677 0c-0.925,0 -1.204,0.279 -1.204,1.204z"/>
   <path class="fil0" d="M219.124 2.298c0,1.235 1.176,1.606 2.409,1.606 3.924,0 9.623,0.443 13.246,-0.401 0,-3.584 -0.261,-2.409 -14.451,-2.409 -0.925,0 -1.204,0.279 -1.204,1.204z"/>
   <path class="fil0" d="M171.355 3.503c3.623,0.844 9.322,0.401 13.247,0.401 2.948,0 3.154,-2.81 1.204,-2.81 -14.19,0 -14.451,-1.175 -14.451,2.409z"/>
   <path class="fil0" d="M171.355 13.94c0,3.192 -0.517,2.408 10.035,2.408 0.9,0 0.881,-0.317 1.606,-0.803 -0.675,-2.897 -2.82,-2.007 -9.634,-2.007 -0.633,0 -1.521,0.213 -2.007,0.402z"/>
   <path class="fil0" d="M223.138 15.545c0.725,0.486 0.706,0.803 1.606,0.803 10.552,0 10.035,0.784 10.035,-2.408 -3.065,-0.714 -5.566,-0.402 -9.232,-0.402 -1.784,0 -2.07,0.554 -2.409,2.007z"/>
   <path class="fil0" d="M222.335 8.721c0,0.925 0.28,1.205 1.204,1.205l10.036 0c1.701,0 1.701,-2.409 0,-2.409l-10.036 0c-0.924,0 -1.204,0.279 -1.204,1.204z"/>
   <path class="fil0" d="M171.355 8.721c0,0.925 0.279,1.205 1.204,1.205l10.035 0c1.701,0 1.701,-2.409 0,-2.409l-10.035 0c-0.925,0 -1.204,0.279 -1.204,1.204z"/>
  </g>
  <g id="_2403815274592">
   <path class="fil0" d="M15.386 71.177c0.146,-0.611 0.359,-1.146 0.575,-1.778l1.802 -5.566 1.095 0.004c0.073,0.913 0.845,2.695 1.137,3.703 0.386,1.332 0.9,2.592 1.18,3.817l-2.829 3.118 -2.96 -3.298zm2.332 -35.353c3.908,0.015 6.317,0.958 8.944,3.595 4.459,4.475 4.537,11.955 0.013,16.43 -2.747,2.716 -5.008,3.618 -9.051,3.602 -3.403,-0.014 -6.271,-1.84 -8.007,-3.59 -4.404,-4.438 -4.324,-12.106 -0.014,-16.435 1.762,-1.769 4.661,-3.616 8.115,-3.602zm-11.972 20.137c-3.163,1.657 -5.496,4.832 -5.515,9.68l-0.045 11.265c-0.002,0.485 0.148,1.042 0.363,1.354 0.714,1.035 2.584,0.976 2.889,-0.904 0.502,-3.099 -0.746,-12.932 0.879,-15.766 0.557,-0.972 2.439,-2.809 3.61,-3.117 0.774,0.523 1.278,1.248 3.07,2.253 0.839,0.471 2.891,1.438 3.956,1.531l-2.931 9c-0.187,0.933 0.201,1.157 0.648,1.68l3.361 3.836c0.65,0.645 1.282,2.117 2.732,1.592 0.481,-0.174 1.462,-1.246 1.876,-1.737l2.853 -3.251c0.629,-0.773 0.964,-0.589 0.969,-1.851 0.003,-0.921 -2.402,-7.589 -2.78,-9.243 1.47,-0.698 2.621,-0.476 5.399,-2.569 0.551,-0.416 0.966,-0.804 1.501,-1.159 4.315,2.306 4.521,4.033 4.502,8.781 -0.009,2.242 -0.017,4.485 -0.026,6.728 -0.009,2.221 -0.512,5.005 1.701,5.014 0.835,0.003 1.568,-0.875 1.573,-2.028l0.044 -11.109c0.021,-5.227 -2.34,-8.059 -5.75,-9.881 4.444,-6.58 2.98,-15.589 -3.493,-20.38 -10.141,-7.504 -25.073,0.206 -23.681,13.83 0.367,3.591 2.099,5.706 2.295,6.451z"/>
   <path class="fil0" d="M60.609 31.3l1.096 0.004c0.202,0.426 2.318,7.238 2.317,7.52 0,0.033 -2.615,2.976 -2.829,3.119 -0.662,-0.447 -2.458,-2.802 -2.961,-3.141 0.218,-0.451 0.466,-1.275 0.6,-1.753 0.207,-0.739 0.365,-1.186 0.608,-1.901l1.169 -3.848zm0.425 -28.007c3.569,0.014 6.522,1.613 8.319,3.436 6.294,6.382 3.592,16.351 -3.511,19.32 -3.265,1.364 -6.539,1.359 -9.747,-0.089 -1.824,-0.822 -3.774,-2.459 -4.837,-4.085 -1.187,-1.813 -2.248,-4.399 -2.113,-6.703 0.319,-5.42 2.725,-8.689 7.031,-10.805 1.181,-0.581 3.089,-1.081 4.858,-1.074zm-12.442 20.292c-1.261,0.288 -3.22,2.397 -3.879,3.474 -0.95,1.554 -1.625,3.301 -1.635,5.736l-0.046 11.735c-0.005,1.19 0.56,1.88 1.713,1.885 2.036,0.008 1.577,-2.971 1.585,-5.001 0.009,-2.19 0.017,-4.381 0.026,-6.572 0.017,-4.231 -0.036,-6.154 3.724,-8.499l0.536 -0.403c0.56,0.378 0.93,0.784 1.467,1.195 1.114,0.852 2.32,1.496 3.615,2.024 0.713,0.29 1.511,0.436 2.1,0.722l-2.199 6.738c-0.587,1.826 -1.062,2.633 -0.158,3.705l3.745 4.233c0.643,0.734 0.799,1.449 1.991,1.454 1.115,0.004 2.626,-2.154 3.417,-2.997 0.335,-0.357 0.368,-0.504 0.704,-0.861 2.911,-3.105 2.558,-2.077 0.716,-7.643 -0.279,-0.841 -0.463,-1.576 -0.733,-2.39 -0.237,-0.714 -0.578,-1.602 -0.754,-2.369 1.505,-0.119 4.191,-1.555 5.466,-2.503 0.536,-0.397 0.95,-0.808 1.434,-1.225 3.923,2.096 4.681,4.03 4.659,8.625l-0.045 9.864c-0.033,3.071 3.127,2.293 3.134,0.475l0.048 -12.048c0.015,-3.735 -1.302,-5.62 -3.37,-7.722 -0.431,-0.438 -1.634,-1.372 -2.226,-1.532 0.084,-0.962 2.361,-3.568 2.376,-7.502 0.012,-2.964 -0.045,-4.62 -1.376,-7.362 -0.795,-1.638 -1.681,-2.868 -2.92,-4.116 -1.239,-1.249 -2.461,-2.144 -4.093,-2.953 -4.747,-2.352 -10.303,-1.765 -14.747,1.007 -3.063,1.911 -5.276,5.334 -6.234,8.798 -0.539,1.953 -0.517,4.734 -0.145,6.634 0.635,3.232 1.896,4.488 2.104,5.394z"/>
   <path class="fil0" d="M59.239 61.181c1.265,0.005 2.417,-1.845 3.188,-2.756 0.253,-0.298 0.351,-0.377 0.58,-0.672 0.346,-0.444 0.732,-0.826 1.101,-1.247 -0.017,4.16 -0.629,7.124 -3.285,9.728 -1.654,1.622 -2.906,2.594 -5.353,3.402 -5.955,1.966 -9.396,-0.84 -11.283,-0.848 -0.946,-0.004 -2.251,2.101 -0.015,3.132 6.432,2.97 13.799,1.662 18.596,-3.097 2.607,-2.586 4.601,-6.232 4.622,-11.365 0.643,0.434 1.109,1.041 1.677,1.609 0.46,0.46 1.142,1.532 1.909,1.535 1.35,0.005 1.724,-0.647 1.728,-1.715 0.004,-0.926 -2.731,-3.302 -3.465,-4.043 -0.735,-0.74 -3.089,-3.494 -4.015,-3.497 -0.899,-0.004 -1.101,0.108 -1.66,0.84 -1.214,1.586 -4.45,5.052 -5.397,6.344 -1.039,1.418 0.122,2.646 1.072,2.65z"/>
   <path class="fil0" d="M16.827 23.615c-1.157,-0.782 -3.426,-4.648 -5.09,-2.618 -1.023,1.248 0.182,2.185 1.15,3.255l3.883 3.94c2.805,2.827 2.743,1.886 6.197,-2.158 0.344,-0.403 0.531,-0.582 0.874,-1.004 0.673,-0.827 2.537,-2.72 2.539,-3.411 0.006,-1.33 -1.649,-2.652 -3.039,-0.864l-1.077 1.27c-0.206,0.242 -0.329,0.32 -0.535,0.561l-1.011 1.181c-0.249,0.307 -0.279,0.426 -0.608,0.644 -0.869,-3.799 1.531,-7.976 3.599,-10.04 3.513,-3.506 9.333,-4.673 14.246,-2.677 0.909,0.369 1.001,0.587 1.919,0.591 1.203,0.004 2.48,-2.024 0.174,-3.134 -9.825,-4.728 -23.168,1.189 -23.221,14.464z"/>
  </g>
 </g>
</svg>
