<?xml version="1.0" encoding="UTF-8"?>
<!DOCTYPE svg PUBLIC "-//W3C//DTD SVG 1.1//EN" "http://www.w3.org/Graphics/SVG/1.1/DTD/svg11.dtd">
<!-- Creator: CorelDRAW 2021 (64-Bit) -->
<svg xmlns="http://www.w3.org/2000/svg" xml:space="preserve" width="80px" height="80px" version="1.1" style="shape-rendering:geometricPrecision; text-rendering:geometricPrecision; image-rendering:optimizeQuality; fill-rule:evenodd; clip-rule:evenodd"
viewBox="0 0 80 80"
 xmlns:xlink="http://www.w3.org/1999/xlink"
 xmlns:xodm="http://www.corel.com/coreldraw/odm/2003">
 <defs>
  <style type="text/css">
   <![CDATA[
    .fil0 {fill:white}
    .fil1 {fill:white}
   ]]>
  </style>
 </defs>
 <g id="Layer_x0020_1">
  <metadata id="CorelCorpID_0Corel-Layer"/>
  <g id="_2403840545984">
   <path class="fil0" d="M-110.669 20.502c0.068,-0.825 0.419,-2.171 0.575,-2.951 0.104,-0.521 0.15,-0.891 0.275,-1.412 0.179,-0.753 0.236,-0.654 0.719,-1.12 2.909,-2.81 20.352,-20.607 21.299,-21.171 1.348,-0.803 4.116,-0.695 4.116,2.736 0,1.357 -4.822,5.666 -5.941,6.784l-12.725 12.726c-4.039,4.039 -2.424,3.207 -5.648,3.859 -0.955,0.192 -1.797,0.346 -2.67,0.549zm-5.366 2.913c0,1.365 1.153,2.432 2.431,2.399 0.904,-0.023 2.997,-0.556 4.098,-0.776 1.436,-0.288 2.663,-0.484 4.111,-0.795 2.156,-0.464 1.965,-0.476 3.273,-1.786 0.788,-0.788 9.357,-9.494 10.005,-9.928l-0.037 10.85c-0.414,3.056 -2.527,5.096 -5.79,5.096l-40.476 0c-3.089,0 -5.673,-2.287 -5.673,-5.06l0 -59.182c0,-2.773 2.584,-5.059 5.673,-5.059l40.476 0c3.419,0 5.827,2.407 5.827,5.826l0 26.218c0,0.522 -6.393,6.623 -6.862,7.091l-14.028 14.029c-0.851,0.845 -1.005,0.803 -1.28,2.247 -0.205,1.074 -0.371,1.869 -0.586,2.94l-1.162 5.89zm-32.811 -58.875l0 58.569c0,5.315 4.625,9.965 9.506,9.965l42.47 0c3.269,0 6.757,-2.482 8.23,-5.415 1.002,-1.994 1.122,-2.733 1.122,-5.624 0,-3.275 -0.157,-10.956 -0.011,-13.657 0.046,-0.865 0.423,-0.937 1.429,-1.943 3.151,-3.15 7.168,-6.02 7.168,-10.157 0,-4.079 -3.184,-7.513 -7.206,-7.513l-1.38 0 0 -24.838c0,-1.319 -0.505,-2.703 -0.969,-3.631 -1.559,-3.125 -4.947,-5.722 -8.383,-5.722l-42.47 0c-4.851,0 -9.506,4.618 -9.506,9.966z"/>
   <path class="fil0" d="M-138.114 -10.315c0,1.226 1.038,2.299 2.3,2.299l35.571 0c2.504,0 2.847,-4.599 -0.307,-4.599l-35.417 0c-1.052,0 -2.147,1.222 -2.147,2.3z"/>
   <path class="fil0" d="M-127.228 -20.281c0,1.568 1.173,2.453 2.76,2.453l23.458 0c3.849,0 3.422,-4.753 0.307,-4.753l-24.072 0c-1.3,0 -2.453,1.056 -2.453,2.3z"/>
   <path class="fil0" d="M-127.228 -30.094c0,1.365 1.267,2.3 2.453,2.3l24.072 0c0.713,0 1.305,-0.28 1.68,-0.619 1.662,-1.504 0.507,-4.134 -1.834,-4.134l-23.764 0c-1.431,0 -2.607,0.999 -2.607,2.453z"/>
   <path class="fil0" d="M-127.228 -0.35c0,1.274 1.169,2.3 2.147,2.3l11.039 0c2.765,0 3.735,-4.753 -0.92,-4.753l-9.046 0c-1.831,0 -3.22,0.636 -3.22,2.453z"/>
   <path class="fil0" d="M-138.114 -20.281c0,2.806 3.187,2.453 4.753,2.453 3.818,0 3.446,-4.753 0.307,-4.753 -1.661,0 -3.354,-0.267 -4.263,0.643 -0.332,0.332 -0.797,1.067 -0.797,1.657z"/>
   <path class="fil0" d="M-138.114 -0.35c0,2.78 3.521,2.3 5.367,2.3 2.446,0 3.676,-4.753 -1.074,-4.753 -1.824,0 -4.293,0.039 -4.293,2.453z"/>
   <path class="fil0" d="M-138.114 -30.247c0,2.863 3.055,2.453 4.753,2.453 3.131,0 3.497,-4.753 -0.46,-4.753 -1.148,0 -2.512,-0.115 -3.406,0.58 -0.345,0.268 -0.887,1.213 -0.887,1.72z"/>
  </g>
  <g id="_2403840541760">
   <path class="fil1" d="M-196.016 35.24l23.463 0 0 5.214 -23.463 0 0 -5.214zm-4.754 -23.922c0,-1.286 0.568,-1.381 1.534,-1.381 1.503,0 2.771,6.748 5.827,6.748 2.031,0 2.765,-1.595 2.766,-3.675l-0.007 -16.109c-0.012,-1.896 0.033,-2.145 1.535,-2.145 1.177,0 0.92,2.134 0.92,3.373l-0.006 8.901c-0.01,1.827 0.559,2.106 2.306,2.141l8.085 0.655c1.676,0.219 2.279,0.019 3.605,0.843 0.793,0.494 1.652,1.576 1.652,2.796l0 11.348c0,2.467 -2.607,2.616 -2.607,7.667l-17.789 0c-0.958,0 0.188,-1.701 -1.683,-5.524 -1.486,-3.037 -0.838,-1.356 -2.259,-4.949 -0.347,-0.878 -0.648,-1.753 -0.947,-2.58l-2.932 -8.109zm7.361 2.453c-0.024,-0.027 -0.057,-0.111 -0.066,-0.087 -0.009,0.023 -0.053,-0.069 -0.065,-0.088 -0.121,-0.174 -0.079,-0.11 -0.185,-0.275 -1.743,-2.705 -2.637,-6.144 -5.818,-6.144 -2.077,0 -3.987,1.902 -3.987,3.987 0,1.196 3.741,10.81 4.276,12.286 0.828,2.283 0.669,1.858 1.705,3.816l-40.332 0 0 -49.532 73.302 0 0 49.532 -5.827 0c0.322,-0.672 0.613,-1.758 0.613,-2.76l0 -10.735c0,-3.196 -2.402,-5.683 -5.021,-6.327 -1.394,-0.343 -3.505,-0.265 -5.165,-0.509 -0.751,-0.11 -1.998,-0.2 -2.695,-0.218 -0.984,-0.025 -1.605,-0.153 -2.761,-0.153l0 -10.121c0,-5.18 -6.245,-5.989 -7.808,-1.675 -0.407,1.121 -0.166,17.032 -0.166,19.003zm-44.472 -46.618l73.302 0 0 7.82 -73.302 0 0 -7.82zm75.909 -2.607l-78.516 0 0 65.48 44.165 0c0.068,0.814 0.307,1.519 0.307,2.454l-2.607 0 0 10.581 28.83 0 0 -10.581 -2.607 0c0,-0.41 -0.032,-0.972 0.016,-1.364 0.052,-0.428 0.19,-0.659 0.291,-1.09l10.121 0 0 -65.48z"/>
   <path class="fil1" d="M-224.846 -8.618l-3.031 -2.949 -1.757 1.842c0.21,0.681 4.787,4.786 4.788,4.787l3.175 -2.652c0.503,-0.426 1.48,-1.492 2.039,-1.641l0 5.06 -10.274 0 0 -10.274 10.274 0c0,2.424 -0.113,1.376 -2.492,3.642 -0.447,0.425 -0.836,0.728 -1.306,1.147 -0.381,0.34 -0.972,0.92 -1.416,1.038zm-7.821 7.207l15.795 0 0 -10.121c0,-0.451 1.362,-1.329 1.723,-1.651 0.688,-0.612 1.483,-1.095 1.651,-1.722l-1.687 -1.841c-0.618,0.538 -0.978,0.907 -1.687,1.381l0 -1.841 -15.795 0 0 15.795z"/>
   <path class="fil1" d="M-224.846 12.391l-2.876 -2.951 -1.915 1.841 4.674 4.754c1.318,-0.866 4.167,-3.631 5.331,-4.411l0 5.214 -10.274 0 0 -10.428 10.274 0c0,2.328 0.252,1.289 -1.876,3.185 -0.275,0.245 -0.324,0.336 -0.642,0.584 -0.979,0.762 -1.689,1.538 -2.696,2.212zm-7.821 7.207l15.795 0 0 -10.121c0,-0.587 3.104,-2.936 3.528,-3.22 -0.182,-0.272 -0.506,-0.652 -0.744,-0.943 -0.362,-0.44 -0.639,-0.483 -0.79,-1.05 -0.802,0.066 -1.141,0.809 -1.994,1.38l0 -1.84 -15.795 0 0 15.794z"/>
   <polygon class="fil1" points="-201.23,-9.231 -169.793,-9.231 -169.793,-11.992 -201.23,-11.992 "/>
   <polygon class="fil1" points="-193.409,-14.445 -169.793,-14.445 -169.793,-17.206 -193.409,-17.206 "/>
   <polygon class="fil1" points="-182.981,2.577 -169.793,2.577 -169.793,-0.184 -182.981,-0.184 "/>
   <path class="fil1" d="M-182.981 -3.097c0,0.353 0.107,0.46 0.46,0.46l12.728 0 0 -2.761 -13.188 0 0 2.301z"/>
   <polygon class="fil1" points="-201.23,-14.445 -196.016,-14.445 -196.016,-17.206 -201.23,-17.206 "/>
   <polygon class="fil1" points="-201.23,2.577 -196.016,2.577 -196.016,-0.184 -201.23,-0.184 "/>
   <polygon class="fil1" points="-201.23,-2.637 -196.016,-2.637 -196.016,-5.398 -201.23,-5.398 "/>
   <path class="fil1" d="M-224.846 -27.94c0,0.681 0.716,0.46 2.3,0.46 0.72,0 0.46,-0.942 0.46,-2.76l-2.76 0 0 2.3z"/>
   <path class="fil1" d="M-230.06 -27.94c0,0.681 0.716,0.46 2.301,0.46 0.72,0 0.46,-0.942 0.46,-2.76l-2.761 0 0 2.3z"/>
   <path class="fil1" d="M-235.274 -27.94c0,0.681 0.716,0.46 2.301,0.46 0.681,0 0.46,-0.716 0.46,-2.301 0,-0.72 -0.942,-0.459 -2.761,-0.459l0 2.3z"/>
  </g>
  <g id="_2403840542960">
   <path class="fil0" d="M38.406 74.418l0 -9.233 4.817 0c0,8.037 1.126,11.24 -2.81,11.24 -0.936,0 -2.007,-1.071 -2.007,-2.007zm-8.43 -16.86c2.9,0 4.873,0.329 6.773,-0.854 1.179,-0.735 2.861,-2.965 2.861,-4.766l0 -19.67 2.409 0 0 19.67c0,1.801 1.682,4.031 2.861,4.766 1.9,1.183 3.873,0.854 6.773,0.854 -0.728,2.728 -9.58,7.187 -17.267,3.619l-3.624 -2.398c-1.111,-1.092 -0.139,0.01 -0.786,-1.221zm18.466 -16.458c0,1.897 3.116,1.204 6.422,1.204 0.441,0.917 0.621,1.555 0.893,2.791 1.227,5.589 -7.315,-0.062 -7.315,3.632 0,2.172 4.908,1.605 7.225,1.605 -0.427,1.833 -1.234,3.224 -1.605,4.817 -2.56,0 -5.08,0.193 -7.075,-0.553 -2.516,-0.94 -2.182,-2.695 -2.161,-5.866 0.035,-5.216 0.003,-10.442 0.003,-15.659 3.174,0.264 8.104,4.101 8.831,6.824 -2.017,0 -5.218,-0.659 -5.218,1.205zm-11.642 -8.029c0,5.217 -0.031,10.443 0.003,15.659 0.041,6.152 -0.387,6.419 -9.235,6.419 -0.372,-1.593 -1.179,-2.984 -1.606,-4.817 2.318,0 7.225,0.567 7.225,-1.605 0,-2.263 -4.363,-0.783 -6.442,-1.213 -1.488,-0.307 -1.15,-1.021 -0.951,-2.075 0.252,-1.34 0.525,-2.205 0.971,-3.135 3.436,0 6.422,0.689 6.422,-1.204 0,-1.864 -3.201,-1.205 -5.218,-1.205 0.727,-2.723 5.657,-6.56 8.831,-6.824zm-1.204 31.311c0,6.352 -1.762,14.853 5.219,14.853 6.98,0 5.218,-8.501 5.218,-14.853 5.61,-0.467 13.942,-8.97 12.432,-19.655 -1.879,-13.299 -17.935,-20.452 -29.584,-10.744 -6.409,5.34 -7.954,15.665 -2.853,23.509 1.567,2.41 6.132,6.604 9.568,6.89z"/>
   <path class="fil0" d="M7.497 14.204l6.325 -6.52c0.097,7.822 1.399,6.52 -6.325,6.52zm-4.818 1.606l0 35.727c0,1.984 1.629,3.612 3.613,3.612l14.05 0c1.073,0 1.187,-0.579 1.606,-1.204 -0.648,-2.427 -2.539,-1.605 -8.029,-1.605 -3.87,0 -8.43,0.763 -8.43,-1.205l0 -34.121c12.309,0 11.24,1.069 11.24,-11.24 22.713,0 20.13,-1.478 20.075,4.413 -0.039,4.122 -0.27,13.994 0.398,16.863 1.395,0 2.408,0.245 2.408,-1.205l0 -19.268c0,-3.179 -2.84,-3.613 -6.021,-3.613l-15.656 0c-4.745,0 -6.179,2.768 -8.731,5.319 -1.24,1.241 -6.523,5.986 -6.523,7.527z"/>
   <path class="fil0" d="M46.836 14.204l6.325 -6.52c0.098,7.822 1.399,6.52 -6.325,6.52zm-4.817 2.409c0,10.929 -0.814,10.437 2.408,10.437 0.724,-3.105 0.402,-6.308 0.402,-10.036 12.308,0 11.24,1.069 11.24,-11.24l20.071 0 0 45.361c0,1.693 -1.812,1.248 -3.599,1.218l-9.678 -0.043c-2.262,-0.011 -2.692,-0.196 -3.181,1.635 0.418,0.625 0.532,1.204 1.605,1.204l14.05 0c1.467,0 3.211,-1.107 3.211,-2.408l0 -47.368c0,-2.157 -3.353,-2.409 -5.62,-2.409 -3.286,0 -15.668,-0.273 -18.135,0.331 -2.129,0.521 -3.46,2.599 -6.05,5.189 -1.302,1.302 -2.31,2.312 -3.613,3.613 -1.179,1.177 -3.111,2.446 -3.111,4.516z"/>
   <path class="fil0" d="M48.442 28.254c0,0.94 0.666,1.606 1.605,1.606 4.917,0 18.592,0.504 22.48,-0.401 0,-1.396 0.246,-2.409 -1.204,-2.409l-21.677 0c-0.925,0 -1.204,0.279 -1.204,1.204z"/>
   <path class="fil0" d="M9.102 29.459c3.888,0.905 17.563,0.401 22.48,0.401 1.774,0 2.434,-2.81 0.401,-2.81l-21.677 0c-1.449,0 -1.204,1.013 -1.204,2.409z"/>
   <path class="fil0" d="M48.442 21.831c0,1.05 -0.032,1.606 1.204,1.606l21.677 0c1.712,0 1.712,-2.81 0,-2.81l-21.677 0c-0.925,0 -1.204,0.279 -1.204,1.204z"/>
   <path class="fil0" d="M9.102 21.831c0,1.05 -0.031,1.606 1.204,1.606l21.677 0c1.712,0 1.712,-2.81 0,-2.81l-21.677 0c-0.924,0 -1.204,0.279 -1.204,1.204z"/>
   <path class="fil0" d="M56.872 34.677c0,1.234 1.176,1.606 2.408,1.606 3.924,0 9.624,0.442 13.247,-0.402 0,-3.584 -0.262,-2.408 -14.451,-2.408 -0.925,0 -1.204,0.279 -1.204,1.204z"/>
   <path class="fil0" d="M9.102 35.881c3.623,0.844 9.323,0.402 13.247,0.402 2.948,0 3.154,-2.81 1.204,-2.81 -14.189,0 -14.451,-1.176 -14.451,2.408z"/>
   <path class="fil0" d="M9.102 46.318c0,3.192 -0.517,2.409 10.036,2.409 0.9,0 0.881,-0.318 1.605,-0.803 -0.675,-2.898 -2.82,-2.007 -9.634,-2.007 -0.632,0 -1.521,0.213 -2.007,0.401z"/>
   <path class="fil0" d="M60.886 47.924c0.724,0.485 0.706,0.803 1.606,0.803 10.552,0 10.035,0.783 10.035,-2.409 -3.066,-0.714 -5.566,-0.401 -9.233,-0.401 -1.783,0 -2.07,0.553 -2.408,2.007z"/>
   <path class="fil0" d="M60.083 41.1c0,0.925 0.279,1.204 1.204,1.204l10.036 0c1.7,0 1.7,-2.409 0,-2.409l-10.036 0c-0.925,0 -1.204,0.28 -1.204,1.205z"/>
   <path class="fil0" d="M9.102 41.1c0,0.925 0.28,1.204 1.204,1.204l10.036 0c1.701,0 1.701,-2.409 0,-2.409l-10.036 0c-0.924,0 -1.204,0.28 -1.204,1.205z"/>
  </g>
 </g>
</svg>
