<?xml version="1.0" encoding="UTF-8"?>
<!DOCTYPE svg PUBLIC "-//W3C//DTD SVG 1.1//EN" "http://www.w3.org/Graphics/SVG/1.1/DTD/svg11.dtd">
<!-- Creator: CorelDRAW 2021 (64-Bit) -->
<svg xmlns="http://www.w3.org/2000/svg" xml:space="preserve" width="80px" height="80px" version="1.1" style="shape-rendering:geometricPrecision; text-rendering:geometricPrecision; image-rendering:optimizeQuality; fill-rule:evenodd; clip-rule:evenodd"
viewBox="0 0 80 80"
 xmlns:xlink="http://www.w3.org/1999/xlink"
 xmlns:xodm="http://www.corel.com/coreldraw/odm/2003">
 <defs>
  <style type="text/css">
   <![CDATA[
    .fil0 {fill:white}
    .fil1 {fill:white}
   ]]>
  </style>
 </defs>
 <g id="Layer_x0020_1">
  <metadata id="CorelCorpID_0Corel-Layer"/>
  <g id="_2403815238448">
   <path class="fil0" d="M-110.669 20.502c0.068,-0.825 0.419,-2.171 0.575,-2.951 0.104,-0.521 0.15,-0.891 0.275,-1.412 0.179,-0.753 0.236,-0.654 0.719,-1.12 2.909,-2.81 20.352,-20.607 21.299,-21.171 1.348,-0.803 4.116,-0.695 4.116,2.736 0,1.357 -4.822,5.666 -5.941,6.784l-12.725 12.726c-4.039,4.039 -2.424,3.207 -5.648,3.859 -0.955,0.192 -1.797,0.346 -2.67,0.549zm-5.366 2.913c0,1.365 1.153,2.432 2.431,2.399 0.904,-0.023 2.997,-0.556 4.098,-0.776 1.436,-0.288 2.663,-0.484 4.111,-0.795 2.156,-0.464 1.965,-0.476 3.273,-1.786 0.788,-0.788 9.357,-9.494 10.005,-9.928l-0.037 10.85c-0.414,3.056 -2.527,5.096 -5.79,5.096l-40.476 0c-3.089,0 -5.673,-2.287 -5.673,-5.06l0 -59.182c0,-2.773 2.584,-5.059 5.673,-5.059l40.476 0c3.419,0 5.827,2.407 5.827,5.826l0 26.218c0,0.522 -6.393,6.623 -6.862,7.091l-14.028 14.029c-0.851,0.845 -1.005,0.803 -1.28,2.247 -0.205,1.074 -0.371,1.869 -0.586,2.94l-1.162 5.89zm-32.811 -58.875l0 58.569c0,5.315 4.625,9.965 9.506,9.965l42.47 0c3.269,0 6.757,-2.482 8.23,-5.415 1.002,-1.994 1.122,-2.733 1.122,-5.624 0,-3.275 -0.157,-10.956 -0.011,-13.657 0.046,-0.865 0.423,-0.937 1.429,-1.943 3.151,-3.15 7.168,-6.02 7.168,-10.157 0,-4.079 -3.184,-7.513 -7.206,-7.513l-1.38 0 0 -24.838c0,-1.319 -0.505,-2.703 -0.969,-3.631 -1.559,-3.125 -4.947,-5.722 -8.383,-5.722l-42.47 0c-4.851,0 -9.506,4.618 -9.506,9.966z"/>
   <path class="fil0" d="M-138.114 -10.315c0,1.226 1.038,2.299 2.3,2.299l35.571 0c2.504,0 2.847,-4.599 -0.307,-4.599l-35.417 0c-1.052,0 -2.147,1.222 -2.147,2.3z"/>
   <path class="fil0" d="M-127.228 -20.281c0,1.568 1.173,2.453 2.76,2.453l23.458 0c3.849,0 3.422,-4.753 0.307,-4.753l-24.072 0c-1.3,0 -2.453,1.056 -2.453,2.3z"/>
   <path class="fil0" d="M-127.228 -30.094c0,1.365 1.267,2.3 2.453,2.3l24.072 0c0.713,0 1.305,-0.28 1.68,-0.619 1.662,-1.504 0.507,-4.134 -1.834,-4.134l-23.764 0c-1.431,0 -2.607,0.999 -2.607,2.453z"/>
   <path class="fil0" d="M-127.228 -0.35c0,1.274 1.169,2.3 2.147,2.3l11.039 0c2.765,0 3.735,-4.753 -0.92,-4.753l-9.046 0c-1.831,0 -3.22,0.636 -3.22,2.453z"/>
   <path class="fil0" d="M-138.114 -20.281c0,2.806 3.187,2.453 4.753,2.453 3.818,0 3.446,-4.753 0.307,-4.753 -1.661,0 -3.354,-0.267 -4.263,0.643 -0.332,0.332 -0.797,1.067 -0.797,1.657z"/>
   <path class="fil0" d="M-138.114 -0.35c0,2.78 3.521,2.3 5.367,2.3 2.446,0 3.676,-4.753 -1.074,-4.753 -1.824,0 -4.293,0.039 -4.293,2.453z"/>
   <path class="fil0" d="M-138.114 -30.247c0,2.863 3.055,2.453 4.753,2.453 3.131,0 3.497,-4.753 -0.46,-4.753 -1.148,0 -2.512,-0.115 -3.406,0.58 -0.345,0.268 -0.887,1.213 -0.887,1.72z"/>
  </g>
  <g id="_2403815304608">
   <path class="fil1" d="M44.997 71.438l23.463 0 0 5.213 -23.463 0 0 -5.213zm-4.754 -23.923c0,-1.286 0.567,-1.38 1.533,-1.38 1.504,0 2.771,6.747 5.828,6.747 2.031,0 2.765,-1.595 2.765,-3.675l-0.006 -16.108c-0.013,-1.897 0.033,-2.146 1.535,-2.146 1.177,0 0.92,2.134 0.92,3.374l-0.007 8.901c-0.009,1.826 0.56,2.105 2.306,2.141l8.086 0.655c1.676,0.219 2.279,0.018 3.605,0.843 0.793,0.493 1.652,1.576 1.652,2.795l0 11.348c0,2.467 -2.607,2.617 -2.607,7.667l-17.789 0c-0.959,0 0.187,-1.701 -1.683,-5.524 -1.486,-3.037 -0.838,-1.355 -2.259,-4.949 -0.348,-0.878 -0.648,-1.753 -0.947,-2.579l-2.932 -8.11zm7.361 2.454c-0.024,-0.028 -0.057,-0.111 -0.066,-0.088 -0.009,0.024 -0.053,-0.069 -0.066,-0.088 -0.12,-0.174 -0.078,-0.11 -0.184,-0.275 -1.743,-2.705 -2.637,-6.144 -5.818,-6.144 -2.077,0 -3.987,1.902 -3.987,3.988 0,1.196 3.741,10.81 4.276,12.286 0.827,2.282 0.669,1.858 1.704,3.815l-40.331 0 0 -49.532 73.302 0 0 49.532 -5.827 0c0.322,-0.672 0.613,-1.758 0.613,-2.76l0 -10.734c0,-3.196 -2.402,-5.684 -5.021,-6.328 -1.394,-0.343 -3.505,-0.265 -5.165,-0.508 -0.751,-0.111 -1.998,-0.201 -2.696,-0.219 -0.983,-0.024 -1.604,-0.153 -2.76,-0.153l0 -10.121c0,-5.179 -6.245,-5.989 -7.809,-1.675 -0.406,1.121 -0.165,17.032 -0.165,19.004zm-44.472 -46.619l73.302 0 0 7.821 -73.302 0 0 -7.821zm75.909 -2.607l-78.516 0 0 65.481 44.165 0c0.068,0.813 0.307,1.518 0.307,2.453l-2.607 0 0 10.581 28.83 0 0 -10.581 -2.607 0c0,-0.41 -0.032,-0.972 0.016,-1.364 0.052,-0.427 0.19,-0.659 0.291,-1.089l10.121 0 0 -65.481z"/>
   <path class="fil1" d="M16.167 27.579l-3.032 -2.949 -1.756 1.842c0.209,0.682 4.786,4.787 4.788,4.788l3.174 -2.653c0.504,-0.426 1.481,-1.492 2.04,-1.641l0 5.06 -10.275 0 0 -10.274 10.275 0c0,2.424 -0.113,1.377 -2.492,3.642 -0.447,0.426 -0.836,0.729 -1.306,1.148 -0.381,0.34 -0.973,0.919 -1.416,1.037zm-7.821 7.208l15.795 0 0 -10.121c0,-0.452 1.362,-1.33 1.723,-1.651 0.688,-0.613 1.483,-1.095 1.651,-1.723l-1.687 -1.84c-0.618,0.537 -0.979,0.906 -1.687,1.38l0 -1.84 -15.795 0 0 15.795z"/>
   <path class="fil1" d="M16.167 48.588l-2.876 -2.951 -1.915 1.841 4.674 4.754c1.318,-0.866 4.167,-3.631 5.331,-4.41l0 5.213 -10.275 0 0 -10.427 10.275 0c0,2.327 0.252,1.289 -1.876,3.184 -0.276,0.246 -0.324,0.337 -0.642,0.585 -0.979,0.761 -1.689,1.537 -2.696,2.211zm-7.821 7.208l15.795 0 0 -10.121c0,-0.588 3.103,-2.937 3.527,-3.221 -0.182,-0.271 -0.505,-0.651 -0.744,-0.942 -0.361,-0.441 -0.638,-0.484 -0.789,-1.051 -0.802,0.067 -1.142,0.809 -1.994,1.38l0 -1.84 -15.795 0 0 15.795z"/>
   <polygon class="fil1" points="39.783,26.966 71.22,26.966 71.22,24.206 39.783,24.206 "/>
   <polygon class="fil1" points="47.604,21.752 71.22,21.752 71.22,18.992 47.604,18.992 "/>
   <polygon class="fil1" points="58.032,38.774 71.22,38.774 71.22,36.014 58.032,36.014 "/>
   <path class="fil1" d="M58.032 33.1c0,0.353 0.106,0.46 0.46,0.46l12.728 0 0 -2.76 -13.188 0 0 2.3z"/>
   <polygon class="fil1" points="39.783,21.752 44.997,21.752 44.997,18.992 39.783,18.992 "/>
   <polygon class="fil1" points="39.783,38.774 44.997,38.774 44.997,36.014 39.783,36.014 "/>
   <polygon class="fil1" points="39.783,33.56 44.997,33.56 44.997,30.8 39.783,30.8 "/>
   <path class="fil1" d="M16.167 8.257c0,0.681 0.716,0.46 2.3,0.46 0.72,0 0.46,-0.942 0.46,-2.76l-2.76 0 0 2.3z"/>
   <path class="fil1" d="M10.953 8.257c0,0.681 0.716,0.46 2.3,0.46 0.72,0 0.46,-0.942 0.46,-2.76l-2.76 0 0 2.3z"/>
   <path class="fil1" d="M5.739 8.257c0,0.681 0.716,0.46 2.3,0.46 0.682,0 0.46,-0.716 0.46,-2.3 0,-0.72 -0.942,-0.46 -2.76,-0.46l0 2.3z"/>
  </g>
 </g>
</svg>
